<?xml version="1.0" standalone="no"?>
<!DOCTYPE svg PUBLIC "-//W3C//DTD SVG 1.1//EN"
"http://www.w3.org/Graphics/SVG/1.1/DTD/svg11.dtd">
<svg width="253.946" height="219.591" viewBox="0 0 5290.55 4574.8" version="1.1"
xmlns="http://www.w3.org/2000/svg"
xmlns:xlink="http://www.w3.org/1999/xlink">
<polyline points="1988.24,1890.1 1991.04,1893.76 1993.51,1896.65 2003.15,1906.8 2005.83,1909.35 2016.5,1918.46 2017.19,1918.99" style="stroke:rgb(255,0,0);stroke-width:39.370079;fill:none;stroke-opacity:0.5;stroke-linecap:round;stroke-linejoin:round;;fill:none"/>
<polyline points="1988.24,1890.1 1991.04,1893.76 1993.51,1896.65 2003.15,1906.8 2005.83,1909.35 2016.5,1918.46 2017.19,1918.99" style="stroke:rgb(0,0,0);stroke-width:1px;fill:none;stroke-opacity:1;stroke-linecap:round;stroke-linejoin:round;;fill:none"/>
<polyline points="1988.24,1890.1 1991.04,1893.76 1993.51,1896.65 2003.15,1906.8 2005.83,1909.35 2016.5,1918.46 2017.19,1918.99" style="stroke:rgb(255,0,0);stroke-width:39.370079;fill:none;stroke-opacity:0.5;stroke-linecap:round;stroke-linejoin:round;;fill:none"/>
<polyline points="1988.24,1890.1 1991.04,1893.76 1993.51,1896.65 2003.15,1906.8 2005.83,1909.35 2016.5,1918.46 2017.19,1918.99" style="stroke:rgb(0,0,0);stroke-width:1px;fill:none;stroke-opacity:1;stroke-linecap:round;stroke-linejoin:round;;fill:none"/>
<polyline points="1988.24,1890.1 1991.04,1893.76 1993.51,1896.65 2003.15,1906.8 2005.83,1909.35 2016.5,1918.46 2017.19,1918.99" style="stroke:rgb(255,0,0);stroke-width:39.370079;fill:none;stroke-opacity:0.5;stroke-linecap:round;stroke-linejoin:round;;fill:none"/>
<polyline points="1988.24,1890.1 1991.04,1893.76 1993.51,1896.65 2003.15,1906.8 2005.83,1909.35 2016.5,1918.46 2017.19,1918.99" style="stroke:rgb(0,0,0);stroke-width:1px;fill:none;stroke-opacity:1;stroke-linecap:round;stroke-linejoin:round;;fill:none"/>
<polyline points="1988.24,1890.1 1991.04,1893.76 1993.51,1896.65 2003.15,1906.8 2005.83,1909.35 2016.5,1918.46 2017.19,1918.99" style="stroke:rgb(255,0,0);stroke-width:39.370079;fill:none;stroke-opacity:0.5;stroke-linecap:round;stroke-linejoin:round;;fill:none"/>
<polyline points="1988.24,1890.1 1991.04,1893.76 1993.51,1896.65 2003.15,1906.8 2005.83,1909.35 2016.5,1918.46 2017.19,1918.99" style="stroke:rgb(0,0,0);stroke-width:1px;fill:none;stroke-opacity:1;stroke-linecap:round;stroke-linejoin:round;;fill:none"/>
<polyline points="1988.24,1890.1 1991.04,1893.76 1993.51,1896.65 2003.15,1906.8 2005.83,1909.35 2016.5,1918.46 2017.19,1918.99" style="stroke:rgb(255,0,0);stroke-width:39.370079;fill:none;stroke-opacity:0.5;stroke-linecap:round;stroke-linejoin:round;;fill:none"/>
<polyline points="1988.24,1890.1 1991.04,1893.76 1993.51,1896.65 2003.15,1906.8 2005.83,1909.35 2016.5,1918.46 2017.19,1918.99" style="stroke:rgb(0,0,0);stroke-width:1px;fill:none;stroke-opacity:1;stroke-linecap:round;stroke-linejoin:round;;fill:none"/>
<polyline points="1988.24,1890.1 1991.04,1893.76 1993.51,1896.65 2003.15,1906.8 2005.83,1909.35 2016.5,1918.46 2017.19,1918.99" style="stroke:rgb(255,0,0);stroke-width:39.370079;fill:none;stroke-opacity:0.5;stroke-linecap:round;stroke-linejoin:round;;fill:none"/>
<polyline points="1988.24,1890.1 1991.04,1893.76 1993.51,1896.65 2003.15,1906.8 2005.83,1909.35 2016.5,1918.46 2017.19,1918.99" style="stroke:rgb(0,0,0);stroke-width:1px;fill:none;stroke-opacity:1;stroke-linecap:round;stroke-linejoin:round;;fill:none"/>
<polyline points="1988.24,1890.1 1991.04,1893.76 1993.51,1896.65 2003.15,1906.8 2005.83,1909.35 2016.5,1918.46 2017.19,1918.99" style="stroke:rgb(255,0,0);stroke-width:39.370079;fill:none;stroke-opacity:0.5;stroke-linecap:round;stroke-linejoin:round;;fill:none"/>
<polyline points="1988.24,1890.1 1991.04,1893.76 1993.51,1896.65 2003.15,1906.8 2005.83,1909.35 2016.5,1918.46 2017.19,1918.99" style="stroke:rgb(0,0,0);stroke-width:1px;fill:none;stroke-opacity:1;stroke-linecap:round;stroke-linejoin:round;;fill:none"/>
<polyline points="1988.24,1890.1 1991.04,1893.76 1993.51,1896.65 2003.15,1906.8 2005.83,1909.35 2016.5,1918.46 2017.19,1918.99" style="stroke:rgb(255,0,0);stroke-width:39.370079;fill:none;stroke-opacity:0.5;stroke-linecap:round;stroke-linejoin:round;;fill:none"/>
<polyline points="1988.24,1890.1 1991.04,1893.76 1993.51,1896.65 2003.15,1906.8 2005.83,1909.35 2016.5,1918.46 2017.19,1918.99" style="stroke:rgb(0,0,0);stroke-width:1px;fill:none;stroke-opacity:1;stroke-linecap:round;stroke-linejoin:round;;fill:none"/>
<polyline points="1988.24,1890.1 1991.04,1893.76 1993.51,1896.65 2003.15,1906.8 2005.83,1909.35 2016.5,1918.46 2017.19,1918.99" style="stroke:rgb(255,0,0);stroke-width:39.370079;fill:none;stroke-opacity:0.5;stroke-linecap:round;stroke-linejoin:round;;fill:none"/>
<polyline points="1988.24,1890.1 1991.04,1893.76 1993.51,1896.65 2003.15,1906.8 2005.83,1909.35 2016.5,1918.46 2017.19,1918.99" style="stroke:rgb(0,0,0);stroke-width:1px;fill:none;stroke-opacity:1;stroke-linecap:round;stroke-linejoin:round;;fill:none"/>
<polyline points="1988.24,1890.1 1991.04,1893.76 1993.51,1896.65 2003.15,1906.8 2005.83,1909.35 2016.5,1918.46 2017.19,1918.99" style="stroke:rgb(255,0,0);stroke-width:39.370079;fill:none;stroke-opacity:0.5;stroke-linecap:round;stroke-linejoin:round;;fill:none"/>
<polyline points="1988.24,1890.1 1991.04,1893.76 1993.51,1896.65 2003.15,1906.8 2005.83,1909.35 2016.5,1918.46 2017.19,1918.99" style="stroke:rgb(0,0,0);stroke-width:1px;fill:none;stroke-opacity:1;stroke-linecap:round;stroke-linejoin:round;;fill:none"/>
<polyline points="1988.24,1890.1 1991.04,1893.76 1993.51,1896.65 2003.15,1906.8 2005.83,1909.35 2016.5,1918.46 2017.19,1918.99" style="stroke:rgb(255,0,0);stroke-width:39.370079;fill:none;stroke-opacity:0.5;stroke-linecap:round;stroke-linejoin:round;;fill:none"/>
<polyline points="1988.24,1890.1 1991.04,1893.76 1993.51,1896.65 2003.15,1906.8 2005.83,1909.35 2016.5,1918.46 2017.19,1918.99" style="stroke:rgb(0,0,0);stroke-width:1px;fill:none;stroke-opacity:1;stroke-linecap:round;stroke-linejoin:round;;fill:none"/>
<polyline points="1988.24,1890.1 1991.04,1893.76 1993.51,1896.65 2003.15,1906.8 2005.83,1909.35 2016.5,1918.46 2017.19,1918.99" style="stroke:rgb(255,0,0);stroke-width:39.370079;fill:none;stroke-opacity:0.5;stroke-linecap:round;stroke-linejoin:round;;fill:none"/>
<polyline points="1988.24,1890.1 1991.04,1893.76 1993.51,1896.65 2003.15,1906.8 2005.83,1909.35 2016.5,1918.46 2017.19,1918.99" style="stroke:rgb(0,0,0);stroke-width:1px;fill:none;stroke-opacity:1;stroke-linecap:round;stroke-linejoin:round;;fill:none"/>
<polyline points="1988.24,1890.1 1991.04,1893.76 1993.51,1896.65 2003.15,1906.8 2005.83,1909.35 2016.5,1918.46 2017.19,1918.99" style="stroke:rgb(255,0,0);stroke-width:39.370079;fill:none;stroke-opacity:0.5;stroke-linecap:round;stroke-linejoin:round;;fill:none"/>
<polyline points="1988.24,1890.1 1991.04,1893.76 1993.51,1896.65 2003.15,1906.8 2005.83,1909.35 2016.5,1918.46 2017.19,1918.99" style="stroke:rgb(0,0,0);stroke-width:1px;fill:none;stroke-opacity:1;stroke-linecap:round;stroke-linejoin:round;;fill:none"/>
<polyline points="1988.24,1890.1 1991.04,1893.76 1993.51,1896.65 2003.15,1906.8 2005.83,1909.35 2016.5,1918.46 2017.19,1918.99" style="stroke:rgb(255,0,0);stroke-width:39.370079;fill:none;stroke-opacity:0.5;stroke-linecap:round;stroke-linejoin:round;;fill:none"/>
<polyline points="1988.24,1890.1 1991.04,1893.76 1993.51,1896.65 2003.15,1906.8 2005.83,1909.35 2016.5,1918.46 2017.19,1918.99" style="stroke:rgb(0,0,0);stroke-width:1px;fill:none;stroke-opacity:1;stroke-linecap:round;stroke-linejoin:round;;fill:none"/>
<polyline points="1988.24,1890.1 1991.04,1893.76 1993.51,1896.65 2003.15,1906.8 2005.83,1909.35 2016.5,1918.46 2017.19,1918.99" style="stroke:rgb(255,0,0);stroke-width:39.370079;fill:none;stroke-opacity:0.5;stroke-linecap:round;stroke-linejoin:round;;fill:none"/>
<polyline points="1988.24,1890.1 1991.04,1893.76 1993.51,1896.65 2003.15,1906.8 2005.83,1909.35 2016.5,1918.46 2017.19,1918.99" style="stroke:rgb(0,0,0);stroke-width:1px;fill:none;stroke-opacity:1;stroke-linecap:round;stroke-linejoin:round;;fill:none"/>
<polyline points="1988.24,1890.1 1991.04,1893.76 1993.51,1896.65 2003.15,1906.8 2005.83,1909.35 2016.5,1918.46 2017.19,1918.99" style="stroke:rgb(255,0,0);stroke-width:39.370079;fill:none;stroke-opacity:0.5;stroke-linecap:round;stroke-linejoin:round;;fill:none"/>
<polyline points="1988.24,1890.1 1991.04,1893.76 1993.51,1896.65 2003.15,1906.8 2005.83,1909.35 2016.5,1918.46 2017.19,1918.99" style="stroke:rgb(0,0,0);stroke-width:1px;fill:none;stroke-opacity:1;stroke-linecap:round;stroke-linejoin:round;;fill:none"/>
<polyline points="1988.24,1890.1 1991.04,1893.76 1993.51,1896.65 2003.15,1906.8 2005.83,1909.35 2016.5,1918.46 2017.19,1918.99" style="stroke:rgb(255,0,0);stroke-width:39.370079;fill:none;stroke-opacity:0.5;stroke-linecap:round;stroke-linejoin:round;;fill:none"/>
<polyline points="1988.24,1890.1 1991.04,1893.76 1993.51,1896.65 2003.15,1906.8 2005.83,1909.35 2016.5,1918.46 2017.19,1918.99" style="stroke:rgb(0,0,0);stroke-width:1px;fill:none;stroke-opacity:1;stroke-linecap:round;stroke-linejoin:round;;fill:none"/>
<polyline points="1988.24,1890.1 1991.04,1893.76 1993.51,1896.65 2003.15,1906.8 2005.83,1909.35 2016.5,1918.46 2017.19,1918.99" style="stroke:rgb(255,0,0);stroke-width:39.370079;fill:none;stroke-opacity:0.5;stroke-linecap:round;stroke-linejoin:round;;fill:none"/>
<polyline points="1988.24,1890.1 1991.04,1893.76 1993.51,1896.65 2003.15,1906.8 2005.83,1909.35 2016.5,1918.46 2017.19,1918.99" style="stroke:rgb(0,0,0);stroke-width:1px;fill:none;stroke-opacity:1;stroke-linecap:round;stroke-linejoin:round;;fill:none"/>
<polyline points="1988.24,1890.1 1991.04,1893.76 1993.51,1896.65 2003.15,1906.8 2005.83,1909.35 2016.5,1918.46 2017.19,1918.99" style="stroke:rgb(255,0,0);stroke-width:39.370079;fill:none;stroke-opacity:0.5;stroke-linecap:round;stroke-linejoin:round;;fill:none"/>
<polyline points="1988.24,1890.1 1991.04,1893.76 1993.51,1896.65 2003.15,1906.8 2005.83,1909.35 2016.5,1918.46 2017.19,1918.99" style="stroke:rgb(0,0,0);stroke-width:1px;fill:none;stroke-opacity:1;stroke-linecap:round;stroke-linejoin:round;;fill:none"/>
<polyline points="1988.24,1890.1 1991.04,1893.76 1993.51,1896.65 2003.15,1906.8 2005.83,1909.35 2016.5,1918.46 2017.19,1918.99" style="stroke:rgb(255,0,0);stroke-width:39.370079;fill:none;stroke-opacity:0.5;stroke-linecap:round;stroke-linejoin:round;;fill:none"/>
<polyline points="1988.24,1890.1 1991.04,1893.76 1993.51,1896.65 2003.15,1906.8 2005.83,1909.35 2016.5,1918.46 2017.19,1918.99" style="stroke:rgb(0,0,0);stroke-width:1px;fill:none;stroke-opacity:1;stroke-linecap:round;stroke-linejoin:round;;fill:none"/>
<polyline points="1988.24,1890.1 1991.04,1893.76 1993.51,1896.65 2003.15,1906.8 2005.83,1909.35 2016.5,1918.46 2017.19,1918.99" style="stroke:rgb(255,0,0);stroke-width:39.370079;fill:none;stroke-opacity:0.5;stroke-linecap:round;stroke-linejoin:round;;fill:none"/>
<polyline points="1988.24,1890.1 1991.04,1893.76 1993.51,1896.65 2003.15,1906.8 2005.83,1909.35 2016.5,1918.46 2017.19,1918.99" style="stroke:rgb(0,0,0);stroke-width:1px;fill:none;stroke-opacity:1;stroke-linecap:round;stroke-linejoin:round;;fill:none"/>
<polyline points="2016.92,1918.78 2016.5,1918.46 2005.83,1909.35 2005.79,1909.39 2005.83,1909.35 2003.15,1906.8 1993.51,1896.65 1993.49,1896.67 1993.51,1896.65 1991.04,1893.76 1988.24,1890.11" style="stroke:rgb(255,0,0);stroke-width:39.370079;fill:none;stroke-opacity:0.5;stroke-linecap:round;stroke-linejoin:round;;fill:none"/>
<polyline points="2016.92,1918.78 2016.5,1918.46 2005.83,1909.35 2005.79,1909.39 2005.83,1909.35 2003.15,1906.8 1993.51,1896.65 1993.49,1896.67 1993.51,1896.65 1991.04,1893.76 1988.24,1890.11" style="stroke:rgb(0,0,0);stroke-width:1px;fill:none;stroke-opacity:1;stroke-linecap:round;stroke-linejoin:round;;fill:none"/>
<polyline points="2016.92,1918.78 2016.5,1918.46 2005.83,1909.35 2005.79,1909.39 2005.83,1909.35 2003.15,1906.8 1993.51,1896.65 1993.49,1896.67 1993.51,1896.65 1991.04,1893.76 1988.24,1890.11" style="stroke:rgb(255,0,0);stroke-width:39.370079;fill:none;stroke-opacity:0.5;stroke-linecap:round;stroke-linejoin:round;;fill:none"/>
<polyline points="2016.92,1918.78 2016.5,1918.46 2005.83,1909.35 2005.79,1909.39 2005.83,1909.35 2003.15,1906.8 1993.51,1896.65 1993.49,1896.67 1993.51,1896.65 1991.04,1893.76 1988.24,1890.11" style="stroke:rgb(0,0,0);stroke-width:1px;fill:none;stroke-opacity:1;stroke-linecap:round;stroke-linejoin:round;;fill:none"/>
<polyline points="2016.92,1918.78 2016.5,1918.46 2005.83,1909.35 2005.79,1909.39 2005.83,1909.35 2003.15,1906.8 1993.51,1896.65 1993.49,1896.67 1993.51,1896.65 1991.04,1893.76 1988.24,1890.11" style="stroke:rgb(255,0,0);stroke-width:39.370079;fill:none;stroke-opacity:0.5;stroke-linecap:round;stroke-linejoin:round;;fill:none"/>
<polyline points="2016.92,1918.78 2016.5,1918.46 2005.83,1909.35 2005.79,1909.39 2005.83,1909.35 2003.15,1906.8 1993.51,1896.65 1993.49,1896.67 1993.51,1896.65 1991.04,1893.76 1988.24,1890.11" style="stroke:rgb(0,0,0);stroke-width:1px;fill:none;stroke-opacity:1;stroke-linecap:round;stroke-linejoin:round;;fill:none"/>
<polyline points="2016.92,1918.78 2016.5,1918.46 2016.49,1918.48 2016.5,1918.46 2005.83,1909.35 2003.15,1906.8 2003.13,1906.82 2003.15,1906.8 1993.51,1896.65 1991.04,1893.76 1991.02,1893.78 1991.04,1893.76 1988.24,1890.11" style="stroke:rgb(255,0,0);stroke-width:39.370079;fill:none;stroke-opacity:0.5;stroke-linecap:round;stroke-linejoin:round;;fill:none"/>
<polyline points="2016.92,1918.78 2016.5,1918.46 2016.49,1918.48 2016.5,1918.46 2005.83,1909.35 2003.15,1906.8 2003.13,1906.82 2003.15,1906.8 1993.51,1896.65 1991.04,1893.76 1991.02,1893.78 1991.04,1893.76 1988.24,1890.11" style="stroke:rgb(0,0,0);stroke-width:1px;fill:none;stroke-opacity:1;stroke-linecap:round;stroke-linejoin:round;;fill:none"/>
<polyline points="2016.92,1918.78 2016.5,1918.46 2016.49,1918.48 2016.5,1918.46 2005.83,1909.35 2003.15,1906.8 2003.13,1906.82 2003.15,1906.8 1993.51,1896.65 1991.04,1893.76 1991.02,1893.78 1991.04,1893.76 1988.24,1890.1" style="stroke:rgb(255,0,0);stroke-width:39.370079;fill:none;stroke-opacity:0.5;stroke-linecap:round;stroke-linejoin:round;;fill:none"/>
<polyline points="2016.92,1918.78 2016.5,1918.46 2016.49,1918.48 2016.5,1918.46 2005.83,1909.35 2003.15,1906.8 2003.13,1906.82 2003.15,1906.8 1993.51,1896.65 1991.04,1893.76 1991.02,1893.78 1991.04,1893.76 1988.24,1890.1" style="stroke:rgb(0,0,0);stroke-width:1px;fill:none;stroke-opacity:1;stroke-linecap:round;stroke-linejoin:round;;fill:none"/>
<polyline points="2016.92,1918.78 2016.5,1918.46 2016.49,1918.48 2016.5,1918.46 2005.83,1909.35 2003.15,1906.8 2003.13,1906.82 2003.15,1906.8 1993.51,1896.65 1991.04,1893.76 1991.02,1893.78 1991.04,1893.76 1988.24,1890.11" style="stroke:rgb(255,0,0);stroke-width:39.370079;fill:none;stroke-opacity:0.5;stroke-linecap:round;stroke-linejoin:round;;fill:none"/>
<polyline points="2016.92,1918.78 2016.5,1918.46 2016.49,1918.48 2016.5,1918.46 2005.83,1909.35 2003.15,1906.8 2003.13,1906.82 2003.15,1906.8 1993.51,1896.65 1991.04,1893.76 1991.02,1893.78 1991.04,1893.76 1988.24,1890.11" style="stroke:rgb(0,0,0);stroke-width:1px;fill:none;stroke-opacity:1;stroke-linecap:round;stroke-linejoin:round;;fill:none"/>
<polyline points="2016.92,1918.78 2016.5,1918.46 2016.49,1918.48 2016.5,1918.46 2005.83,1909.35 2003.15,1906.8 2003.13,1906.82 2003.15,1906.8 1993.51,1896.65 1991.04,1893.76 1991.02,1893.78 1991.04,1893.76 1988.24,1890.11" style="stroke:rgb(255,0,0);stroke-width:39.370079;fill:none;stroke-opacity:0.5;stroke-linecap:round;stroke-linejoin:round;;fill:none"/>
<polyline points="2016.92,1918.78 2016.5,1918.46 2016.49,1918.48 2016.5,1918.46 2005.83,1909.35 2003.15,1906.8 2003.13,1906.82 2003.15,1906.8 1993.51,1896.65 1991.04,1893.76 1991.02,1893.78 1991.04,1893.76 1988.24,1890.11" style="stroke:rgb(0,0,0);stroke-width:1px;fill:none;stroke-opacity:1;stroke-linecap:round;stroke-linejoin:round;;fill:none"/>
<polyline points="2016.92,1918.78 2016.5,1918.46 2005.83,1909.35 2003.15,1906.8 2003.1,1906.85 2003.15,1906.8 1993.51,1896.65 1991.04,1893.76 1988.24,1890.11" style="stroke:rgb(255,0,0);stroke-width:39.370079;fill:none;stroke-opacity:0.5;stroke-linecap:round;stroke-linejoin:round;;fill:none"/>
<polyline points="2016.92,1918.78 2016.5,1918.46 2005.83,1909.35 2003.15,1906.8 2003.1,1906.85 2003.15,1906.8 1993.51,1896.65 1991.04,1893.76 1988.24,1890.11" style="stroke:rgb(0,0,0);stroke-width:1px;fill:none;stroke-opacity:1;stroke-linecap:round;stroke-linejoin:round;;fill:none"/>
<polyline points="2016.92,1918.78 2016.5,1918.46 2005.83,1909.35 2003.15,1906.8 2003.1,1906.85 2003.15,1906.8 1993.51,1896.65 1991.04,1893.76 1988.24,1890.11" style="stroke:rgb(255,0,0);stroke-width:39.370079;fill:none;stroke-opacity:0.5;stroke-linecap:round;stroke-linejoin:round;;fill:none"/>
<polyline points="2016.92,1918.78 2016.5,1918.46 2005.83,1909.35 2003.15,1906.8 2003.1,1906.85 2003.15,1906.8 1993.51,1896.65 1991.04,1893.76 1988.24,1890.11" style="stroke:rgb(0,0,0);stroke-width:1px;fill:none;stroke-opacity:1;stroke-linecap:round;stroke-linejoin:round;;fill:none"/>
<polyline points="2016.92,1918.78 2016.5,1918.46 2005.83,1909.35 2003.15,1906.8 2003.1,1906.85 2003.15,1906.8 1993.51,1896.65 1991.04,1893.76 1988.24,1890.11" style="stroke:rgb(255,0,0);stroke-width:39.370079;fill:none;stroke-opacity:0.5;stroke-linecap:round;stroke-linejoin:round;;fill:none"/>
<polyline points="2016.92,1918.78 2016.5,1918.46 2005.83,1909.35 2003.15,1906.8 2003.1,1906.85 2003.15,1906.8 1993.51,1896.65 1991.04,1893.76 1988.24,1890.11" style="stroke:rgb(0,0,0);stroke-width:1px;fill:none;stroke-opacity:1;stroke-linecap:round;stroke-linejoin:round;;fill:none"/>
<polyline points="2016.92,1918.78 2016.5,1918.46 2016.47,1918.5 2016.5,1918.46 2005.83,1909.35 2003.15,1906.8 1993.51,1896.65 1993.47,1896.69 1993.51,1896.65 1991.04,1893.76 1988.24,1890.1" style="stroke:rgb(255,0,0);stroke-width:39.370079;fill:none;stroke-opacity:0.5;stroke-linecap:round;stroke-linejoin:round;;fill:none"/>
<polyline points="2016.92,1918.78 2016.5,1918.46 2016.47,1918.5 2016.5,1918.46 2005.83,1909.35 2003.15,1906.8 1993.51,1896.65 1993.47,1896.69 1993.51,1896.65 1991.04,1893.76 1988.24,1890.1" style="stroke:rgb(0,0,0);stroke-width:1px;fill:none;stroke-opacity:1;stroke-linecap:round;stroke-linejoin:round;;fill:none"/>
<polyline points="2016.92,1918.78 2016.5,1918.46 2016.47,1918.5 2016.5,1918.46 2005.83,1909.35 2003.15,1906.8 1993.51,1896.65 1993.47,1896.69 1993.51,1896.65 1991.04,1893.76 1988.24,1890.11" style="stroke:rgb(255,0,0);stroke-width:39.370079;fill:none;stroke-opacity:0.5;stroke-linecap:round;stroke-linejoin:round;;fill:none"/>
<polyline points="2016.92,1918.78 2016.5,1918.46 2016.47,1918.5 2016.5,1918.46 2005.83,1909.35 2003.15,1906.8 1993.51,1896.65 1993.47,1896.69 1993.51,1896.65 1991.04,1893.76 1988.24,1890.11" style="stroke:rgb(0,0,0);stroke-width:1px;fill:none;stroke-opacity:1;stroke-linecap:round;stroke-linejoin:round;;fill:none"/>
<polyline points="2016.92,1918.78 2016.5,1918.46 2005.83,1909.35 2005.81,1909.37 2005.83,1909.35 2003.15,1906.8 1993.51,1896.65 1991.04,1893.76 1991.02,1893.78 1991.04,1893.76 1988.24,1890.11" style="stroke:rgb(255,0,0);stroke-width:39.370079;fill:none;stroke-opacity:0.5;stroke-linecap:round;stroke-linejoin:round;;fill:none"/>
<polyline points="2016.92,1918.78 2016.5,1918.46 2005.83,1909.35 2005.81,1909.37 2005.83,1909.35 2003.15,1906.8 1993.51,1896.65 1991.04,1893.76 1991.02,1893.78 1991.04,1893.76 1988.24,1890.11" style="stroke:rgb(0,0,0);stroke-width:1px;fill:none;stroke-opacity:1;stroke-linecap:round;stroke-linejoin:round;;fill:none"/>
<polyline points="2016.92,1918.78 2016.5,1918.46 2005.83,1909.35 2005.81,1909.37 2005.83,1909.35 2003.15,1906.8 1993.51,1896.65 1991.04,1893.76 1991.02,1893.78 1991.04,1893.76 1988.24,1890.11" style="stroke:rgb(255,0,0);stroke-width:39.370079;fill:none;stroke-opacity:0.5;stroke-linecap:round;stroke-linejoin:round;;fill:none"/>
<polyline points="2016.92,1918.78 2016.5,1918.46 2005.83,1909.35 2005.81,1909.37 2005.83,1909.35 2003.15,1906.8 1993.51,1896.65 1991.04,1893.76 1991.02,1893.78 1991.04,1893.76 1988.24,1890.11" style="stroke:rgb(0,0,0);stroke-width:1px;fill:none;stroke-opacity:1;stroke-linecap:round;stroke-linejoin:round;;fill:none"/>
<polyline points="2016.92,1918.78 2016.5,1918.46 2016.48,1918.49 2016.5,1918.46 2005.83,1909.35 2003.15,1906.8 2003.13,1906.82 2003.15,1906.8 1993.51,1896.65 1991.04,1893.76 1991.02,1893.78 1991.04,1893.76 1988.24,1890.11" style="stroke:rgb(255,0,0);stroke-width:39.370079;fill:none;stroke-opacity:0.5;stroke-linecap:round;stroke-linejoin:round;;fill:none"/>
<polyline points="2016.92,1918.78 2016.5,1918.46 2016.48,1918.49 2016.5,1918.46 2005.83,1909.35 2003.15,1906.8 2003.13,1906.82 2003.15,1906.8 1993.51,1896.65 1991.04,1893.76 1991.02,1893.78 1991.04,1893.76 1988.24,1890.11" style="stroke:rgb(0,0,0);stroke-width:1px;fill:none;stroke-opacity:1;stroke-linecap:round;stroke-linejoin:round;;fill:none"/>
<polyline points="2016.92,1918.78 2016.5,1918.46 2016.48,1918.49 2016.5,1918.46 2005.83,1909.35 2003.15,1906.8 2003.13,1906.82 2003.15,1906.8 1993.51,1896.65 1991.04,1893.76 1991.02,1893.78 1991.04,1893.76 1988.24,1890.1" style="stroke:rgb(255,0,0);stroke-width:39.370079;fill:none;stroke-opacity:0.5;stroke-linecap:round;stroke-linejoin:round;;fill:none"/>
<polyline points="2016.92,1918.78 2016.5,1918.46 2016.48,1918.49 2016.5,1918.46 2005.83,1909.35 2003.15,1906.8 2003.13,1906.82 2003.15,1906.8 1993.51,1896.65 1991.04,1893.76 1991.02,1893.78 1991.04,1893.76 1988.24,1890.1" style="stroke:rgb(0,0,0);stroke-width:1px;fill:none;stroke-opacity:1;stroke-linecap:round;stroke-linejoin:round;;fill:none"/>
<polyline points="2016.92,1918.78 2016.5,1918.46 2005.83,1909.35 2005.79,1909.39 2005.83,1909.35 2003.15,1906.8 1993.51,1896.65 1991.04,1893.76 1991.02,1893.78 1991.04,1893.76 1988.24,1890.1" style="stroke:rgb(255,0,0);stroke-width:39.370079;fill:none;stroke-opacity:0.5;stroke-linecap:round;stroke-linejoin:round;;fill:none"/>
<polyline points="2016.92,1918.78 2016.5,1918.46 2005.83,1909.35 2005.79,1909.39 2005.83,1909.35 2003.15,1906.8 1993.51,1896.65 1991.04,1893.76 1991.02,1893.78 1991.04,1893.76 1988.24,1890.1" style="stroke:rgb(0,0,0);stroke-width:1px;fill:none;stroke-opacity:1;stroke-linecap:round;stroke-linejoin:round;;fill:none"/>
<polyline points="2016.92,1918.78 2016.5,1918.46 2005.83,1909.35 2005.79,1909.39 2005.83,1909.35 2003.15,1906.8 1993.51,1896.65 1993.49,1896.67 1993.51,1896.65 1991.04,1893.76 1988.24,1890.11" style="stroke:rgb(255,0,0);stroke-width:39.370079;fill:none;stroke-opacity:0.5;stroke-linecap:round;stroke-linejoin:round;;fill:none"/>
<polyline points="2016.92,1918.78 2016.5,1918.46 2005.83,1909.35 2005.79,1909.39 2005.83,1909.35 2003.15,1906.8 1993.51,1896.65 1993.49,1896.67 1993.51,1896.65 1991.04,1893.76 1988.24,1890.11" style="stroke:rgb(0,0,0);stroke-width:1px;fill:none;stroke-opacity:1;stroke-linecap:round;stroke-linejoin:round;;fill:none"/>
<polyline points="2016.92,1918.78 2016.5,1918.46 2016.49,1918.48 2016.5,1918.46 2005.83,1909.35 2003.15,1906.8 2003.11,1906.84 2003.15,1906.8 1993.51,1896.65 1991.04,1893.76 1988.24,1890.11" style="stroke:rgb(255,0,0);stroke-width:39.370079;fill:none;stroke-opacity:0.5;stroke-linecap:round;stroke-linejoin:round;;fill:none"/>
<polyline points="2016.92,1918.78 2016.5,1918.46 2016.49,1918.48 2016.5,1918.46 2005.83,1909.35 2003.15,1906.8 2003.11,1906.84 2003.15,1906.8 1993.51,1896.65 1991.04,1893.76 1988.24,1890.11" style="stroke:rgb(0,0,0);stroke-width:1px;fill:none;stroke-opacity:1;stroke-linecap:round;stroke-linejoin:round;;fill:none"/>
<polyline points="2016.92,1918.78 2016.5,1918.46 2005.83,1909.35 2005.79,1909.39 2005.83,1909.35 2003.15,1906.8 1993.51,1896.65 1993.49,1896.67 1993.51,1896.65 1991.04,1893.76 1988.24,1890.11" style="stroke:rgb(255,0,0);stroke-width:39.370079;fill:none;stroke-opacity:0.5;stroke-linecap:round;stroke-linejoin:round;;fill:none"/>
<polyline points="2016.92,1918.78 2016.5,1918.46 2005.83,1909.35 2005.79,1909.39 2005.83,1909.35 2003.15,1906.8 1993.51,1896.65 1993.49,1896.67 1993.51,1896.65 1991.04,1893.76 1988.24,1890.11" style="stroke:rgb(0,0,0);stroke-width:1px;fill:none;stroke-opacity:1;stroke-linecap:round;stroke-linejoin:round;;fill:none"/>
<polyline points="2016.92,1918.78 2016.5,1918.46 2005.83,1909.35 2003.15,1906.8 1993.51,1896.65 1991.04,1893.76 1988.24,1890.1" style="stroke:rgb(255,0,0);stroke-width:39.370079;fill:none;stroke-opacity:0.5;stroke-linecap:round;stroke-linejoin:round;;fill:none"/>
<polyline points="2016.92,1918.78 2016.5,1918.46 2005.83,1909.35 2003.15,1906.8 1993.51,1896.65 1991.04,1893.76 1988.24,1890.1" style="stroke:rgb(0,0,0);stroke-width:1px;fill:none;stroke-opacity:1;stroke-linecap:round;stroke-linejoin:round;;fill:none"/>
</svg>
