<?xml version="1.0" standalone="no"?>
<!DOCTYPE svg PUBLIC "-//W3C//DTD SVG 1.1//EN"
"http://www.w3.org/Graphics/SVG/1.1/DTD/svg11.dtd">
<svg width="234.746" height="263.546" viewBox="0 0 4890.55 5490.55" version="1.1"
xmlns="http://www.w3.org/2000/svg"
xmlns:xlink="http://www.w3.org/1999/xlink">
<polyline points="2931.09,1380.4 2930.24,1378.35 2923.09,1367.47 2912.21,1360.32 2910.14,1359.46" style="stroke:rgb(255,0,0);stroke-width:39.370079;fill:none;stroke-opacity:0.5;stroke-linecap:round;stroke-linejoin:round;;fill:none"/>
<polyline points="2931.09,1380.4 2930.24,1378.35 2923.09,1367.47 2912.21,1360.32 2910.14,1359.46" style="stroke:rgb(0,0,0);stroke-width:1px;fill:none;stroke-opacity:1;stroke-linecap:round;stroke-linejoin:round;;fill:none"/>
<polyline points="2780.41,1359.46 2778.35,1360.32 2767.47,1367.47 2760.32,1378.35 2759.46,1380.41" style="stroke:rgb(255,0,0);stroke-width:39.370079;fill:none;stroke-opacity:0.5;stroke-linecap:round;stroke-linejoin:round;;fill:none"/>
<polyline points="2780.41,1359.46 2778.35,1360.32 2767.47,1367.47 2760.32,1378.35 2759.46,1380.41" style="stroke:rgb(0,0,0);stroke-width:1px;fill:none;stroke-opacity:1;stroke-linecap:round;stroke-linejoin:round;;fill:none"/>
<polyline points="2931.09,1380.4 2930.24,1378.35 2923.09,1367.47 2912.21,1360.32 2910.14,1359.46" style="stroke:rgb(255,0,0);stroke-width:39.370079;fill:none;stroke-opacity:0.5;stroke-linecap:round;stroke-linejoin:round;;fill:none"/>
<polyline points="2931.09,1380.4 2930.24,1378.35 2923.09,1367.47 2912.21,1360.32 2910.14,1359.46" style="stroke:rgb(0,0,0);stroke-width:1px;fill:none;stroke-opacity:1;stroke-linecap:round;stroke-linejoin:round;;fill:none"/>
<polyline points="2780.41,1359.46 2778.35,1360.32 2767.47,1367.47 2760.32,1378.35 2759.46,1380.41" style="stroke:rgb(255,0,0);stroke-width:39.370079;fill:none;stroke-opacity:0.5;stroke-linecap:round;stroke-linejoin:round;;fill:none"/>
<polyline points="2780.41,1359.46 2778.35,1360.32 2767.47,1367.47 2760.32,1378.35 2759.46,1380.41" style="stroke:rgb(0,0,0);stroke-width:1px;fill:none;stroke-opacity:1;stroke-linecap:round;stroke-linejoin:round;;fill:none"/>
<polyline points="2931.09,1380.4 2930.24,1378.35 2923.09,1367.47 2912.21,1360.32 2910.14,1359.46" style="stroke:rgb(255,0,0);stroke-width:39.370079;fill:none;stroke-opacity:0.5;stroke-linecap:round;stroke-linejoin:round;;fill:none"/>
<polyline points="2931.09,1380.4 2930.24,1378.35 2923.09,1367.47 2912.21,1360.32 2910.14,1359.46" style="stroke:rgb(0,0,0);stroke-width:1px;fill:none;stroke-opacity:1;stroke-linecap:round;stroke-linejoin:round;;fill:none"/>
<polyline points="2780.41,1359.46 2778.35,1360.32 2767.47,1367.47 2760.32,1378.35 2759.46,1380.41" style="stroke:rgb(255,0,0);stroke-width:39.370079;fill:none;stroke-opacity:0.5;stroke-linecap:round;stroke-linejoin:round;;fill:none"/>
<polyline points="2780.41,1359.46 2778.35,1360.32 2767.47,1367.47 2760.32,1378.35 2759.46,1380.41" style="stroke:rgb(0,0,0);stroke-width:1px;fill:none;stroke-opacity:1;stroke-linecap:round;stroke-linejoin:round;;fill:none"/>
<polyline points="2931.09,1380.4 2930.24,1378.35 2923.09,1367.47 2912.21,1360.32 2910.14,1359.46" style="stroke:rgb(255,0,0);stroke-width:39.370079;fill:none;stroke-opacity:0.5;stroke-linecap:round;stroke-linejoin:round;;fill:none"/>
<polyline points="2931.09,1380.4 2930.24,1378.35 2923.09,1367.47 2912.21,1360.32 2910.14,1359.46" style="stroke:rgb(0,0,0);stroke-width:1px;fill:none;stroke-opacity:1;stroke-linecap:round;stroke-linejoin:round;;fill:none"/>
<polyline points="2780.41,1359.46 2778.35,1360.32 2767.47,1367.47 2760.32,1378.35 2759.46,1380.41" style="stroke:rgb(255,0,0);stroke-width:39.370079;fill:none;stroke-opacity:0.5;stroke-linecap:round;stroke-linejoin:round;;fill:none"/>
<polyline points="2780.41,1359.46 2778.35,1360.32 2767.47,1367.47 2760.32,1378.35 2759.46,1380.41" style="stroke:rgb(0,0,0);stroke-width:1px;fill:none;stroke-opacity:1;stroke-linecap:round;stroke-linejoin:round;;fill:none"/>
<polyline points="2759.47,1380.4 2760.32,1378.35 2760.24,1378.31 2760.32,1378.35 2767.47,1367.47 2767.17,1367.17 2767.47,1367.47 2778.35,1360.32 2778.31,1360.24 2778.35,1360.32 2780.4,1359.47" style="stroke:rgb(255,0,0);stroke-width:39.370079;fill:none;stroke-opacity:0.5;stroke-linecap:round;stroke-linejoin:round;;fill:none"/>
<polyline points="2759.47,1380.4 2760.32,1378.35 2760.24,1378.31 2760.32,1378.35 2767.47,1367.47 2767.17,1367.17 2767.47,1367.47 2778.35,1360.32 2778.31,1360.24 2778.35,1360.32 2780.4,1359.47" style="stroke:rgb(0,0,0);stroke-width:1px;fill:none;stroke-opacity:1;stroke-linecap:round;stroke-linejoin:round;;fill:none"/>
<polyline points="2910.15,1359.46 2912.21,1360.32 2912.25,1360.24 2912.21,1360.32 2923.09,1367.47 2923.39,1367.17 2923.09,1367.47 2930.24,1378.35 2930.32,1378.31 2930.24,1378.35 2931.09,1380.41" style="stroke:rgb(255,0,0);stroke-width:39.370079;fill:none;stroke-opacity:0.5;stroke-linecap:round;stroke-linejoin:round;;fill:none"/>
<polyline points="2910.15,1359.46 2912.21,1360.32 2912.25,1360.24 2912.21,1360.32 2923.09,1367.47 2923.39,1367.17 2923.09,1367.47 2930.24,1378.35 2930.32,1378.31 2930.24,1378.35 2931.09,1380.41" style="stroke:rgb(0,0,0);stroke-width:1px;fill:none;stroke-opacity:1;stroke-linecap:round;stroke-linejoin:round;;fill:none"/>
<polyline points="2759.47,1380.4 2760.32,1378.35 2760.24,1378.31 2760.32,1378.35 2767.47,1367.47 2767.17,1367.17 2767.47,1367.47 2778.35,1360.32 2778.31,1360.24 2778.35,1360.32 2780.4,1359.47" style="stroke:rgb(255,0,0);stroke-width:39.370079;fill:none;stroke-opacity:0.5;stroke-linecap:round;stroke-linejoin:round;;fill:none"/>
<polyline points="2759.47,1380.4 2760.32,1378.35 2760.24,1378.31 2760.32,1378.35 2767.47,1367.47 2767.17,1367.17 2767.47,1367.47 2778.35,1360.32 2778.31,1360.24 2778.35,1360.32 2780.4,1359.47" style="stroke:rgb(0,0,0);stroke-width:1px;fill:none;stroke-opacity:1;stroke-linecap:round;stroke-linejoin:round;;fill:none"/>
<polyline points="2910.15,1359.46 2912.21,1360.32 2912.25,1360.24 2912.21,1360.32 2923.09,1367.47 2923.39,1367.17 2923.09,1367.47 2930.24,1378.35 2930.32,1378.31 2930.24,1378.35 2931.09,1380.41" style="stroke:rgb(255,0,0);stroke-width:39.370079;fill:none;stroke-opacity:0.5;stroke-linecap:round;stroke-linejoin:round;;fill:none"/>
<polyline points="2910.15,1359.46 2912.21,1360.32 2912.25,1360.24 2912.21,1360.32 2923.09,1367.47 2923.39,1367.17 2923.09,1367.47 2930.24,1378.35 2930.32,1378.31 2930.24,1378.35 2931.09,1380.41" style="stroke:rgb(0,0,0);stroke-width:1px;fill:none;stroke-opacity:1;stroke-linecap:round;stroke-linejoin:round;;fill:none"/>
<polyline points="2759.46,1380.4 2760.32,1378.35 2760.24,1378.31 2760.32,1378.35 2767.47,1367.47 2767.17,1367.17 2767.47,1367.47 2778.35,1360.32 2778.31,1360.24 2778.35,1360.32 2780.4,1359.47" style="stroke:rgb(255,0,0);stroke-width:39.370079;fill:none;stroke-opacity:0.5;stroke-linecap:round;stroke-linejoin:round;;fill:none"/>
<polyline points="2759.46,1380.4 2760.32,1378.35 2760.24,1378.31 2760.32,1378.35 2767.47,1367.47 2767.17,1367.17 2767.47,1367.47 2778.35,1360.32 2778.31,1360.24 2778.35,1360.32 2780.4,1359.47" style="stroke:rgb(0,0,0);stroke-width:1px;fill:none;stroke-opacity:1;stroke-linecap:round;stroke-linejoin:round;;fill:none"/>
<polyline points="2910.15,1359.46 2912.21,1360.32 2912.25,1360.24 2912.21,1360.32 2923.09,1367.47 2923.39,1367.17 2923.09,1367.47 2930.24,1378.35 2930.32,1378.31 2930.24,1378.35 2931.09,1380.41" style="stroke:rgb(255,0,0);stroke-width:39.370079;fill:none;stroke-opacity:0.5;stroke-linecap:round;stroke-linejoin:round;;fill:none"/>
<polyline points="2910.15,1359.46 2912.21,1360.32 2912.25,1360.24 2912.21,1360.32 2923.09,1367.47 2923.39,1367.17 2923.09,1367.47 2930.24,1378.35 2930.32,1378.31 2930.24,1378.35 2931.09,1380.41" style="stroke:rgb(0,0,0);stroke-width:1px;fill:none;stroke-opacity:1;stroke-linecap:round;stroke-linejoin:round;;fill:none"/>
<polyline points="2759.47,1380.4 2760.32,1378.35 2760.24,1378.31 2760.32,1378.35 2767.47,1367.47 2767.17,1367.17 2767.47,1367.47 2778.35,1360.32 2778.31,1360.24 2778.35,1360.32 2780.4,1359.47" style="stroke:rgb(255,0,0);stroke-width:39.370079;fill:none;stroke-opacity:0.5;stroke-linecap:round;stroke-linejoin:round;;fill:none"/>
<polyline points="2759.47,1380.4 2760.32,1378.35 2760.24,1378.31 2760.32,1378.35 2767.47,1367.47 2767.17,1367.17 2767.47,1367.47 2778.35,1360.32 2778.31,1360.24 2778.35,1360.32 2780.4,1359.47" style="stroke:rgb(0,0,0);stroke-width:1px;fill:none;stroke-opacity:1;stroke-linecap:round;stroke-linejoin:round;;fill:none"/>
<polyline points="2910.15,1359.46 2912.21,1360.32 2912.25,1360.24 2912.21,1360.32 2923.09,1367.47 2923.39,1367.17 2923.09,1367.47 2930.24,1378.35 2930.32,1378.31 2930.24,1378.35 2931.09,1380.41" style="stroke:rgb(255,0,0);stroke-width:39.370079;fill:none;stroke-opacity:0.5;stroke-linecap:round;stroke-linejoin:round;;fill:none"/>
<polyline points="2910.15,1359.46 2912.21,1360.32 2912.25,1360.24 2912.21,1360.32 2923.09,1367.47 2923.39,1367.17 2923.09,1367.47 2930.24,1378.35 2930.32,1378.31 2930.24,1378.35 2931.09,1380.41" style="stroke:rgb(0,0,0);stroke-width:1px;fill:none;stroke-opacity:1;stroke-linecap:round;stroke-linejoin:round;;fill:none"/>
<polyline points="2759.47,1380.4 2760.32,1378.35 2760.24,1378.31 2760.32,1378.35 2767.47,1367.47 2767.17,1367.17 2767.47,1367.47 2778.35,1360.32 2778.31,1360.24 2778.35,1360.32 2780.4,1359.47" style="stroke:rgb(255,0,0);stroke-width:39.370079;fill:none;stroke-opacity:0.5;stroke-linecap:round;stroke-linejoin:round;;fill:none"/>
<polyline points="2759.47,1380.4 2760.32,1378.35 2760.24,1378.31 2760.32,1378.35 2767.47,1367.47 2767.17,1367.17 2767.47,1367.47 2778.35,1360.32 2778.31,1360.24 2778.35,1360.32 2780.4,1359.47" style="stroke:rgb(0,0,0);stroke-width:1px;fill:none;stroke-opacity:1;stroke-linecap:round;stroke-linejoin:round;;fill:none"/>
<polyline points="2910.15,1359.46 2912.21,1360.32 2912.25,1360.24 2912.21,1360.32 2923.09,1367.47 2923.39,1367.17 2923.09,1367.47 2930.24,1378.35 2930.32,1378.31 2930.24,1378.35 2931.09,1380.41" style="stroke:rgb(255,0,0);stroke-width:39.370079;fill:none;stroke-opacity:0.5;stroke-linecap:round;stroke-linejoin:round;;fill:none"/>
<polyline points="2910.15,1359.46 2912.21,1360.32 2912.25,1360.24 2912.21,1360.32 2923.09,1367.47 2923.39,1367.17 2923.09,1367.47 2930.24,1378.35 2930.32,1378.31 2930.24,1378.35 2931.09,1380.41" style="stroke:rgb(0,0,0);stroke-width:1px;fill:none;stroke-opacity:1;stroke-linecap:round;stroke-linejoin:round;;fill:none"/>
<polyline points="2759.47,1380.4 2760.32,1378.35 2760.24,1378.31 2760.32,1378.35 2767.47,1367.47 2767.17,1367.17 2767.47,1367.47 2778.35,1360.32 2778.31,1360.24 2778.35,1360.32 2780.4,1359.47" style="stroke:rgb(255,0,0);stroke-width:39.370079;fill:none;stroke-opacity:0.5;stroke-linecap:round;stroke-linejoin:round;;fill:none"/>
<polyline points="2759.47,1380.4 2760.32,1378.35 2760.24,1378.31 2760.32,1378.35 2767.47,1367.47 2767.17,1367.17 2767.47,1367.47 2778.35,1360.32 2778.31,1360.24 2778.35,1360.32 2780.4,1359.47" style="stroke:rgb(0,0,0);stroke-width:1px;fill:none;stroke-opacity:1;stroke-linecap:round;stroke-linejoin:round;;fill:none"/>
<polyline points="2910.15,1359.46 2912.21,1360.32 2912.25,1360.24 2912.21,1360.32 2923.09,1367.47 2923.39,1367.17 2923.09,1367.47 2930.24,1378.35 2930.32,1378.31 2930.24,1378.35 2931.09,1380.41" style="stroke:rgb(255,0,0);stroke-width:39.370079;fill:none;stroke-opacity:0.5;stroke-linecap:round;stroke-linejoin:round;;fill:none"/>
<polyline points="2910.15,1359.46 2912.21,1360.32 2912.25,1360.24 2912.21,1360.32 2923.09,1367.47 2923.39,1367.17 2923.09,1367.47 2930.24,1378.35 2930.32,1378.31 2930.24,1378.35 2931.09,1380.41" style="stroke:rgb(0,0,0);stroke-width:1px;fill:none;stroke-opacity:1;stroke-linecap:round;stroke-linejoin:round;;fill:none"/>
<polyline points="2759.47,1380.4 2760.32,1378.35 2760.24,1378.31 2760.32,1378.35 2767.47,1367.47 2767.17,1367.17 2767.47,1367.47 2778.35,1360.32 2778.31,1360.24 2778.35,1360.32 2780.4,1359.47" style="stroke:rgb(255,0,0);stroke-width:39.370079;fill:none;stroke-opacity:0.5;stroke-linecap:round;stroke-linejoin:round;;fill:none"/>
<polyline points="2759.47,1380.4 2760.32,1378.35 2760.24,1378.31 2760.32,1378.35 2767.47,1367.47 2767.17,1367.17 2767.47,1367.47 2778.35,1360.32 2778.31,1360.24 2778.35,1360.32 2780.4,1359.47" style="stroke:rgb(0,0,0);stroke-width:1px;fill:none;stroke-opacity:1;stroke-linecap:round;stroke-linejoin:round;;fill:none"/>
<polyline points="2910.15,1359.46 2912.21,1360.32 2912.25,1360.24 2912.21,1360.32 2923.09,1367.47 2923.39,1367.17 2923.09,1367.47 2930.24,1378.35 2930.32,1378.31 2930.24,1378.35 2931.09,1380.41" style="stroke:rgb(255,0,0);stroke-width:39.370079;fill:none;stroke-opacity:0.5;stroke-linecap:round;stroke-linejoin:round;;fill:none"/>
<polyline points="2910.15,1359.46 2912.21,1360.32 2912.25,1360.24 2912.21,1360.32 2923.09,1367.47 2923.39,1367.17 2923.09,1367.47 2930.24,1378.35 2930.32,1378.31 2930.24,1378.35 2931.09,1380.41" style="stroke:rgb(0,0,0);stroke-width:1px;fill:none;stroke-opacity:1;stroke-linecap:round;stroke-linejoin:round;;fill:none"/>
<polyline points="2759.47,1380.4 2760.32,1378.35 2760.24,1378.31 2760.32,1378.35 2767.47,1367.47 2767.17,1367.17 2767.47,1367.47 2778.35,1360.32 2778.31,1360.24 2778.35,1360.32 2780.4,1359.47" style="stroke:rgb(255,0,0);stroke-width:39.370079;fill:none;stroke-opacity:0.5;stroke-linecap:round;stroke-linejoin:round;;fill:none"/>
<polyline points="2759.47,1380.4 2760.32,1378.35 2760.24,1378.31 2760.32,1378.35 2767.47,1367.47 2767.17,1367.17 2767.47,1367.47 2778.35,1360.32 2778.31,1360.24 2778.35,1360.32 2780.4,1359.47" style="stroke:rgb(0,0,0);stroke-width:1px;fill:none;stroke-opacity:1;stroke-linecap:round;stroke-linejoin:round;;fill:none"/>
<polyline points="2910.15,1359.46 2912.21,1360.32 2912.25,1360.24 2912.21,1360.32 2923.09,1367.47 2923.39,1367.17 2923.09,1367.47 2930.24,1378.35 2930.32,1378.31 2930.24,1378.35 2931.09,1380.41" style="stroke:rgb(255,0,0);stroke-width:39.370079;fill:none;stroke-opacity:0.5;stroke-linecap:round;stroke-linejoin:round;;fill:none"/>
<polyline points="2910.15,1359.46 2912.21,1360.32 2912.25,1360.24 2912.21,1360.32 2923.09,1367.47 2923.39,1367.17 2923.09,1367.47 2930.24,1378.35 2930.32,1378.31 2930.24,1378.35 2931.09,1380.41" style="stroke:rgb(0,0,0);stroke-width:1px;fill:none;stroke-opacity:1;stroke-linecap:round;stroke-linejoin:round;;fill:none"/>
<polyline points="2759.47,1380.4 2760.32,1378.35 2760.24,1378.31 2760.32,1378.35 2767.47,1367.47 2767.17,1367.17 2767.47,1367.47 2778.35,1360.32 2778.31,1360.24 2778.35,1360.32 2780.4,1359.47" style="stroke:rgb(255,0,0);stroke-width:39.370079;fill:none;stroke-opacity:0.5;stroke-linecap:round;stroke-linejoin:round;;fill:none"/>
<polyline points="2759.47,1380.4 2760.32,1378.35 2760.24,1378.31 2760.32,1378.35 2767.47,1367.47 2767.17,1367.17 2767.47,1367.47 2778.35,1360.32 2778.31,1360.24 2778.35,1360.32 2780.4,1359.47" style="stroke:rgb(0,0,0);stroke-width:1px;fill:none;stroke-opacity:1;stroke-linecap:round;stroke-linejoin:round;;fill:none"/>
<polyline points="2910.15,1359.46 2912.21,1360.32 2912.25,1360.24 2912.21,1360.32 2923.09,1367.47 2923.39,1367.17 2923.09,1367.47 2930.24,1378.35 2930.32,1378.31 2930.24,1378.35 2931.09,1380.41" style="stroke:rgb(255,0,0);stroke-width:39.370079;fill:none;stroke-opacity:0.5;stroke-linecap:round;stroke-linejoin:round;;fill:none"/>
<polyline points="2910.15,1359.46 2912.21,1360.32 2912.25,1360.24 2912.21,1360.32 2923.09,1367.47 2923.39,1367.17 2923.09,1367.47 2930.24,1378.35 2930.32,1378.31 2930.24,1378.35 2931.09,1380.41" style="stroke:rgb(0,0,0);stroke-width:1px;fill:none;stroke-opacity:1;stroke-linecap:round;stroke-linejoin:round;;fill:none"/>
<polyline points="2759.47,1380.4 2760.32,1378.35 2760.24,1378.31 2760.32,1378.35 2767.47,1367.47 2767.17,1367.17 2767.47,1367.47 2778.35,1360.32 2778.31,1360.24 2778.35,1360.32 2780.4,1359.47" style="stroke:rgb(255,0,0);stroke-width:39.370079;fill:none;stroke-opacity:0.5;stroke-linecap:round;stroke-linejoin:round;;fill:none"/>
<polyline points="2759.47,1380.4 2760.32,1378.35 2760.24,1378.31 2760.32,1378.35 2767.47,1367.47 2767.17,1367.17 2767.47,1367.47 2778.35,1360.32 2778.31,1360.24 2778.35,1360.32 2780.4,1359.47" style="stroke:rgb(0,0,0);stroke-width:1px;fill:none;stroke-opacity:1;stroke-linecap:round;stroke-linejoin:round;;fill:none"/>
<polyline points="2910.15,1359.46 2912.21,1360.32 2912.25,1360.24 2912.21,1360.32 2923.09,1367.47 2923.39,1367.17 2923.09,1367.47 2930.24,1378.35 2930.32,1378.31 2930.24,1378.35 2931.09,1380.41" style="stroke:rgb(255,0,0);stroke-width:39.370079;fill:none;stroke-opacity:0.5;stroke-linecap:round;stroke-linejoin:round;;fill:none"/>
<polyline points="2910.15,1359.46 2912.21,1360.32 2912.25,1360.24 2912.21,1360.32 2923.09,1367.47 2923.39,1367.17 2923.09,1367.47 2930.24,1378.35 2930.32,1378.31 2930.24,1378.35 2931.09,1380.41" style="stroke:rgb(0,0,0);stroke-width:1px;fill:none;stroke-opacity:1;stroke-linecap:round;stroke-linejoin:round;;fill:none"/>
<polyline points="2759.47,1380.4 2760.32,1378.35 2760.24,1378.31 2760.32,1378.35 2767.47,1367.47 2767.17,1367.17 2767.47,1367.47 2778.35,1360.32 2778.31,1360.24 2778.35,1360.32 2780.4,1359.47" style="stroke:rgb(255,0,0);stroke-width:39.370079;fill:none;stroke-opacity:0.5;stroke-linecap:round;stroke-linejoin:round;;fill:none"/>
<polyline points="2759.47,1380.4 2760.32,1378.35 2760.24,1378.31 2760.32,1378.35 2767.47,1367.47 2767.17,1367.17 2767.47,1367.47 2778.35,1360.32 2778.31,1360.24 2778.35,1360.32 2780.4,1359.47" style="stroke:rgb(0,0,0);stroke-width:1px;fill:none;stroke-opacity:1;stroke-linecap:round;stroke-linejoin:round;;fill:none"/>
<polyline points="2910.15,1359.46 2912.21,1360.32 2912.25,1360.24 2912.21,1360.32 2923.09,1367.47 2923.39,1367.17 2923.09,1367.47 2930.24,1378.35 2930.32,1378.31 2930.24,1378.35 2931.09,1380.41" style="stroke:rgb(255,0,0);stroke-width:39.370079;fill:none;stroke-opacity:0.5;stroke-linecap:round;stroke-linejoin:round;;fill:none"/>
<polyline points="2910.15,1359.46 2912.21,1360.32 2912.25,1360.24 2912.21,1360.32 2923.09,1367.47 2923.39,1367.17 2923.09,1367.47 2930.24,1378.35 2930.32,1378.31 2930.24,1378.35 2931.09,1380.41" style="stroke:rgb(0,0,0);stroke-width:1px;fill:none;stroke-opacity:1;stroke-linecap:round;stroke-linejoin:round;;fill:none"/>
<polyline points="2759.47,1380.4 2760.32,1378.35 2760.24,1378.31 2760.32,1378.35 2767.47,1367.47 2767.17,1367.17 2767.47,1367.47 2778.35,1360.32 2778.31,1360.24 2778.35,1360.32 2780.4,1359.47" style="stroke:rgb(255,0,0);stroke-width:39.370079;fill:none;stroke-opacity:0.5;stroke-linecap:round;stroke-linejoin:round;;fill:none"/>
<polyline points="2759.47,1380.4 2760.32,1378.35 2760.24,1378.31 2760.32,1378.35 2767.47,1367.47 2767.17,1367.17 2767.47,1367.47 2778.35,1360.32 2778.31,1360.24 2778.35,1360.32 2780.4,1359.47" style="stroke:rgb(0,0,0);stroke-width:1px;fill:none;stroke-opacity:1;stroke-linecap:round;stroke-linejoin:round;;fill:none"/>
<polyline points="2910.15,1359.46 2912.21,1360.32 2912.25,1360.24 2912.21,1360.32 2923.09,1367.47 2923.39,1367.17 2923.09,1367.47 2930.24,1378.35 2930.32,1378.31 2930.24,1378.35 2931.09,1380.41" style="stroke:rgb(255,0,0);stroke-width:39.370079;fill:none;stroke-opacity:0.5;stroke-linecap:round;stroke-linejoin:round;;fill:none"/>
<polyline points="2910.15,1359.46 2912.21,1360.32 2912.25,1360.24 2912.21,1360.32 2923.09,1367.47 2923.39,1367.17 2923.09,1367.47 2930.24,1378.35 2930.32,1378.31 2930.24,1378.35 2931.09,1380.41" style="stroke:rgb(0,0,0);stroke-width:1px;fill:none;stroke-opacity:1;stroke-linecap:round;stroke-linejoin:round;;fill:none"/>
<polyline points="2759.47,1380.4 2760.32,1378.35 2760.24,1378.31 2760.32,1378.35 2767.47,1367.47 2767.17,1367.17 2767.47,1367.47 2778.35,1360.32 2778.31,1360.24 2778.35,1360.32 2780.4,1359.47" style="stroke:rgb(255,0,0);stroke-width:39.370079;fill:none;stroke-opacity:0.5;stroke-linecap:round;stroke-linejoin:round;;fill:none"/>
<polyline points="2759.47,1380.4 2760.32,1378.35 2760.24,1378.31 2760.32,1378.35 2767.47,1367.47 2767.17,1367.17 2767.47,1367.47 2778.35,1360.32 2778.31,1360.24 2778.35,1360.32 2780.4,1359.47" style="stroke:rgb(0,0,0);stroke-width:1px;fill:none;stroke-opacity:1;stroke-linecap:round;stroke-linejoin:round;;fill:none"/>
<polyline points="2910.15,1359.46 2912.21,1360.32 2912.25,1360.24 2912.21,1360.32 2923.09,1367.47 2923.39,1367.17 2923.09,1367.47 2930.24,1378.35 2930.32,1378.31 2930.24,1378.35 2931.09,1380.41" style="stroke:rgb(255,0,0);stroke-width:39.370079;fill:none;stroke-opacity:0.5;stroke-linecap:round;stroke-linejoin:round;;fill:none"/>
<polyline points="2910.15,1359.46 2912.21,1360.32 2912.25,1360.24 2912.21,1360.32 2923.09,1367.47 2923.39,1367.17 2923.09,1367.47 2930.24,1378.35 2930.32,1378.31 2930.24,1378.35 2931.09,1380.41" style="stroke:rgb(0,0,0);stroke-width:1px;fill:none;stroke-opacity:1;stroke-linecap:round;stroke-linejoin:round;;fill:none"/>
<polyline points="2759.47,1380.4 2760.32,1378.35 2760.24,1378.31 2760.32,1378.35 2767.47,1367.47 2767.17,1367.17 2767.47,1367.47 2778.35,1360.32 2778.31,1360.24 2778.35,1360.32 2780.4,1359.47" style="stroke:rgb(255,0,0);stroke-width:39.370079;fill:none;stroke-opacity:0.5;stroke-linecap:round;stroke-linejoin:round;;fill:none"/>
<polyline points="2759.47,1380.4 2760.32,1378.35 2760.24,1378.31 2760.32,1378.35 2767.47,1367.47 2767.17,1367.17 2767.47,1367.47 2778.35,1360.32 2778.31,1360.24 2778.35,1360.32 2780.4,1359.47" style="stroke:rgb(0,0,0);stroke-width:1px;fill:none;stroke-opacity:1;stroke-linecap:round;stroke-linejoin:round;;fill:none"/>
<polyline points="2910.15,1359.46 2912.21,1360.32 2912.25,1360.24 2912.21,1360.32 2923.09,1367.47 2923.39,1367.17 2923.09,1367.47 2930.24,1378.35 2930.32,1378.31 2930.24,1378.35 2931.09,1380.41" style="stroke:rgb(255,0,0);stroke-width:39.370079;fill:none;stroke-opacity:0.5;stroke-linecap:round;stroke-linejoin:round;;fill:none"/>
<polyline points="2910.15,1359.46 2912.21,1360.32 2912.25,1360.24 2912.21,1360.32 2923.09,1367.47 2923.39,1367.17 2923.09,1367.47 2930.24,1378.35 2930.32,1378.31 2930.24,1378.35 2931.09,1380.41" style="stroke:rgb(0,0,0);stroke-width:1px;fill:none;stroke-opacity:1;stroke-linecap:round;stroke-linejoin:round;;fill:none"/>
<polyline points="2759.47,1380.4 2760.32,1378.35 2760.24,1378.31 2760.32,1378.35 2767.47,1367.47 2767.17,1367.17 2767.47,1367.47 2778.35,1360.32 2778.31,1360.24 2778.35,1360.32 2780.4,1359.47" style="stroke:rgb(255,0,0);stroke-width:39.370079;fill:none;stroke-opacity:0.5;stroke-linecap:round;stroke-linejoin:round;;fill:none"/>
<polyline points="2759.47,1380.4 2760.32,1378.35 2760.24,1378.31 2760.32,1378.35 2767.47,1367.47 2767.17,1367.17 2767.47,1367.47 2778.35,1360.32 2778.31,1360.24 2778.35,1360.32 2780.4,1359.47" style="stroke:rgb(0,0,0);stroke-width:1px;fill:none;stroke-opacity:1;stroke-linecap:round;stroke-linejoin:round;;fill:none"/>
<polyline points="2910.15,1359.46 2912.21,1360.32 2912.25,1360.24 2912.21,1360.32 2923.09,1367.47 2923.39,1367.17 2923.09,1367.47 2930.24,1378.35 2930.32,1378.31 2930.24,1378.35 2931.09,1380.41" style="stroke:rgb(255,0,0);stroke-width:39.370079;fill:none;stroke-opacity:0.5;stroke-linecap:round;stroke-linejoin:round;;fill:none"/>
<polyline points="2910.15,1359.46 2912.21,1360.32 2912.25,1360.24 2912.21,1360.32 2923.09,1367.47 2923.39,1367.17 2923.09,1367.47 2930.24,1378.35 2930.32,1378.31 2930.24,1378.35 2931.09,1380.41" style="stroke:rgb(0,0,0);stroke-width:1px;fill:none;stroke-opacity:1;stroke-linecap:round;stroke-linejoin:round;;fill:none"/>
<polyline points="2759.47,1380.4 2760.32,1378.35 2760.24,1378.31 2760.32,1378.35 2767.47,1367.47 2767.17,1367.17 2767.47,1367.47 2778.35,1360.32 2778.31,1360.24 2778.35,1360.32 2780.4,1359.47" style="stroke:rgb(255,0,0);stroke-width:39.370079;fill:none;stroke-opacity:0.5;stroke-linecap:round;stroke-linejoin:round;;fill:none"/>
<polyline points="2759.47,1380.4 2760.32,1378.35 2760.24,1378.31 2760.32,1378.35 2767.47,1367.47 2767.17,1367.17 2767.47,1367.47 2778.35,1360.32 2778.31,1360.24 2778.35,1360.32 2780.4,1359.47" style="stroke:rgb(0,0,0);stroke-width:1px;fill:none;stroke-opacity:1;stroke-linecap:round;stroke-linejoin:round;;fill:none"/>
<polyline points="2910.15,1359.46 2912.21,1360.32 2912.25,1360.24 2912.21,1360.32 2923.09,1367.47 2923.39,1367.17 2923.09,1367.47 2930.24,1378.35 2930.32,1378.31 2930.24,1378.35 2931.09,1380.41" style="stroke:rgb(255,0,0);stroke-width:39.370079;fill:none;stroke-opacity:0.5;stroke-linecap:round;stroke-linejoin:round;;fill:none"/>
<polyline points="2910.15,1359.46 2912.21,1360.32 2912.25,1360.24 2912.21,1360.32 2923.09,1367.47 2923.39,1367.17 2923.09,1367.47 2930.24,1378.35 2930.32,1378.31 2930.24,1378.35 2931.09,1380.41" style="stroke:rgb(0,0,0);stroke-width:1px;fill:none;stroke-opacity:1;stroke-linecap:round;stroke-linejoin:round;;fill:none"/>
<polyline points="2759.47,1380.4 2760.32,1378.35 2760.24,1378.31 2760.32,1378.35 2767.47,1367.47 2767.17,1367.17 2767.47,1367.47 2778.35,1360.32 2778.31,1360.24 2778.35,1360.32 2780.4,1359.47" style="stroke:rgb(255,0,0);stroke-width:39.370079;fill:none;stroke-opacity:0.5;stroke-linecap:round;stroke-linejoin:round;;fill:none"/>
<polyline points="2759.47,1380.4 2760.32,1378.35 2760.24,1378.31 2760.32,1378.35 2767.47,1367.47 2767.17,1367.17 2767.47,1367.47 2778.35,1360.32 2778.31,1360.24 2778.35,1360.32 2780.4,1359.47" style="stroke:rgb(0,0,0);stroke-width:1px;fill:none;stroke-opacity:1;stroke-linecap:round;stroke-linejoin:round;;fill:none"/>
<polyline points="2910.15,1359.46 2912.21,1360.32 2912.25,1360.24 2912.21,1360.32 2923.09,1367.47 2923.39,1367.17 2923.09,1367.47 2930.24,1378.35 2930.32,1378.31 2930.24,1378.35 2931.09,1380.41" style="stroke:rgb(255,0,0);stroke-width:39.370079;fill:none;stroke-opacity:0.5;stroke-linecap:round;stroke-linejoin:round;;fill:none"/>
<polyline points="2910.15,1359.46 2912.21,1360.32 2912.25,1360.24 2912.21,1360.32 2923.09,1367.47 2923.39,1367.17 2923.09,1367.47 2930.24,1378.35 2930.32,1378.31 2930.24,1378.35 2931.09,1380.41" style="stroke:rgb(0,0,0);stroke-width:1px;fill:none;stroke-opacity:1;stroke-linecap:round;stroke-linejoin:round;;fill:none"/>
<polyline points="2759.47,1380.4 2760.32,1378.35 2760.24,1378.31 2760.32,1378.35 2767.47,1367.47 2767.17,1367.17 2767.47,1367.47 2778.35,1360.32 2778.31,1360.24 2778.35,1360.32 2780.4,1359.47" style="stroke:rgb(255,0,0);stroke-width:39.370079;fill:none;stroke-opacity:0.5;stroke-linecap:round;stroke-linejoin:round;;fill:none"/>
<polyline points="2759.47,1380.4 2760.32,1378.35 2760.24,1378.31 2760.32,1378.35 2767.47,1367.47 2767.17,1367.17 2767.47,1367.47 2778.35,1360.32 2778.31,1360.24 2778.35,1360.32 2780.4,1359.47" style="stroke:rgb(0,0,0);stroke-width:1px;fill:none;stroke-opacity:1;stroke-linecap:round;stroke-linejoin:round;;fill:none"/>
<polyline points="2910.15,1359.46 2912.21,1360.32 2912.25,1360.24 2912.21,1360.32 2923.09,1367.47 2923.39,1367.17 2923.09,1367.47 2930.24,1378.35 2930.32,1378.31 2930.24,1378.35 2931.09,1380.41" style="stroke:rgb(255,0,0);stroke-width:39.370079;fill:none;stroke-opacity:0.5;stroke-linecap:round;stroke-linejoin:round;;fill:none"/>
<polyline points="2910.15,1359.46 2912.21,1360.32 2912.25,1360.24 2912.21,1360.32 2923.09,1367.47 2923.39,1367.17 2923.09,1367.47 2930.24,1378.35 2930.32,1378.31 2930.24,1378.35 2931.09,1380.41" style="stroke:rgb(0,0,0);stroke-width:1px;fill:none;stroke-opacity:1;stroke-linecap:round;stroke-linejoin:round;;fill:none"/>
<polyline points="2759.46,1380.4 2760.32,1378.35 2760.24,1378.31 2760.32,1378.35 2767.47,1367.47 2767.17,1367.17 2767.47,1367.47 2778.35,1360.32 2778.31,1360.24 2778.35,1360.32 2780.4,1359.47" style="stroke:rgb(255,0,0);stroke-width:39.370079;fill:none;stroke-opacity:0.5;stroke-linecap:round;stroke-linejoin:round;;fill:none"/>
<polyline points="2759.46,1380.4 2760.32,1378.35 2760.24,1378.31 2760.32,1378.35 2767.47,1367.47 2767.17,1367.17 2767.47,1367.47 2778.35,1360.32 2778.31,1360.24 2778.35,1360.32 2780.4,1359.47" style="stroke:rgb(0,0,0);stroke-width:1px;fill:none;stroke-opacity:1;stroke-linecap:round;stroke-linejoin:round;;fill:none"/>
<polyline points="2910.15,1359.46 2912.21,1360.32 2912.25,1360.24 2912.21,1360.32 2923.09,1367.47 2923.39,1367.17 2923.09,1367.47 2930.24,1378.35 2930.32,1378.31 2930.24,1378.35 2931.09,1380.41" style="stroke:rgb(255,0,0);stroke-width:39.370079;fill:none;stroke-opacity:0.5;stroke-linecap:round;stroke-linejoin:round;;fill:none"/>
<polyline points="2910.15,1359.46 2912.21,1360.32 2912.25,1360.24 2912.21,1360.32 2923.09,1367.47 2923.39,1367.17 2923.09,1367.47 2930.24,1378.35 2930.32,1378.31 2930.24,1378.35 2931.09,1380.41" style="stroke:rgb(0,0,0);stroke-width:1px;fill:none;stroke-opacity:1;stroke-linecap:round;stroke-linejoin:round;;fill:none"/>
<polyline points="2759.47,1380.4 2760.32,1378.35 2760.24,1378.31 2760.32,1378.35 2767.47,1367.47 2767.17,1367.17 2767.47,1367.47 2778.35,1360.32 2778.31,1360.24 2778.35,1360.32 2780.4,1359.47" style="stroke:rgb(255,0,0);stroke-width:39.370079;fill:none;stroke-opacity:0.5;stroke-linecap:round;stroke-linejoin:round;;fill:none"/>
<polyline points="2759.47,1380.4 2760.32,1378.35 2760.24,1378.31 2760.32,1378.35 2767.47,1367.47 2767.17,1367.17 2767.47,1367.47 2778.35,1360.32 2778.31,1360.24 2778.35,1360.32 2780.4,1359.47" style="stroke:rgb(0,0,0);stroke-width:1px;fill:none;stroke-opacity:1;stroke-linecap:round;stroke-linejoin:round;;fill:none"/>
<polyline points="2910.15,1359.46 2912.21,1360.32 2912.25,1360.24 2912.21,1360.32 2923.09,1367.47 2923.39,1367.17 2923.09,1367.47 2930.24,1378.35 2930.32,1378.31 2930.24,1378.35 2931.09,1380.41" style="stroke:rgb(255,0,0);stroke-width:39.370079;fill:none;stroke-opacity:0.5;stroke-linecap:round;stroke-linejoin:round;;fill:none"/>
<polyline points="2910.15,1359.46 2912.21,1360.32 2912.25,1360.24 2912.21,1360.32 2923.09,1367.47 2923.39,1367.17 2923.09,1367.47 2930.24,1378.35 2930.32,1378.31 2930.24,1378.35 2931.09,1380.41" style="stroke:rgb(0,0,0);stroke-width:1px;fill:none;stroke-opacity:1;stroke-linecap:round;stroke-linejoin:round;;fill:none"/>
<polyline points="2759.47,1380.4 2760.32,1378.35 2767.47,1367.47 2778.35,1360.32 2780.4,1359.47" style="stroke:rgb(255,0,0);stroke-width:39.370079;fill:none;stroke-opacity:0.5;stroke-linecap:round;stroke-linejoin:round;;fill:none"/>
<polyline points="2759.47,1380.4 2760.32,1378.35 2767.47,1367.47 2778.35,1360.32 2780.4,1359.47" style="stroke:rgb(0,0,0);stroke-width:1px;fill:none;stroke-opacity:1;stroke-linecap:round;stroke-linejoin:round;;fill:none"/>
<polyline points="2910.15,1359.46 2912.21,1360.32 2923.09,1367.47 2930.24,1378.35 2931.09,1380.41" style="stroke:rgb(255,0,0);stroke-width:39.370079;fill:none;stroke-opacity:0.5;stroke-linecap:round;stroke-linejoin:round;;fill:none"/>
<polyline points="2910.15,1359.46 2912.21,1360.32 2923.09,1367.47 2930.24,1378.35 2931.09,1380.41" style="stroke:rgb(0,0,0);stroke-width:1px;fill:none;stroke-opacity:1;stroke-linecap:round;stroke-linejoin:round;;fill:none"/>
<polyline points="3772.49,1890.11 3775.3,1893.76 3777.76,1896.65 3787.4,1906.8 3790.08,1909.35 3800.75,1918.46 3801.44,1918.99" style="stroke:rgb(255,0,0);stroke-width:39.370079;fill:none;stroke-opacity:0.5;stroke-linecap:round;stroke-linejoin:round;;fill:none"/>
<polyline points="3772.49,1890.11 3775.3,1893.76 3777.76,1896.65 3787.4,1906.8 3790.08,1909.35 3800.75,1918.46 3801.44,1918.99" style="stroke:rgb(0,0,0);stroke-width:1px;fill:none;stroke-opacity:1;stroke-linecap:round;stroke-linejoin:round;;fill:none"/>
<polyline points="3772.49,1890.11 3775.3,1893.76 3777.76,1896.65 3787.4,1906.8 3790.08,1909.35 3800.75,1918.46 3801.44,1918.99" style="stroke:rgb(255,0,0);stroke-width:39.370079;fill:none;stroke-opacity:0.5;stroke-linecap:round;stroke-linejoin:round;;fill:none"/>
<polyline points="3772.49,1890.11 3775.3,1893.76 3777.76,1896.65 3787.4,1906.8 3790.08,1909.35 3800.75,1918.46 3801.44,1918.99" style="stroke:rgb(0,0,0);stroke-width:1px;fill:none;stroke-opacity:1;stroke-linecap:round;stroke-linejoin:round;;fill:none"/>
<polyline points="3772.49,1890.11 3775.3,1893.76 3777.76,1896.65 3787.4,1906.8 3790.08,1909.35 3800.75,1918.46 3801.44,1918.99" style="stroke:rgb(255,0,0);stroke-width:39.370079;fill:none;stroke-opacity:0.5;stroke-linecap:round;stroke-linejoin:round;;fill:none"/>
<polyline points="3772.49,1890.11 3775.3,1893.76 3777.76,1896.65 3787.4,1906.8 3790.08,1909.35 3800.75,1918.46 3801.44,1918.99" style="stroke:rgb(0,0,0);stroke-width:1px;fill:none;stroke-opacity:1;stroke-linecap:round;stroke-linejoin:round;;fill:none"/>
<polyline points="3772.49,1890.11 3775.3,1893.76 3777.76,1896.65 3787.4,1906.8 3790.08,1909.35 3800.75,1918.46 3801.44,1918.99" style="stroke:rgb(255,0,0);stroke-width:39.370079;fill:none;stroke-opacity:0.5;stroke-linecap:round;stroke-linejoin:round;;fill:none"/>
<polyline points="3772.49,1890.11 3775.3,1893.76 3777.76,1896.65 3787.4,1906.8 3790.08,1909.35 3800.75,1918.46 3801.44,1918.99" style="stroke:rgb(0,0,0);stroke-width:1px;fill:none;stroke-opacity:1;stroke-linecap:round;stroke-linejoin:round;;fill:none"/>
<polyline points="3772.49,1890.11 3775.3,1893.76 3777.76,1896.65 3787.4,1906.8 3790.08,1909.35 3800.75,1918.46 3801.44,1918.99" style="stroke:rgb(255,0,0);stroke-width:39.370079;fill:none;stroke-opacity:0.5;stroke-linecap:round;stroke-linejoin:round;;fill:none"/>
<polyline points="3772.49,1890.11 3775.3,1893.76 3777.76,1896.65 3787.4,1906.8 3790.08,1909.35 3800.75,1918.46 3801.44,1918.99" style="stroke:rgb(0,0,0);stroke-width:1px;fill:none;stroke-opacity:1;stroke-linecap:round;stroke-linejoin:round;;fill:none"/>
<polyline points="3772.49,1890.11 3775.3,1893.76 3777.76,1896.65 3787.4,1906.8 3790.08,1909.35 3800.75,1918.46 3801.44,1918.99" style="stroke:rgb(255,0,0);stroke-width:39.370079;fill:none;stroke-opacity:0.5;stroke-linecap:round;stroke-linejoin:round;;fill:none"/>
<polyline points="3772.49,1890.11 3775.3,1893.76 3777.76,1896.65 3787.4,1906.8 3790.08,1909.35 3800.75,1918.46 3801.44,1918.99" style="stroke:rgb(0,0,0);stroke-width:1px;fill:none;stroke-opacity:1;stroke-linecap:round;stroke-linejoin:round;;fill:none"/>
<polyline points="3772.49,1890.11 3775.3,1893.76 3777.76,1896.65 3787.4,1906.8 3790.08,1909.35 3800.75,1918.46 3801.44,1918.99" style="stroke:rgb(255,0,0);stroke-width:39.370079;fill:none;stroke-opacity:0.5;stroke-linecap:round;stroke-linejoin:round;;fill:none"/>
<polyline points="3772.49,1890.11 3775.3,1893.76 3777.76,1896.65 3787.4,1906.8 3790.08,1909.35 3800.75,1918.46 3801.44,1918.99" style="stroke:rgb(0,0,0);stroke-width:1px;fill:none;stroke-opacity:1;stroke-linecap:round;stroke-linejoin:round;;fill:none"/>
<polyline points="3772.49,1890.11 3775.3,1893.76 3777.76,1896.65 3787.4,1906.8 3790.08,1909.35 3800.75,1918.46 3801.44,1918.99" style="stroke:rgb(255,0,0);stroke-width:39.370079;fill:none;stroke-opacity:0.5;stroke-linecap:round;stroke-linejoin:round;;fill:none"/>
<polyline points="3772.49,1890.11 3775.3,1893.76 3777.76,1896.65 3787.4,1906.8 3790.08,1909.35 3800.75,1918.46 3801.44,1918.99" style="stroke:rgb(0,0,0);stroke-width:1px;fill:none;stroke-opacity:1;stroke-linecap:round;stroke-linejoin:round;;fill:none"/>
<polyline points="3772.49,1890.11 3775.3,1893.76 3777.76,1896.65 3787.4,1906.8 3790.08,1909.35 3800.75,1918.46 3801.44,1918.99" style="stroke:rgb(255,0,0);stroke-width:39.370079;fill:none;stroke-opacity:0.5;stroke-linecap:round;stroke-linejoin:round;;fill:none"/>
<polyline points="3772.49,1890.11 3775.3,1893.76 3777.76,1896.65 3787.4,1906.8 3790.08,1909.35 3800.75,1918.46 3801.44,1918.99" style="stroke:rgb(0,0,0);stroke-width:1px;fill:none;stroke-opacity:1;stroke-linecap:round;stroke-linejoin:round;;fill:none"/>
<polyline points="3772.49,1890.11 3775.3,1893.76 3777.76,1896.65 3787.4,1906.8 3790.08,1909.35 3800.75,1918.46 3801.44,1918.99" style="stroke:rgb(255,0,0);stroke-width:39.370079;fill:none;stroke-opacity:0.5;stroke-linecap:round;stroke-linejoin:round;;fill:none"/>
<polyline points="3772.49,1890.11 3775.3,1893.76 3777.76,1896.65 3787.4,1906.8 3790.08,1909.35 3800.75,1918.46 3801.44,1918.99" style="stroke:rgb(0,0,0);stroke-width:1px;fill:none;stroke-opacity:1;stroke-linecap:round;stroke-linejoin:round;;fill:none"/>
<polyline points="3772.49,1890.11 3775.3,1893.76 3777.76,1896.65 3787.4,1906.8 3790.08,1909.35 3800.75,1918.46 3801.44,1918.99" style="stroke:rgb(255,0,0);stroke-width:39.370079;fill:none;stroke-opacity:0.5;stroke-linecap:round;stroke-linejoin:round;;fill:none"/>
<polyline points="3772.49,1890.11 3775.3,1893.76 3777.76,1896.65 3787.4,1906.8 3790.08,1909.35 3800.75,1918.46 3801.44,1918.99" style="stroke:rgb(0,0,0);stroke-width:1px;fill:none;stroke-opacity:1;stroke-linecap:round;stroke-linejoin:round;;fill:none"/>
<polyline points="3772.49,1890.11 3775.3,1893.76 3777.76,1896.65 3787.4,1906.8 3790.08,1909.35 3800.75,1918.46 3801.44,1918.99" style="stroke:rgb(255,0,0);stroke-width:39.370079;fill:none;stroke-opacity:0.5;stroke-linecap:round;stroke-linejoin:round;;fill:none"/>
<polyline points="3772.49,1890.11 3775.3,1893.76 3777.76,1896.65 3787.4,1906.8 3790.08,1909.35 3800.75,1918.46 3801.44,1918.99" style="stroke:rgb(0,0,0);stroke-width:1px;fill:none;stroke-opacity:1;stroke-linecap:round;stroke-linejoin:round;;fill:none"/>
<polyline points="3772.49,1890.11 3775.3,1893.76 3777.76,1896.65 3787.4,1906.8 3790.08,1909.35 3800.75,1918.46 3801.44,1918.99" style="stroke:rgb(255,0,0);stroke-width:39.370079;fill:none;stroke-opacity:0.5;stroke-linecap:round;stroke-linejoin:round;;fill:none"/>
<polyline points="3772.49,1890.11 3775.3,1893.76 3777.76,1896.65 3787.4,1906.8 3790.08,1909.35 3800.75,1918.46 3801.44,1918.99" style="stroke:rgb(0,0,0);stroke-width:1px;fill:none;stroke-opacity:1;stroke-linecap:round;stroke-linejoin:round;;fill:none"/>
<polyline points="3772.49,1890.11 3775.3,1893.76 3777.76,1896.65 3787.4,1906.8 3790.08,1909.35 3800.75,1918.46 3801.44,1918.99" style="stroke:rgb(255,0,0);stroke-width:39.370079;fill:none;stroke-opacity:0.5;stroke-linecap:round;stroke-linejoin:round;;fill:none"/>
<polyline points="3772.49,1890.11 3775.3,1893.76 3777.76,1896.65 3787.4,1906.8 3790.08,1909.35 3800.75,1918.46 3801.44,1918.99" style="stroke:rgb(0,0,0);stroke-width:1px;fill:none;stroke-opacity:1;stroke-linecap:round;stroke-linejoin:round;;fill:none"/>
<polyline points="3772.49,1890.11 3775.3,1893.76 3777.76,1896.65 3787.4,1906.8 3790.08,1909.35 3800.75,1918.46 3801.44,1918.99" style="stroke:rgb(255,0,0);stroke-width:39.370079;fill:none;stroke-opacity:0.5;stroke-linecap:round;stroke-linejoin:round;;fill:none"/>
<polyline points="3772.49,1890.11 3775.3,1893.76 3777.76,1896.65 3787.4,1906.8 3790.08,1909.35 3800.75,1918.46 3801.44,1918.99" style="stroke:rgb(0,0,0);stroke-width:1px;fill:none;stroke-opacity:1;stroke-linecap:round;stroke-linejoin:round;;fill:none"/>
<polyline points="3772.49,1890.11 3775.3,1893.76 3777.76,1896.65 3787.4,1906.8 3790.08,1909.35 3800.75,1918.46 3801.44,1918.99" style="stroke:rgb(255,0,0);stroke-width:39.370079;fill:none;stroke-opacity:0.5;stroke-linecap:round;stroke-linejoin:round;;fill:none"/>
<polyline points="3772.49,1890.11 3775.3,1893.76 3777.76,1896.65 3787.4,1906.8 3790.08,1909.35 3800.75,1918.46 3801.44,1918.99" style="stroke:rgb(0,0,0);stroke-width:1px;fill:none;stroke-opacity:1;stroke-linecap:round;stroke-linejoin:round;;fill:none"/>
<polyline points="3772.49,1890.11 3775.3,1893.76 3777.76,1896.65 3787.4,1906.8 3790.08,1909.35 3800.75,1918.46 3801.44,1918.99" style="stroke:rgb(255,0,0);stroke-width:39.370079;fill:none;stroke-opacity:0.5;stroke-linecap:round;stroke-linejoin:round;;fill:none"/>
<polyline points="3772.49,1890.11 3775.3,1893.76 3777.76,1896.65 3787.4,1906.8 3790.08,1909.35 3800.75,1918.46 3801.44,1918.99" style="stroke:rgb(0,0,0);stroke-width:1px;fill:none;stroke-opacity:1;stroke-linecap:round;stroke-linejoin:round;;fill:none"/>
<polyline points="3772.49,1890.11 3775.3,1893.76 3777.76,1896.65 3787.4,1906.8 3790.08,1909.35 3800.75,1918.46 3801.44,1918.99" style="stroke:rgb(255,0,0);stroke-width:39.370079;fill:none;stroke-opacity:0.5;stroke-linecap:round;stroke-linejoin:round;;fill:none"/>
<polyline points="3772.49,1890.11 3775.3,1893.76 3777.76,1896.65 3787.4,1906.8 3790.08,1909.35 3800.75,1918.46 3801.44,1918.99" style="stroke:rgb(0,0,0);stroke-width:1px;fill:none;stroke-opacity:1;stroke-linecap:round;stroke-linejoin:round;;fill:none"/>
<polyline points="3772.49,1890.11 3775.3,1893.76 3777.76,1896.65 3787.4,1906.8 3790.08,1909.35 3800.75,1918.46 3801.44,1918.99" style="stroke:rgb(255,0,0);stroke-width:39.370079;fill:none;stroke-opacity:0.5;stroke-linecap:round;stroke-linejoin:round;;fill:none"/>
<polyline points="3772.49,1890.11 3775.3,1893.76 3777.76,1896.65 3787.4,1906.8 3790.08,1909.35 3800.75,1918.46 3801.44,1918.99" style="stroke:rgb(0,0,0);stroke-width:1px;fill:none;stroke-opacity:1;stroke-linecap:round;stroke-linejoin:round;;fill:none"/>
<polyline points="3772.49,1890.11 3775.3,1893.76 3777.76,1896.65 3787.4,1906.8 3790.08,1909.35 3800.75,1918.46 3801.44,1918.99" style="stroke:rgb(255,0,0);stroke-width:39.370079;fill:none;stroke-opacity:0.5;stroke-linecap:round;stroke-linejoin:round;;fill:none"/>
<polyline points="3772.49,1890.11 3775.3,1893.76 3777.76,1896.65 3787.4,1906.8 3790.08,1909.35 3800.75,1918.46 3801.44,1918.99" style="stroke:rgb(0,0,0);stroke-width:1px;fill:none;stroke-opacity:1;stroke-linecap:round;stroke-linejoin:round;;fill:none"/>
<polyline points="3772.49,1890.11 3775.3,1893.76 3777.76,1896.65 3787.4,1906.8 3790.08,1909.35 3800.75,1918.46 3801.44,1918.99" style="stroke:rgb(255,0,0);stroke-width:39.370079;fill:none;stroke-opacity:0.5;stroke-linecap:round;stroke-linejoin:round;;fill:none"/>
<polyline points="3772.49,1890.11 3775.3,1893.76 3777.76,1896.65 3787.4,1906.8 3790.08,1909.35 3800.75,1918.46 3801.44,1918.99" style="stroke:rgb(0,0,0);stroke-width:1px;fill:none;stroke-opacity:1;stroke-linecap:round;stroke-linejoin:round;;fill:none"/>
<polyline points="3801.16,1918.78 3800.75,1918.46 3800.74,1918.49 3800.75,1918.46 3790.08,1909.35 3787.4,1906.8 3787.38,1906.82 3787.4,1906.8 3777.76,1896.65 3775.3,1893.76 3775.27,1893.78 3775.3,1893.76 3772.49,1890.11" style="stroke:rgb(255,0,0);stroke-width:39.370079;fill:none;stroke-opacity:0.5;stroke-linecap:round;stroke-linejoin:round;;fill:none"/>
<polyline points="3801.16,1918.78 3800.75,1918.46 3800.74,1918.49 3800.75,1918.46 3790.08,1909.35 3787.4,1906.8 3787.38,1906.82 3787.4,1906.8 3777.76,1896.65 3775.3,1893.76 3775.27,1893.78 3775.3,1893.76 3772.49,1890.11" style="stroke:rgb(0,0,0);stroke-width:1px;fill:none;stroke-opacity:1;stroke-linecap:round;stroke-linejoin:round;;fill:none"/>
<polyline points="3801.16,1918.78 3800.75,1918.46 3800.74,1918.49 3800.75,1918.46 3790.08,1909.35 3787.4,1906.8 3787.38,1906.82 3787.4,1906.8 3777.76,1896.65 3775.3,1893.76 3775.27,1893.78 3775.3,1893.76 3772.49,1890.11" style="stroke:rgb(255,0,0);stroke-width:39.370079;fill:none;stroke-opacity:0.5;stroke-linecap:round;stroke-linejoin:round;;fill:none"/>
<polyline points="3801.16,1918.78 3800.75,1918.46 3800.74,1918.49 3800.75,1918.46 3790.08,1909.35 3787.4,1906.8 3787.38,1906.82 3787.4,1906.8 3777.76,1896.65 3775.3,1893.76 3775.27,1893.78 3775.3,1893.76 3772.49,1890.11" style="stroke:rgb(0,0,0);stroke-width:1px;fill:none;stroke-opacity:1;stroke-linecap:round;stroke-linejoin:round;;fill:none"/>
<polyline points="3801.16,1918.78 3800.75,1918.46 3800.74,1918.49 3800.75,1918.46 3790.08,1909.35 3787.4,1906.8 3787.38,1906.82 3787.4,1906.8 3777.76,1896.65 3775.3,1893.76 3775.27,1893.78 3775.3,1893.76 3772.49,1890.11" style="stroke:rgb(255,0,0);stroke-width:39.370079;fill:none;stroke-opacity:0.5;stroke-linecap:round;stroke-linejoin:round;;fill:none"/>
<polyline points="3801.16,1918.78 3800.75,1918.46 3800.74,1918.49 3800.75,1918.46 3790.08,1909.35 3787.4,1906.8 3787.38,1906.82 3787.4,1906.8 3777.76,1896.65 3775.3,1893.76 3775.27,1893.78 3775.3,1893.76 3772.49,1890.11" style="stroke:rgb(0,0,0);stroke-width:1px;fill:none;stroke-opacity:1;stroke-linecap:round;stroke-linejoin:round;;fill:none"/>
<polyline points="3801.16,1918.78 3800.75,1918.46 3800.74,1918.49 3800.75,1918.46 3790.08,1909.35 3787.4,1906.8 3787.38,1906.82 3787.4,1906.8 3777.76,1896.65 3775.3,1893.76 3775.27,1893.78 3775.3,1893.76 3772.49,1890.11" style="stroke:rgb(255,0,0);stroke-width:39.370079;fill:none;stroke-opacity:0.5;stroke-linecap:round;stroke-linejoin:round;;fill:none"/>
<polyline points="3801.16,1918.78 3800.75,1918.46 3800.74,1918.49 3800.75,1918.46 3790.08,1909.35 3787.4,1906.8 3787.38,1906.82 3787.4,1906.8 3777.76,1896.65 3775.3,1893.76 3775.27,1893.78 3775.3,1893.76 3772.49,1890.11" style="stroke:rgb(0,0,0);stroke-width:1px;fill:none;stroke-opacity:1;stroke-linecap:round;stroke-linejoin:round;;fill:none"/>
<polyline points="3801.16,1918.78 3800.75,1918.46 3800.74,1918.49 3800.75,1918.46 3790.08,1909.35 3787.4,1906.8 3787.38,1906.82 3787.4,1906.8 3777.76,1896.65 3775.3,1893.76 3775.27,1893.78 3775.3,1893.76 3772.49,1890.11" style="stroke:rgb(255,0,0);stroke-width:39.370079;fill:none;stroke-opacity:0.5;stroke-linecap:round;stroke-linejoin:round;;fill:none"/>
<polyline points="3801.16,1918.78 3800.75,1918.46 3800.74,1918.49 3800.75,1918.46 3790.08,1909.35 3787.4,1906.8 3787.38,1906.82 3787.4,1906.8 3777.76,1896.65 3775.3,1893.76 3775.27,1893.78 3775.3,1893.76 3772.49,1890.11" style="stroke:rgb(0,0,0);stroke-width:1px;fill:none;stroke-opacity:1;stroke-linecap:round;stroke-linejoin:round;;fill:none"/>
<polyline points="3801.16,1918.78 3800.75,1918.46 3800.74,1918.49 3800.75,1918.46 3790.08,1909.35 3787.4,1906.8 3787.38,1906.82 3787.4,1906.8 3777.76,1896.65 3775.3,1893.76 3775.27,1893.78 3775.3,1893.76 3772.49,1890.11" style="stroke:rgb(255,0,0);stroke-width:39.370079;fill:none;stroke-opacity:0.5;stroke-linecap:round;stroke-linejoin:round;;fill:none"/>
<polyline points="3801.16,1918.78 3800.75,1918.46 3800.74,1918.49 3800.75,1918.46 3790.08,1909.35 3787.4,1906.8 3787.38,1906.82 3787.4,1906.8 3777.76,1896.65 3775.3,1893.76 3775.27,1893.78 3775.3,1893.76 3772.49,1890.11" style="stroke:rgb(0,0,0);stroke-width:1px;fill:none;stroke-opacity:1;stroke-linecap:round;stroke-linejoin:round;;fill:none"/>
<polyline points="3801.16,1918.78 3800.75,1918.46 3800.74,1918.49 3800.75,1918.46 3790.08,1909.35 3787.4,1906.8 3787.38,1906.82 3787.4,1906.8 3777.76,1896.65 3775.3,1893.76 3775.27,1893.78 3775.3,1893.76 3772.49,1890.11" style="stroke:rgb(255,0,0);stroke-width:39.370079;fill:none;stroke-opacity:0.5;stroke-linecap:round;stroke-linejoin:round;;fill:none"/>
<polyline points="3801.16,1918.78 3800.75,1918.46 3800.74,1918.49 3800.75,1918.46 3790.08,1909.35 3787.4,1906.8 3787.38,1906.82 3787.4,1906.8 3777.76,1896.65 3775.3,1893.76 3775.27,1893.78 3775.3,1893.76 3772.49,1890.11" style="stroke:rgb(0,0,0);stroke-width:1px;fill:none;stroke-opacity:1;stroke-linecap:round;stroke-linejoin:round;;fill:none"/>
<polyline points="3801.16,1918.78 3800.75,1918.46 3800.74,1918.49 3800.75,1918.46 3790.08,1909.35 3787.4,1906.8 3787.38,1906.82 3787.4,1906.8 3777.76,1896.65 3775.3,1893.76 3775.27,1893.78 3775.3,1893.76 3772.49,1890.11" style="stroke:rgb(255,0,0);stroke-width:39.370079;fill:none;stroke-opacity:0.5;stroke-linecap:round;stroke-linejoin:round;;fill:none"/>
<polyline points="3801.16,1918.78 3800.75,1918.46 3800.74,1918.49 3800.75,1918.46 3790.08,1909.35 3787.4,1906.8 3787.38,1906.82 3787.4,1906.8 3777.76,1896.65 3775.3,1893.76 3775.27,1893.78 3775.3,1893.76 3772.49,1890.11" style="stroke:rgb(0,0,0);stroke-width:1px;fill:none;stroke-opacity:1;stroke-linecap:round;stroke-linejoin:round;;fill:none"/>
<polyline points="3801.16,1918.78 3800.75,1918.46 3800.74,1918.49 3800.75,1918.46 3790.08,1909.35 3787.4,1906.8 3787.38,1906.82 3787.4,1906.8 3777.76,1896.65 3775.3,1893.76 3775.27,1893.78 3775.3,1893.76 3772.49,1890.11" style="stroke:rgb(255,0,0);stroke-width:39.370079;fill:none;stroke-opacity:0.5;stroke-linecap:round;stroke-linejoin:round;;fill:none"/>
<polyline points="3801.16,1918.78 3800.75,1918.46 3800.74,1918.49 3800.75,1918.46 3790.08,1909.35 3787.4,1906.8 3787.38,1906.82 3787.4,1906.8 3777.76,1896.65 3775.3,1893.76 3775.27,1893.78 3775.3,1893.76 3772.49,1890.11" style="stroke:rgb(0,0,0);stroke-width:1px;fill:none;stroke-opacity:1;stroke-linecap:round;stroke-linejoin:round;;fill:none"/>
<polyline points="3801.16,1918.78 3800.75,1918.46 3800.74,1918.49 3800.75,1918.46 3790.08,1909.35 3787.4,1906.8 3787.38,1906.82 3787.4,1906.8 3777.76,1896.65 3775.3,1893.76 3775.27,1893.78 3775.3,1893.76 3772.49,1890.11" style="stroke:rgb(255,0,0);stroke-width:39.370079;fill:none;stroke-opacity:0.5;stroke-linecap:round;stroke-linejoin:round;;fill:none"/>
<polyline points="3801.16,1918.78 3800.75,1918.46 3800.74,1918.49 3800.75,1918.46 3790.08,1909.35 3787.4,1906.8 3787.38,1906.82 3787.4,1906.8 3777.76,1896.65 3775.3,1893.76 3775.27,1893.78 3775.3,1893.76 3772.49,1890.11" style="stroke:rgb(0,0,0);stroke-width:1px;fill:none;stroke-opacity:1;stroke-linecap:round;stroke-linejoin:round;;fill:none"/>
<polyline points="3801.16,1918.78 3800.75,1918.46 3800.74,1918.49 3800.75,1918.46 3790.08,1909.35 3787.4,1906.8 3787.38,1906.82 3787.4,1906.8 3777.76,1896.65 3775.3,1893.76 3775.27,1893.78 3775.3,1893.76 3772.49,1890.11" style="stroke:rgb(255,0,0);stroke-width:39.370079;fill:none;stroke-opacity:0.5;stroke-linecap:round;stroke-linejoin:round;;fill:none"/>
<polyline points="3801.16,1918.78 3800.75,1918.46 3800.74,1918.49 3800.75,1918.46 3790.08,1909.35 3787.4,1906.8 3787.38,1906.82 3787.4,1906.8 3777.76,1896.65 3775.3,1893.76 3775.27,1893.78 3775.3,1893.76 3772.49,1890.11" style="stroke:rgb(0,0,0);stroke-width:1px;fill:none;stroke-opacity:1;stroke-linecap:round;stroke-linejoin:round;;fill:none"/>
<polyline points="3801.16,1918.78 3800.75,1918.46 3800.74,1918.49 3800.75,1918.46 3790.08,1909.35 3787.4,1906.8 3787.38,1906.82 3787.4,1906.8 3777.76,1896.65 3775.3,1893.76 3775.27,1893.78 3775.3,1893.76 3772.49,1890.11" style="stroke:rgb(255,0,0);stroke-width:39.370079;fill:none;stroke-opacity:0.5;stroke-linecap:round;stroke-linejoin:round;;fill:none"/>
<polyline points="3801.16,1918.78 3800.75,1918.46 3800.74,1918.49 3800.75,1918.46 3790.08,1909.35 3787.4,1906.8 3787.38,1906.82 3787.4,1906.8 3777.76,1896.65 3775.3,1893.76 3775.27,1893.78 3775.3,1893.76 3772.49,1890.11" style="stroke:rgb(0,0,0);stroke-width:1px;fill:none;stroke-opacity:1;stroke-linecap:round;stroke-linejoin:round;;fill:none"/>
<polyline points="3801.16,1918.78 3800.75,1918.46 3800.74,1918.49 3800.75,1918.46 3790.08,1909.35 3787.4,1906.8 3787.38,1906.82 3787.4,1906.8 3777.76,1896.65 3775.3,1893.76 3775.27,1893.78 3775.3,1893.76 3772.49,1890.11" style="stroke:rgb(255,0,0);stroke-width:39.370079;fill:none;stroke-opacity:0.5;stroke-linecap:round;stroke-linejoin:round;;fill:none"/>
<polyline points="3801.16,1918.78 3800.75,1918.46 3800.74,1918.49 3800.75,1918.46 3790.08,1909.35 3787.4,1906.8 3787.38,1906.82 3787.4,1906.8 3777.76,1896.65 3775.3,1893.76 3775.27,1893.78 3775.3,1893.76 3772.49,1890.11" style="stroke:rgb(0,0,0);stroke-width:1px;fill:none;stroke-opacity:1;stroke-linecap:round;stroke-linejoin:round;;fill:none"/>
<polyline points="3801.16,1918.78 3800.75,1918.46 3800.74,1918.49 3800.75,1918.46 3790.08,1909.35 3787.4,1906.8 3787.38,1906.82 3787.4,1906.8 3777.76,1896.65 3775.3,1893.76 3775.27,1893.78 3775.3,1893.76 3772.49,1890.11" style="stroke:rgb(255,0,0);stroke-width:39.370079;fill:none;stroke-opacity:0.5;stroke-linecap:round;stroke-linejoin:round;;fill:none"/>
<polyline points="3801.16,1918.78 3800.75,1918.46 3800.74,1918.49 3800.75,1918.46 3790.08,1909.35 3787.4,1906.8 3787.38,1906.82 3787.4,1906.8 3777.76,1896.65 3775.3,1893.76 3775.27,1893.78 3775.3,1893.76 3772.49,1890.11" style="stroke:rgb(0,0,0);stroke-width:1px;fill:none;stroke-opacity:1;stroke-linecap:round;stroke-linejoin:round;;fill:none"/>
<polyline points="3801.16,1918.78 3800.75,1918.46 3800.74,1918.49 3800.75,1918.46 3790.08,1909.35 3787.4,1906.8 3787.38,1906.82 3787.4,1906.8 3777.76,1896.65 3775.3,1893.76 3775.27,1893.78 3775.3,1893.76 3772.49,1890.11" style="stroke:rgb(255,0,0);stroke-width:39.370079;fill:none;stroke-opacity:0.5;stroke-linecap:round;stroke-linejoin:round;;fill:none"/>
<polyline points="3801.16,1918.78 3800.75,1918.46 3800.74,1918.49 3800.75,1918.46 3790.08,1909.35 3787.4,1906.8 3787.38,1906.82 3787.4,1906.8 3777.76,1896.65 3775.3,1893.76 3775.27,1893.78 3775.3,1893.76 3772.49,1890.11" style="stroke:rgb(0,0,0);stroke-width:1px;fill:none;stroke-opacity:1;stroke-linecap:round;stroke-linejoin:round;;fill:none"/>
<polyline points="3801.16,1918.78 3800.75,1918.46 3800.74,1918.49 3800.75,1918.46 3790.08,1909.35 3787.4,1906.8 3787.38,1906.82 3787.4,1906.8 3777.76,1896.65 3775.3,1893.76 3775.27,1893.78 3775.3,1893.76 3772.49,1890.11" style="stroke:rgb(255,0,0);stroke-width:39.370079;fill:none;stroke-opacity:0.5;stroke-linecap:round;stroke-linejoin:round;;fill:none"/>
<polyline points="3801.16,1918.78 3800.75,1918.46 3800.74,1918.49 3800.75,1918.46 3790.08,1909.35 3787.4,1906.8 3787.38,1906.82 3787.4,1906.8 3777.76,1896.65 3775.3,1893.76 3775.27,1893.78 3775.3,1893.76 3772.49,1890.11" style="stroke:rgb(0,0,0);stroke-width:1px;fill:none;stroke-opacity:1;stroke-linecap:round;stroke-linejoin:round;;fill:none"/>
<polyline points="3801.16,1918.78 3800.75,1918.46 3800.74,1918.49 3800.75,1918.46 3790.08,1909.35 3787.4,1906.8 3787.38,1906.82 3787.4,1906.8 3777.76,1896.65 3775.3,1893.76 3775.27,1893.78 3775.3,1893.76 3772.49,1890.11" style="stroke:rgb(255,0,0);stroke-width:39.370079;fill:none;stroke-opacity:0.5;stroke-linecap:round;stroke-linejoin:round;;fill:none"/>
<polyline points="3801.16,1918.78 3800.75,1918.46 3800.74,1918.49 3800.75,1918.46 3790.08,1909.35 3787.4,1906.8 3787.38,1906.82 3787.4,1906.8 3777.76,1896.65 3775.3,1893.76 3775.27,1893.78 3775.3,1893.76 3772.49,1890.11" style="stroke:rgb(0,0,0);stroke-width:1px;fill:none;stroke-opacity:1;stroke-linecap:round;stroke-linejoin:round;;fill:none"/>
<polyline points="3801.16,1918.78 3800.75,1918.46 3800.74,1918.49 3800.75,1918.46 3790.08,1909.35 3787.4,1906.8 3787.38,1906.82 3787.4,1906.8 3777.76,1896.65 3775.3,1893.76 3775.27,1893.78 3775.3,1893.76 3772.49,1890.11" style="stroke:rgb(255,0,0);stroke-width:39.370079;fill:none;stroke-opacity:0.5;stroke-linecap:round;stroke-linejoin:round;;fill:none"/>
<polyline points="3801.16,1918.78 3800.75,1918.46 3800.74,1918.49 3800.75,1918.46 3790.08,1909.35 3787.4,1906.8 3787.38,1906.82 3787.4,1906.8 3777.76,1896.65 3775.3,1893.76 3775.27,1893.78 3775.3,1893.76 3772.49,1890.11" style="stroke:rgb(0,0,0);stroke-width:1px;fill:none;stroke-opacity:1;stroke-linecap:round;stroke-linejoin:round;;fill:none"/>
<polyline points="3801.16,1918.78 3800.75,1918.46 3790.08,1909.35 3790.06,1909.37 3790.08,1909.35 3787.4,1906.8 3777.76,1896.65 3777.74,1896.67 3777.76,1896.65 3775.3,1893.76 3772.49,1890.11" style="stroke:rgb(255,0,0);stroke-width:39.370079;fill:none;stroke-opacity:0.5;stroke-linecap:round;stroke-linejoin:round;;fill:none"/>
<polyline points="3801.16,1918.78 3800.75,1918.46 3790.08,1909.35 3790.06,1909.37 3790.08,1909.35 3787.4,1906.8 3777.76,1896.65 3777.74,1896.67 3777.76,1896.65 3775.3,1893.76 3772.49,1890.11" style="stroke:rgb(0,0,0);stroke-width:1px;fill:none;stroke-opacity:1;stroke-linecap:round;stroke-linejoin:round;;fill:none"/>
<polyline points="3801.16,1918.78 3800.75,1918.46 3800.71,1918.51 3800.75,1918.46 3790.08,1909.35 3787.4,1906.8 3777.76,1896.65 3777.72,1896.69 3777.76,1896.65 3775.3,1893.76 3772.49,1890.11" style="stroke:rgb(255,0,0);stroke-width:39.370079;fill:none;stroke-opacity:0.5;stroke-linecap:round;stroke-linejoin:round;;fill:none"/>
<polyline points="3801.16,1918.78 3800.75,1918.46 3800.71,1918.51 3800.75,1918.46 3790.08,1909.35 3787.4,1906.8 3777.76,1896.65 3777.72,1896.69 3777.76,1896.65 3775.3,1893.76 3772.49,1890.11" style="stroke:rgb(0,0,0);stroke-width:1px;fill:none;stroke-opacity:1;stroke-linecap:round;stroke-linejoin:round;;fill:none"/>
<polyline points="3801.16,1918.78 3800.75,1918.46 3790.08,1909.35 3787.4,1906.8 3777.76,1896.65 3775.3,1893.76 3772.49,1890.11" style="stroke:rgb(255,0,0);stroke-width:39.370079;fill:none;stroke-opacity:0.5;stroke-linecap:round;stroke-linejoin:round;;fill:none"/>
<polyline points="3801.16,1918.78 3800.75,1918.46 3790.08,1909.35 3787.4,1906.8 3777.76,1896.65 3775.3,1893.76 3772.49,1890.11" style="stroke:rgb(0,0,0);stroke-width:1px;fill:none;stroke-opacity:1;stroke-linecap:round;stroke-linejoin:round;;fill:none"/>
</svg>
