<?xml version="1.0" standalone="no"?>
<!DOCTYPE svg PUBLIC "-//W3C//DTD SVG 1.1//EN"
"http://www.w3.org/Graphics/SVG/1.1/DTD/svg11.dtd">
<svg width="234.746" height="263.546" viewBox="0 0 4890.55 5490.55" version="1.1"
xmlns="http://www.w3.org/2000/svg"
xmlns:xlink="http://www.w3.org/1999/xlink">
<circle cx="3845.28" cy="4645.28" r="39.3701" style=""/>
<circle cx="3845.28" cy="4445.28" r="39.3701" style=""/>
<circle cx="3845.28" cy="3845.28" r="39.3701" style=""/>
<circle cx="3845.28" cy="3045.28" r="39.3701" style=""/>
<circle cx="3845.28" cy="2845.28" r="39.3701" style=""/>
<circle cx="3845.28" cy="2645.28" r="39.3701" style=""/>
<circle cx="3845.28" cy="2445.28" r="39.3701" style=""/>
<circle cx="3845.28" cy="2245.28" r="39.3701" style=""/>
<circle cx="3845.28" cy="2045.28" r="39.3701" style=""/>
<circle cx="3845.28" cy="1845.28" r="39.3701" style=""/>
<circle cx="2861.02" cy="1445.28" r="39.3701" style=""/>
<circle cx="2861.02" cy="1645.28" r="39.3701" style=""/>
<circle cx="2861.02" cy="1845.28" r="39.3701" style=""/>
<circle cx="2861.02" cy="2045.28" r="39.3701" style=""/>
<circle cx="2861.02" cy="2245.28" r="39.3701" style=""/>
<circle cx="2861.02" cy="2445.28" r="39.3701" style=""/>
<circle cx="2861.02" cy="2645.28" r="39.3701" style=""/>
<circle cx="2861.02" cy="2845.28" r="39.3701" style=""/>
<circle cx="2861.02" cy="3045.28" r="39.3701" style=""/>
<circle cx="2861.02" cy="3245.28" r="39.3701" style=""/>
<circle cx="2861.02" cy="3445.28" r="39.3701" style=""/>
<circle cx="2861.02" cy="3645.28" r="39.3701" style=""/>
<circle cx="2861.02" cy="3845.28" r="39.3701" style=""/>
<circle cx="2861.02" cy="4045.28" r="39.3701" style=""/>
<circle cx="2861.02" cy="4245.28" r="39.3701" style=""/>
<circle cx="2861.02" cy="4445.28" r="39.3701" style=""/>
<circle cx="2861.02" cy="4645.28" r="39.3701" style=""/>
<circle cx="2861.02" cy="4845.28" r="39.3701" style=""/>
<circle cx="2861.02" cy="5045.28" r="39.3701" style=""/>
<circle cx="2861.02" cy="5245.28" r="39.3701" style=""/>
<circle cx="1076.77" cy="5261.02" r="39.3701" style=""/>
<circle cx="1076.77" cy="5061.02" r="39.3701" style=""/>
<circle cx="1076.77" cy="4861.02" r="39.3701" style=""/>
<circle cx="1076.77" cy="4661.02" r="39.3701" style=""/>
<circle cx="1076.77" cy="4461.02" r="39.3701" style=""/>
<circle cx="1076.77" cy="4261.02" r="39.3701" style=""/>
<circle cx="1076.77" cy="4061.02" r="39.3701" style=""/>
<circle cx="1076.77" cy="3861.02" r="39.3701" style=""/>
<circle cx="1076.77" cy="3661.02" r="39.3701" style=""/>
<circle cx="1076.77" cy="3461.02" r="39.3701" style=""/>
<circle cx="1076.77" cy="3261.02" r="39.3701" style=""/>
<circle cx="1076.77" cy="3061.02" r="39.3701" style=""/>
<circle cx="1076.77" cy="2861.02" r="39.3701" style=""/>
<circle cx="1076.77" cy="2661.02" r="39.3701" style=""/>
<circle cx="1076.77" cy="2461.02" r="39.3701" style=""/>
<circle cx="1076.77" cy="2261.02" r="39.3701" style=""/>
<circle cx="1076.77" cy="2061.02" r="39.3701" style=""/>
<circle cx="1076.77" cy="1861.02" r="39.3701" style=""/>
<circle cx="1076.77" cy="1661.02" r="39.3701" style=""/>
<circle cx="1076.77" cy="1461.02" r="39.3701" style=""/>
<circle cx="4461.02" cy="4961.02" r="125.984" style=""/>
<circle cx="461.024" cy="4961.02" r="125.984" style=""/>
<circle cx="4461.02" cy="461.024" r="125.984" style=""/>
<circle cx="461.024" cy="461.024" r="125.984" style=""/>
</svg>
