<?xml version="1.0" standalone="no"?>
<!DOCTYPE svg PUBLIC "-//W3C//DTD SVG 1.1//EN"
"http://www.w3.org/Graphics/SVG/1.1/DTD/svg11.dtd">
<svg width="234.746" height="263.546" viewBox="0 0 4890.55 5490.55" version="1.1"
xmlns="http://www.w3.org/2000/svg"
xmlns:xlink="http://www.w3.org/1999/xlink">
<g fill-rule="evenodd"><path d="M 3778.35,2645.28 L 3779.81,2631.36 L 3784.13,2618.05 L 3791.13,2605.94 L 3800.49,2595.54 L 3811.81,2587.31 L 3824.59,2581.62 L 3838.28,2578.71 L 3852.27,2578.71 L 3865.96,2581.62 L 3878.74,2587.31 L 3890.06,2595.54 L 3899.42,2605.94 L 3906.42,2618.05 L 3910.74,2631.36 L 3912.2,2645.28 L 3910.74,2659.19 L 3906.42,2672.5 L 3899.42,2684.62 L 3890.06,2695.01 L 3878.74,2703.24 L 3865.96,2708.93 L 3852.27,2711.84 L 3838.28,2711.84 L 3824.59,2708.93 L 3811.81,2703.24 L 3800.49,2695.01 L 3791.13,2684.62 L 3784.13,2672.5 L 3779.81,2659.19 L 3778.35,2645.28 z " style="fill-opacity:1.000000;fill:rgb(103,198,105);stroke:rgb(0,0,0);stroke-width:2"/></g>
<g fill-rule="evenodd"><path d="M 2778.35,5245.28 L 2779.81,5231.36 L 2784.13,5218.05 L 2791.13,5205.94 L 2800.49,5195.54 L 2811.81,5187.31 L 2824.59,5181.62 L 2838.28,5178.71 L 2852.27,5178.71 L 2865.96,5181.62 L 2878.74,5187.31 L 2890.06,5195.54 L 2899.42,5205.94 L 2906.42,5218.05 L 2910.74,5231.36 L 2912.2,5245.28 L 2910.74,5259.19 L 2906.42,5272.5 L 2899.42,5284.62 L 2890.06,5295.01 L 2878.74,5303.24 L 2865.96,5308.93 L 2852.27,5311.84 L 2838.28,5311.84 L 2824.59,5308.93 L 2811.81,5303.24 L 2800.49,5295.01 L 2791.13,5284.62 L 2784.13,5272.5 L 2779.81,5259.19 L 2778.35,5245.28 z " style="fill-opacity:1.000000;fill:rgb(115,81,255);stroke:rgb(0,0,0);stroke-width:2"/></g>
<g fill-rule="evenodd"><path d="M 2778.35,5045.28 L 2779.81,5031.36 L 2784.13,5018.05 L 2791.13,5005.94 L 2800.49,4995.54 L 2811.81,4987.31 L 2824.59,4981.62 L 2838.28,4978.71 L 2852.27,4978.71 L 2865.96,4981.62 L 2878.74,4987.31 L 2890.06,4995.54 L 2899.42,5005.94 L 2906.42,5018.05 L 2910.74,5031.36 L 2912.2,5045.28 L 2910.74,5059.19 L 2906.42,5072.5 L 2899.42,5084.62 L 2890.06,5095.01 L 2878.74,5103.24 L 2865.96,5108.93 L 2852.27,5111.84 L 2838.28,5111.84 L 2824.59,5108.93 L 2811.81,5103.24 L 2800.49,5095.01 L 2791.13,5084.62 L 2784.13,5072.5 L 2779.81,5059.19 L 2778.35,5045.28 z " style="fill-opacity:1.000000;fill:rgb(74,236,41);stroke:rgb(0,0,0);stroke-width:2"/></g>
<g fill-rule="evenodd"><path d="M 2778.35,4845.28 L 2779.81,4831.36 L 2784.13,4818.05 L 2791.13,4805.94 L 2800.49,4795.54 L 2811.81,4787.31 L 2824.59,4781.62 L 2838.28,4778.71 L 2852.27,4778.71 L 2865.96,4781.62 L 2878.74,4787.31 L 2890.06,4795.54 L 2899.42,4805.94 L 2906.42,4818.05 L 2910.74,4831.36 L 2912.2,4845.28 L 2910.74,4859.19 L 2906.42,4872.5 L 2899.42,4884.62 L 2890.06,4895.01 L 2878.74,4903.24 L 2865.96,4908.93 L 2852.27,4911.84 L 2838.28,4911.84 L 2824.59,4908.93 L 2811.81,4903.24 L 2800.49,4895.01 L 2791.13,4884.62 L 2784.13,4872.5 L 2779.81,4859.19 L 2778.35,4845.28 z " style="fill-opacity:1.000000;fill:rgb(205,186,171);stroke:rgb(0,0,0);stroke-width:2"/></g>
<g fill-rule="evenodd"><path d="M 2778.35,4445.28 L 2779.81,4431.36 L 2784.13,4418.05 L 2791.13,4405.94 L 2800.49,4395.54 L 2811.81,4387.31 L 2824.59,4381.62 L 2838.28,4378.71 L 2852.27,4378.71 L 2865.96,4381.62 L 2878.74,4387.31 L 2890.06,4395.54 L 2899.42,4405.94 L 2906.42,4418.05 L 2910.74,4431.36 L 2912.2,4445.28 L 2910.74,4459.19 L 2906.42,4472.5 L 2899.42,4484.62 L 2890.06,4495.01 L 2878.74,4503.24 L 2865.96,4508.93 L 2852.27,4511.84 L 2838.28,4511.84 L 2824.59,4508.93 L 2811.81,4503.24 L 2800.49,4495.01 L 2791.13,4484.62 L 2784.13,4472.5 L 2779.81,4459.19 L 2778.35,4445.28 z " style="fill-opacity:1.000000;fill:rgb(242,251,227);stroke:rgb(0,0,0);stroke-width:2"/></g>
<g fill-rule="evenodd"><path d="M 2778.35,4045.28 L 2779.81,4031.36 L 2784.13,4018.05 L 2791.13,4005.94 L 2800.49,3995.54 L 2811.81,3987.31 L 2824.59,3981.62 L 2838.28,3978.71 L 2852.27,3978.71 L 2865.96,3981.62 L 2878.74,3987.31 L 2890.06,3995.54 L 2899.42,4005.94 L 2906.42,4018.05 L 2910.74,4031.36 L 2912.2,4045.28 L 2910.74,4059.19 L 2906.42,4072.5 L 2899.42,4084.62 L 2890.06,4095.01 L 2878.74,4103.24 L 2865.96,4108.93 L 2852.27,4111.84 L 2838.28,4111.84 L 2824.59,4108.93 L 2811.81,4103.24 L 2800.49,4095.01 L 2791.13,4084.62 L 2784.13,4072.5 L 2779.81,4059.19 L 2778.35,4045.28 z " style="fill-opacity:1.000000;fill:rgb(70,124,194);stroke:rgb(0,0,0);stroke-width:2"/></g>
<g fill-rule="evenodd"><path d="M 2778.35,3645.28 L 2779.81,3631.36 L 2784.13,3618.05 L 2791.13,3605.94 L 2800.49,3595.54 L 2811.81,3587.31 L 2824.59,3581.62 L 2838.28,3578.71 L 2852.27,3578.71 L 2865.96,3581.62 L 2878.74,3587.31 L 2890.06,3595.54 L 2899.42,3605.94 L 2906.42,3618.05 L 2910.74,3631.36 L 2912.2,3645.28 L 2910.74,3659.19 L 2906.42,3672.5 L 2899.42,3684.62 L 2890.06,3695.01 L 2878.74,3703.24 L 2865.96,3708.93 L 2852.27,3711.84 L 2838.28,3711.84 L 2824.59,3708.93 L 2811.81,3703.24 L 2800.49,3695.01 L 2791.13,3684.62 L 2784.13,3672.5 L 2779.81,3659.19 L 2778.35,3645.28 z " style="fill-opacity:1.000000;fill:rgb(84,248,27);stroke:rgb(0,0,0);stroke-width:2"/></g>
<g fill-rule="evenodd"><path d="M 2778.35,3445.28 L 2779.81,3431.36 L 2784.13,3418.05 L 2791.13,3405.94 L 2800.49,3395.54 L 2811.81,3387.31 L 2824.59,3381.62 L 2838.28,3378.71 L 2852.27,3378.71 L 2865.96,3381.62 L 2878.74,3387.31 L 2890.06,3395.54 L 2899.42,3405.94 L 2906.42,3418.05 L 2910.74,3431.36 L 2912.2,3445.28 L 2910.74,3459.19 L 2906.42,3472.5 L 2899.42,3484.62 L 2890.06,3495.01 L 2878.74,3503.24 L 2865.96,3508.93 L 2852.27,3511.84 L 2838.28,3511.84 L 2824.59,3508.93 L 2811.81,3503.24 L 2800.49,3495.01 L 2791.13,3484.62 L 2784.13,3472.5 L 2779.81,3459.19 L 2778.35,3445.28 z " style="fill-opacity:1.000000;fill:rgb(232,231,141);stroke:rgb(0,0,0);stroke-width:2"/></g>
<g fill-rule="evenodd"><path d="M 2778.35,3245.28 L 2779.81,3231.36 L 2784.13,3218.05 L 2791.13,3205.94 L 2800.49,3195.54 L 2811.81,3187.31 L 2824.59,3181.62 L 2838.28,3178.71 L 2852.27,3178.71 L 2865.96,3181.62 L 2878.74,3187.31 L 2890.06,3195.54 L 2899.42,3205.94 L 2906.42,3218.05 L 2910.74,3231.36 L 2912.2,3245.28 L 2910.74,3259.19 L 2906.42,3272.5 L 2899.42,3284.62 L 2890.06,3295.01 L 2878.74,3303.24 L 2865.96,3308.93 L 2852.27,3311.84 L 2838.28,3311.84 L 2824.59,3308.93 L 2811.81,3303.24 L 2800.49,3295.01 L 2791.13,3284.62 L 2784.13,3272.5 L 2779.81,3259.19 L 2778.35,3245.28 z " style="fill-opacity:1.000000;fill:rgb(118,90,46);stroke:rgb(0,0,0);stroke-width:2"/></g>
<g fill-rule="evenodd"><path d="M 2778.35,3045.28 L 2779.81,3031.36 L 2784.13,3018.05 L 2791.13,3005.94 L 2800.49,2995.54 L 2811.81,2987.31 L 2824.59,2981.62 L 2838.28,2978.71 L 2852.27,2978.71 L 2865.96,2981.62 L 2878.74,2987.31 L 2890.06,2995.54 L 2899.42,3005.94 L 2906.42,3018.05 L 2910.74,3031.36 L 2912.2,3045.28 L 2910.74,3059.19 L 2906.42,3072.5 L 2899.42,3084.62 L 2890.06,3095.01 L 2878.74,3103.24 L 2865.96,3108.93 L 2852.27,3111.84 L 2838.28,3111.84 L 2824.59,3108.93 L 2811.81,3103.24 L 2800.49,3095.01 L 2791.13,3084.62 L 2784.13,3072.5 L 2779.81,3059.19 L 2778.35,3045.28 z " style="fill-opacity:1.000000;fill:rgb(99,51,159);stroke:rgb(0,0,0);stroke-width:2"/></g>
<g fill-rule="evenodd"><path d="M 2778.35,2845.28 L 2779.81,2831.36 L 2784.13,2818.05 L 2791.13,2805.94 L 2800.49,2795.54 L 2811.81,2787.31 L 2824.59,2781.62 L 2838.28,2778.71 L 2852.27,2778.71 L 2865.96,2781.62 L 2878.74,2787.31 L 2890.06,2795.54 L 2899.42,2805.94 L 2906.42,2818.05 L 2910.74,2831.36 L 2912.2,2845.28 L 2910.74,2859.19 L 2906.42,2872.5 L 2899.42,2884.62 L 2890.06,2895.01 L 2878.74,2903.24 L 2865.96,2908.93 L 2852.27,2911.84 L 2838.28,2911.84 L 2824.59,2908.93 L 2811.81,2903.24 L 2800.49,2895.01 L 2791.13,2884.62 L 2784.13,2872.5 L 2779.81,2859.19 L 2778.35,2845.28 z " style="fill-opacity:1.000000;fill:rgb(201,154,102);stroke:rgb(0,0,0);stroke-width:2"/></g>
<g fill-rule="evenodd"><path d="M 2778.35,2645.28 L 2779.81,2631.36 L 2784.13,2618.05 L 2791.13,2605.94 L 2800.49,2595.54 L 2811.81,2587.31 L 2824.59,2581.62 L 2838.28,2578.71 L 2852.27,2578.71 L 2865.96,2581.62 L 2878.74,2587.31 L 2890.06,2595.54 L 2899.42,2605.94 L 2906.42,2618.05 L 2910.74,2631.36 L 2912.2,2645.28 L 2910.74,2659.19 L 2906.42,2672.5 L 2899.42,2684.62 L 2890.06,2695.01 L 2878.74,2703.24 L 2865.96,2708.93 L 2852.27,2711.84 L 2838.28,2711.84 L 2824.59,2708.93 L 2811.81,2703.24 L 2800.49,2695.01 L 2791.13,2684.62 L 2784.13,2672.5 L 2779.81,2659.19 L 2778.35,2645.28 z " style="fill-opacity:1.000000;fill:rgb(50,13,183);stroke:rgb(0,0,0);stroke-width:2"/></g>
<g fill-rule="evenodd"><path d="M 2778.35,2445.28 L 2779.81,2431.36 L 2784.13,2418.05 L 2791.13,2405.94 L 2800.49,2395.54 L 2811.81,2387.31 L 2824.59,2381.62 L 2838.28,2378.71 L 2852.27,2378.71 L 2865.96,2381.62 L 2878.74,2387.31 L 2890.06,2395.54 L 2899.42,2405.94 L 2906.42,2418.05 L 2910.74,2431.36 L 2912.2,2445.28 L 2910.74,2459.19 L 2906.42,2472.5 L 2899.42,2484.62 L 2890.06,2495.01 L 2878.74,2503.24 L 2865.96,2508.93 L 2852.27,2511.84 L 2838.28,2511.84 L 2824.59,2508.93 L 2811.81,2503.24 L 2800.49,2495.01 L 2791.13,2484.62 L 2784.13,2472.5 L 2779.81,2459.19 L 2778.35,2445.28 z " style="fill-opacity:1.000000;fill:rgb(49,88,163);stroke:rgb(0,0,0);stroke-width:2"/></g>
<g fill-rule="evenodd"><path d="M 2778.35,2245.28 L 2779.81,2231.36 L 2784.13,2218.05 L 2791.13,2205.94 L 2800.49,2195.54 L 2811.81,2187.31 L 2824.59,2181.62 L 2838.28,2178.71 L 2852.27,2178.71 L 2865.96,2181.62 L 2878.74,2187.31 L 2890.06,2195.54 L 2899.42,2205.94 L 2906.42,2218.05 L 2910.74,2231.36 L 2912.2,2245.28 L 2910.74,2259.19 L 2906.42,2272.5 L 2899.42,2284.62 L 2890.06,2295.01 L 2878.74,2303.24 L 2865.96,2308.93 L 2852.27,2311.84 L 2838.28,2311.84 L 2824.59,2308.93 L 2811.81,2303.24 L 2800.49,2295.01 L 2791.13,2284.62 L 2784.13,2272.5 L 2779.81,2259.19 L 2778.35,2245.28 z " style="fill-opacity:1.000000;fill:rgb(90,37,93);stroke:rgb(0,0,0);stroke-width:2"/></g>
<g fill-rule="evenodd"><path d="M 2778.35,2045.28 L 2779.81,2031.36 L 2784.13,2018.05 L 2791.13,2005.94 L 2800.49,1995.54 L 2811.81,1987.31 L 2824.59,1981.62 L 2838.28,1978.71 L 2852.27,1978.71 L 2865.96,1981.62 L 2878.74,1987.31 L 2890.06,1995.54 L 2899.42,2005.94 L 2906.42,2018.05 L 2910.74,2031.36 L 2912.2,2045.28 L 2910.74,2059.19 L 2906.42,2072.5 L 2899.42,2084.62 L 2890.06,2095.01 L 2878.74,2103.24 L 2865.96,2108.93 L 2852.27,2111.84 L 2838.28,2111.84 L 2824.59,2108.93 L 2811.81,2103.24 L 2800.49,2095.01 L 2791.13,2084.62 L 2784.13,2072.5 L 2779.81,2059.19 L 2778.35,2045.28 z " style="fill-opacity:1.000000;fill:rgb(5,23,88);stroke:rgb(0,0,0);stroke-width:2"/></g>
<g fill-rule="evenodd"><path d="M 2778.35,1845.28 L 2779.81,1831.36 L 2784.13,1818.05 L 2791.13,1805.94 L 2800.49,1795.54 L 2811.81,1787.31 L 2824.59,1781.62 L 2838.28,1778.71 L 2852.27,1778.71 L 2865.96,1781.62 L 2878.74,1787.31 L 2890.06,1795.54 L 2899.42,1805.94 L 2906.42,1818.05 L 2910.74,1831.36 L 2912.2,1845.28 L 2910.74,1859.19 L 2906.42,1872.5 L 2899.42,1884.62 L 2890.06,1895.01 L 2878.74,1903.24 L 2865.96,1908.93 L 2852.27,1911.84 L 2838.28,1911.84 L 2824.59,1908.93 L 2811.81,1903.24 L 2800.49,1895.01 L 2791.13,1884.62 L 2784.13,1872.5 L 2779.81,1859.19 L 2778.35,1845.28 z " style="fill-opacity:1.000000;fill:rgb(233,94,212);stroke:rgb(0,0,0);stroke-width:2"/></g>
<g fill-rule="evenodd"><path d="M 2778.35,1645.28 L 2779.81,1631.36 L 2784.13,1618.05 L 2791.13,1605.94 L 2800.49,1595.54 L 2811.81,1587.31 L 2824.59,1581.62 L 2838.28,1578.71 L 2852.27,1578.71 L 2865.96,1581.62 L 2878.74,1587.31 L 2890.06,1595.54 L 2899.42,1605.94 L 2906.42,1618.05 L 2910.74,1631.36 L 2912.2,1645.28 L 2910.74,1659.19 L 2906.42,1672.5 L 2899.42,1684.62 L 2890.06,1695.01 L 2878.74,1703.24 L 2865.96,1708.93 L 2852.27,1711.84 L 2838.28,1711.84 L 2824.59,1708.93 L 2811.81,1703.24 L 2800.49,1695.01 L 2791.13,1684.62 L 2784.13,1672.5 L 2779.81,1659.19 L 2778.35,1645.28 z " style="fill-opacity:1.000000;fill:rgb(171,178,205);stroke:rgb(0,0,0);stroke-width:2"/></g>
<g fill-rule="evenodd"><path d="M 2912.2,1378.35 L 2912.2,1512.2 L 2778.35,1512.2 L 2778.35,1378.35 L 2912.2,1378.35 z " style="fill-opacity:1.000000;fill:rgb(198,155,180);stroke:rgb(0,0,0);stroke-width:2"/></g>
<g fill-rule="evenodd"><path d="M 778.346,5245.28 L 779.809,5231.36 L 784.133,5218.05 L 791.129,5205.94 L 800.491,5195.54 L 811.811,5187.31 L 824.593,5181.62 L 838.28,5178.71 L 852.272,5178.71 L 865.958,5181.62 L 878.74,5187.31 L 890.06,5195.54 L 899.422,5205.94 L 906.418,5218.05 L 910.742,5231.36 L 912.205,5245.28 L 910.742,5259.19 L 906.418,5272.5 L 899.422,5284.62 L 890.06,5295.01 L 878.74,5303.24 L 865.958,5308.93 L 852.272,5311.84 L 838.28,5311.84 L 824.593,5308.93 L 811.811,5303.24 L 800.491,5295.01 L 791.129,5284.62 L 784.133,5272.5 L 779.809,5259.19 L 778.346,5245.28 z " style="fill-opacity:1.000000;fill:rgb(84,17,14);stroke:rgb(0,0,0);stroke-width:2"/></g>
<g fill-rule="evenodd"><path d="M 778.346,5045.28 L 779.809,5031.36 L 784.133,5018.05 L 791.129,5005.94 L 800.491,4995.54 L 811.811,4987.31 L 824.593,4981.62 L 838.28,4978.71 L 852.272,4978.71 L 865.958,4981.62 L 878.74,4987.31 L 890.06,4995.54 L 899.422,5005.94 L 906.418,5018.05 L 910.742,5031.36 L 912.205,5045.28 L 910.742,5059.19 L 906.418,5072.5 L 899.422,5084.62 L 890.06,5095.01 L 878.74,5103.24 L 865.958,5108.93 L 852.272,5111.84 L 838.28,5111.84 L 824.593,5108.93 L 811.811,5103.24 L 800.491,5095.01 L 791.129,5084.62 L 784.133,5072.5 L 779.809,5059.19 L 778.346,5045.28 z " style="fill-opacity:1.000000;fill:rgb(130,116,65);stroke:rgb(0,0,0);stroke-width:2"/></g>
<g fill-rule="evenodd"><path d="M 778.346,4245.28 L 779.809,4231.36 L 784.133,4218.05 L 791.129,4205.94 L 800.491,4195.54 L 811.811,4187.31 L 824.593,4181.62 L 838.28,4178.71 L 852.272,4178.71 L 865.958,4181.62 L 878.74,4187.31 L 890.06,4195.54 L 899.422,4205.94 L 906.418,4218.05 L 910.742,4231.36 L 912.205,4245.28 L 910.742,4259.19 L 906.418,4272.5 L 899.422,4284.62 L 890.06,4295.01 L 878.74,4303.24 L 865.958,4308.93 L 852.272,4311.84 L 838.28,4311.84 L 824.593,4308.93 L 811.811,4303.24 L 800.491,4295.01 L 791.129,4284.62 L 784.133,4272.5 L 779.809,4259.19 L 778.346,4245.28 z " style="fill-opacity:1.000000;fill:rgb(33,61,220);stroke:rgb(0,0,0);stroke-width:2"/></g>
<g fill-rule="evenodd"><path d="M 778.346,4045.28 L 779.809,4031.36 L 784.133,4018.05 L 791.129,4005.94 L 800.491,3995.54 L 811.811,3987.31 L 824.593,3981.62 L 838.28,3978.71 L 852.272,3978.71 L 865.958,3981.62 L 878.74,3987.31 L 890.06,3995.54 L 899.422,4005.94 L 906.418,4018.05 L 910.742,4031.36 L 912.205,4045.28 L 910.742,4059.19 L 906.418,4072.5 L 899.422,4084.62 L 890.06,4095.01 L 878.74,4103.24 L 865.958,4108.93 L 852.272,4111.84 L 838.28,4111.84 L 824.593,4108.93 L 811.811,4103.24 L 800.491,4095.01 L 791.129,4084.62 L 784.133,4072.5 L 779.809,4059.19 L 778.346,4045.28 z " style="fill-opacity:1.000000;fill:rgb(135,112,233);stroke:rgb(0,0,0);stroke-width:2"/></g>
<g fill-rule="evenodd"><path d="M 778.346,3845.28 L 779.809,3831.36 L 784.133,3818.05 L 791.129,3805.94 L 800.491,3795.54 L 811.811,3787.31 L 824.593,3781.62 L 838.28,3778.71 L 852.272,3778.71 L 865.958,3781.62 L 878.74,3787.31 L 890.06,3795.54 L 899.422,3805.94 L 906.418,3818.05 L 910.742,3831.36 L 912.205,3845.28 L 910.742,3859.19 L 906.418,3872.5 L 899.422,3884.62 L 890.06,3895.01 L 878.74,3903.24 L 865.958,3908.93 L 852.272,3911.84 L 838.28,3911.84 L 824.593,3908.93 L 811.811,3903.24 L 800.491,3895.01 L 791.129,3884.62 L 784.133,3872.5 L 779.809,3859.19 L 778.346,3845.28 z " style="fill-opacity:1.000000;fill:rgb(62,161,65);stroke:rgb(0,0,0);stroke-width:2"/></g>
<g fill-rule="evenodd"><path d="M 778.346,3645.28 L 779.809,3631.36 L 784.133,3618.05 L 791.129,3605.94 L 800.491,3595.54 L 811.811,3587.31 L 824.593,3581.62 L 838.28,3578.71 L 852.272,3578.71 L 865.958,3581.62 L 878.74,3587.31 L 890.06,3595.54 L 899.422,3605.94 L 906.418,3618.05 L 910.742,3631.36 L 912.205,3645.28 L 910.742,3659.19 L 906.418,3672.5 L 899.422,3684.62 L 890.06,3695.01 L 878.74,3703.24 L 865.958,3708.93 L 852.272,3711.84 L 838.28,3711.84 L 824.593,3708.93 L 811.811,3703.24 L 800.491,3695.01 L 791.129,3684.62 L 784.133,3672.5 L 779.809,3659.19 L 778.346,3645.28 z " style="fill-opacity:1.000000;fill:rgb(225,252,103);stroke:rgb(0,0,0);stroke-width:2"/></g>
<g fill-rule="evenodd"><path d="M 778.346,2845.28 L 779.809,2831.36 L 784.133,2818.05 L 791.129,2805.94 L 800.491,2795.54 L 811.811,2787.31 L 824.593,2781.62 L 838.28,2778.71 L 852.272,2778.71 L 865.958,2781.62 L 878.74,2787.31 L 890.06,2795.54 L 899.422,2805.94 L 906.418,2818.05 L 910.742,2831.36 L 912.205,2845.28 L 910.742,2859.19 L 906.418,2872.5 L 899.422,2884.62 L 890.06,2895.01 L 878.74,2903.24 L 865.958,2908.93 L 852.272,2911.84 L 838.28,2911.84 L 824.593,2908.93 L 811.811,2903.24 L 800.491,2895.01 L 791.129,2884.62 L 784.133,2872.5 L 779.809,2859.19 L 778.346,2845.28 z " style="fill-opacity:1.000000;fill:rgb(62,1,126);stroke:rgb(0,0,0);stroke-width:2"/></g>
<g fill-rule="evenodd"><path d="M 778.346,2645.28 L 779.809,2631.36 L 784.133,2618.05 L 791.129,2605.94 L 800.491,2595.54 L 811.811,2587.31 L 824.593,2581.62 L 838.28,2578.71 L 852.272,2578.71 L 865.958,2581.62 L 878.74,2587.31 L 890.06,2595.54 L 899.422,2605.94 L 906.418,2618.05 L 910.742,2631.36 L 912.205,2645.28 L 910.742,2659.19 L 906.418,2672.5 L 899.422,2684.62 L 890.06,2695.01 L 878.74,2703.24 L 865.958,2708.93 L 852.272,2711.84 L 838.28,2711.84 L 824.593,2708.93 L 811.811,2703.24 L 800.491,2695.01 L 791.129,2684.62 L 784.133,2672.5 L 779.809,2659.19 L 778.346,2645.28 z " style="fill-opacity:1.000000;fill:rgb(151,234,220);stroke:rgb(0,0,0);stroke-width:2"/></g>
<g fill-rule="evenodd"><path d="M 778.346,2445.28 L 779.809,2431.36 L 784.133,2418.05 L 791.129,2405.94 L 800.491,2395.54 L 811.811,2387.31 L 824.593,2381.62 L 838.28,2378.71 L 852.272,2378.71 L 865.958,2381.62 L 878.74,2387.31 L 890.06,2395.54 L 899.422,2405.94 L 906.418,2418.05 L 910.742,2431.36 L 912.205,2445.28 L 910.742,2459.19 L 906.418,2472.5 L 899.422,2484.62 L 890.06,2495.01 L 878.74,2503.24 L 865.958,2508.93 L 852.272,2511.84 L 838.28,2511.84 L 824.593,2508.93 L 811.811,2503.24 L 800.491,2495.01 L 791.129,2484.62 L 784.133,2472.5 L 779.809,2459.19 L 778.346,2445.28 z " style="fill-opacity:1.000000;fill:rgb(107,150,143);stroke:rgb(0,0,0);stroke-width:2"/></g>
<g fill-rule="evenodd"><path d="M 778.346,2245.28 L 779.809,2231.36 L 784.133,2218.05 L 791.129,2205.94 L 800.491,2195.54 L 811.811,2187.31 L 824.593,2181.62 L 838.28,2178.71 L 852.272,2178.71 L 865.958,2181.62 L 878.74,2187.31 L 890.06,2195.54 L 899.422,2205.94 L 906.418,2218.05 L 910.742,2231.36 L 912.205,2245.28 L 910.742,2259.19 L 906.418,2272.5 L 899.422,2284.62 L 890.06,2295.01 L 878.74,2303.24 L 865.958,2308.93 L 852.272,2311.84 L 838.28,2311.84 L 824.593,2308.93 L 811.811,2303.24 L 800.491,2295.01 L 791.129,2284.62 L 784.133,2272.5 L 779.809,2259.19 L 778.346,2245.28 z " style="fill-opacity:1.000000;fill:rgb(56,92,42);stroke:rgb(0,0,0);stroke-width:2"/></g>
<g fill-rule="evenodd"><path d="M 778.346,2045.28 L 779.809,2031.36 L 784.133,2018.05 L 791.129,2005.94 L 800.491,1995.54 L 811.811,1987.31 L 824.593,1981.62 L 838.28,1978.71 L 852.272,1978.71 L 865.958,1981.62 L 878.74,1987.31 L 890.06,1995.54 L 899.422,2005.94 L 906.418,2018.05 L 910.742,2031.36 L 912.205,2045.28 L 910.742,2059.19 L 906.418,2072.5 L 899.422,2084.62 L 890.06,2095.01 L 878.74,2103.24 L 865.958,2108.93 L 852.272,2111.84 L 838.28,2111.84 L 824.593,2108.93 L 811.811,2103.24 L 800.491,2095.01 L 791.129,2084.62 L 784.133,2072.5 L 779.809,2059.19 L 778.346,2045.28 z " style="fill-opacity:1.000000;fill:rgb(236,176,59);stroke:rgb(0,0,0);stroke-width:2"/></g>
<g fill-rule="evenodd"><path d="M 778.346,1845.28 L 779.809,1831.36 L 784.133,1818.05 L 791.129,1805.94 L 800.491,1795.54 L 811.811,1787.31 L 824.593,1781.62 L 838.28,1778.71 L 852.272,1778.71 L 865.958,1781.62 L 878.74,1787.31 L 890.06,1795.54 L 899.422,1805.94 L 906.418,1818.05 L 910.742,1831.36 L 912.205,1845.28 L 910.742,1859.19 L 906.418,1872.5 L 899.422,1884.62 L 890.06,1895.01 L 878.74,1903.24 L 865.958,1908.93 L 852.272,1911.84 L 838.28,1911.84 L 824.593,1908.93 L 811.811,1903.24 L 800.491,1895.01 L 791.129,1884.62 L 784.133,1872.5 L 779.809,1859.19 L 778.346,1845.28 z " style="fill-opacity:1.000000;fill:rgb(251,50,175);stroke:rgb(0,0,0);stroke-width:2"/></g>
<g fill-rule="evenodd"><path d="M 778.346,1645.28 L 779.809,1631.36 L 784.133,1618.05 L 791.129,1605.94 L 800.491,1595.54 L 811.811,1587.31 L 824.593,1581.62 L 838.28,1578.71 L 852.272,1578.71 L 865.958,1581.62 L 878.74,1587.31 L 890.06,1595.54 L 899.422,1605.94 L 906.418,1618.05 L 910.742,1631.36 L 912.205,1645.28 L 910.742,1659.19 L 906.418,1672.5 L 899.422,1684.62 L 890.06,1695.01 L 878.74,1703.24 L 865.958,1708.93 L 852.272,1711.84 L 838.28,1711.84 L 824.593,1708.93 L 811.811,1703.24 L 800.491,1695.01 L 791.129,1684.62 L 784.133,1672.5 L 779.809,1659.19 L 778.346,1645.28 z " style="fill-opacity:1.000000;fill:rgb(60,84,236);stroke:rgb(0,0,0);stroke-width:2"/></g>
<g fill-rule="evenodd"><path d="M 912.205,1378.35 L 912.205,1512.2 L 778.346,1512.2 L 778.346,1378.35 L 912.205,1378.35 z " style="fill-opacity:1.000000;fill:rgb(24,219,92);stroke:rgb(0,0,0);stroke-width:2"/></g>
<g fill-rule="evenodd"><path d="M 3912.2,4645.28 L 3910.74,4659.19 L 3906.42,4672.5 L 3899.42,4684.62 L 3890.06,4695.01 L 3878.74,4703.24 L 3865.96,4708.93 L 3852.27,4711.84 L 3838.28,4711.84 L 3824.59,4708.93 L 3811.81,4703.24 L 3800.49,4695.01 L 3791.16,4684.65 L 2899.4,4684.65 L 2890.06,4695.01 L 2878.74,4703.24 L 2865.96,4708.93 L 2852.27,4711.84 L 2838.28,4711.84 L 2824.59,4708.93 L 2811.81,4703.24 L 2800.49,4695.01 L 2791.13,4684.62 L 2784.13,4672.5 L 2779.81,4659.19 L 2778.35,4645.28 L 2779.81,4631.36 L 2784.13,4618.05 L 2791.13,4605.94 L 2800.49,4595.54 L 2811.81,4587.31 L 2824.59,4581.62 L 2838.28,4578.71 L 2852.27,4578.71 L 2865.96,4581.62 L 2878.74,4587.31 L 2890.06,4595.54 L 2899.4,4605.91 L 3791.16,4605.91 L 3800.49,4595.54 L 3811.81,4587.31 L 3824.59,4581.62 L 3838.28,4578.71 L 3852.27,4578.71 L 3865.96,4581.62 L 3878.74,4587.31 L 3890.06,4595.54 L 3899.42,4605.94 L 3906.42,4618.05 L 3910.74,4631.36 L 3912.2,4645.28 z " style="fill-opacity:1.000000;fill:rgb(2,26,254);stroke:rgb(0,0,0);stroke-width:2"/></g>
<g fill-rule="evenodd"><path d="M 3912.2,4512.2 L 3778.35,4512.2 L 3778.35,4434.02 L 3628.97,4284.65 L 2899.4,4284.65 L 2890.06,4295.01 L 2878.74,4303.24 L 2865.96,4308.93 L 2852.27,4311.84 L 2838.28,4311.84 L 2824.59,4308.93 L 2811.81,4303.24 L 2800.49,4295.01 L 2791.13,4284.62 L 2784.13,4272.5 L 2779.81,4259.19 L 2778.35,4245.28 L 2779.81,4231.36 L 2784.13,4218.05 L 2791.13,4205.94 L 2800.49,4195.54 L 2811.81,4187.31 L 2824.59,4181.62 L 2838.28,4178.71 L 2852.27,4178.71 L 2865.96,4181.62 L 2878.74,4187.31 L 2890.06,4195.54 L 2899.4,4205.91 L 3645.28,4205.91 L 3652.96,4206.66 L 3660.34,4208.9 L 3667.15,4212.54 L 3673.11,4217.44 L 3834.02,4378.35 L 3912.2,4378.35 L 3912.2,4512.2 z " style="fill-opacity:1.000000;fill:rgb(67,251,250);stroke:rgb(0,0,0);stroke-width:2"/></g>
<g fill-rule="evenodd"><path d="M 3912.2,3778.35 L 3912.2,3912.2 L 3778.35,3912.2 L 3778.35,3884.65 L 2899.4,3884.65 L 2890.06,3895.01 L 2878.74,3903.24 L 2865.96,3908.93 L 2852.27,3911.84 L 2838.28,3911.84 L 2824.59,3908.93 L 2811.81,3903.24 L 2800.49,3895.01 L 2791.13,3884.62 L 2784.13,3872.5 L 2779.81,3859.19 L 2778.35,3845.28 L 2779.81,3831.36 L 2784.13,3818.05 L 2791.13,3805.94 L 2800.49,3795.54 L 2811.81,3787.31 L 2824.59,3781.62 L 2838.28,3778.71 L 2852.27,3778.71 L 2865.96,3781.62 L 2878.74,3787.31 L 2890.06,3795.54 L 2899.4,3805.91 L 3778.35,3805.91 L 3778.35,3778.35 L 3912.2,3778.35 z " style="fill-opacity:1.000000;fill:rgb(170,58,251);stroke:rgb(0,0,0);stroke-width:2"/></g>
<g fill-rule="evenodd"><path d="M 791.129,4884.62 L 784.133,4872.5 L 779.809,4859.19 L 778.346,4845.28 L 779.809,4831.36 L 784.133,4818.05 L 791.129,4805.94 L 800.491,4795.54 L 811.811,4787.31 L 824.593,4781.62 L 838.28,4778.71 L 852.272,4778.71 L 865.958,4781.62 L 878.74,4787.31 L 890.06,4795.54 L 899.395,4805.91 L 2428.97,4805.91 L 2605.91,4628.97 L 2605.91,1412.21 L 2606.39,1406.05 L 2607.83,1400.04 L 2610.2,1394.33 L 2613.42,1389.06 L 2617.44,1384.37 L 2784.37,1217.44 L 2790.33,1212.54 L 2797.14,1208.9 L 2804.53,1206.66 L 2812.21,1205.91 L 2878.35,1205.91 L 2884.51,1206.39 L 2890.51,1207.83 L 2896.22,1210.2 L 2901.49,1213.42 L 2906.19,1217.44 L 3073.11,1384.37 L 3078.01,1390.33 L 3081.65,1397.14 L 3083.89,1404.52 L 3084.65,1412.21 L 3084.65,2828.97 L 3261.58,3005.91 L 3778.35,3005.91 L 3778.35,2978.35 L 3912.2,2978.35 L 3912.2,3112.2 L 3778.35,3112.2 L 3778.35,3084.65 L 3245.28,3084.65 L 3237.59,3083.89 L 3230.21,3081.65 L 3223.4,3078.01 L 3217.44,3073.11 L 3017.44,2873.11 L 3012.54,2867.15 L 3008.9,2860.34 L 3006.66,2852.96 L 3005.91,2845.28 L 3005.91,1428.51 L 2862.04,1284.65 L 2828.52,1284.65 L 2684.65,1428.51 L 2684.65,4645.28 L 2683.89,4652.96 L 2681.65,4660.34 L 2678.01,4667.15 L 2673.11,4673.11 L 2473.11,4873.11 L 2468.42,4877.13 L 2463.15,4880.35 L 2457.44,4882.72 L 2451.43,4884.16 L 2445.28,4884.65 L 899.395,4884.65 L 890.06,4895.01 L 878.74,4903.24 L 865.958,4908.93 L 852.272,4911.84 L 838.28,4911.84 L 824.593,4908.93 L 811.811,4903.24 L 800.491,4895.01 L 791.129,4884.62 z " style="fill-opacity:1.000000;fill:rgb(41,209,230);stroke:rgb(0,0,0);stroke-width:2"/></g>
<g fill-rule="evenodd"><path d="M 791.129,4684.62 L 784.133,4672.5 L 779.809,4659.19 L 778.346,4645.28 L 779.809,4631.36 L 784.133,4618.05 L 791.129,4605.94 L 800.491,4595.54 L 811.811,4587.31 L 824.593,4581.62 L 838.28,4578.71 L 852.272,4578.71 L 865.958,4581.62 L 878.74,4587.31 L 890.06,4595.54 L 899.395,4605.91 L 2228.97,4605.91 L 2405.91,4428.97 L 2405.91,1245.28 L 2406.66,1237.59 L 2408.9,1230.21 L 2412.54,1223.4 L 2417.44,1217.44 L 2617.44,1017.44 L 2623.4,1012.54 L 2630.21,1008.9 L 2637.59,1006.66 L 2645.28,1005.91 L 3045.28,1005.91 L 3052.96,1006.66 L 3060.34,1008.9 L 3067.15,1012.54 L 3073.11,1017.44 L 3273.11,1217.44 L 3278.01,1223.4 L 3281.65,1230.21 L 3283.89,1237.59 L 3284.65,1245.28 L 3284.65,2628.97 L 3461.58,2805.91 L 3791.16,2805.91 L 3800.49,2795.54 L 3811.81,2787.31 L 3824.59,2781.62 L 3838.28,2778.71 L 3852.27,2778.71 L 3865.96,2781.62 L 3878.74,2787.31 L 3890.06,2795.54 L 3899.42,2805.94 L 3906.42,2818.05 L 3910.74,2831.36 L 3912.2,2845.28 L 3910.74,2859.19 L 3906.42,2872.5 L 3899.42,2884.62 L 3890.06,2895.01 L 3878.74,2903.24 L 3865.96,2908.93 L 3852.27,2911.84 L 3838.28,2911.84 L 3824.59,2908.93 L 3811.81,2903.24 L 3800.49,2895.01 L 3791.16,2884.65 L 3445.28,2884.65 L 3437.59,2883.89 L 3430.21,2881.65 L 3423.4,2878.01 L 3417.44,2873.11 L 3217.44,2673.11 L 3212.54,2667.15 L 3208.9,2660.34 L 3206.66,2652.96 L 3205.91,2645.28 L 3205.91,1261.58 L 3028.97,1084.65 L 2661.58,1084.65 L 2484.65,1261.58 L 2484.65,4445.28 L 2483.89,4452.96 L 2481.65,4460.34 L 2478.01,4467.15 L 2473.11,4473.11 L 2273.11,4673.11 L 2268.42,4677.13 L 2263.15,4680.35 L 2257.44,4682.72 L 2251.43,4684.16 L 2245.28,4684.65 L 899.395,4684.65 L 890.06,4695.01 L 878.74,4703.24 L 865.958,4708.93 L 852.272,4711.84 L 838.28,4711.84 L 824.593,4708.93 L 811.811,4703.24 L 800.491,4695.01 L 791.129,4684.62 z " style="fill-opacity:1.000000;fill:rgb(5,60,124);stroke:rgb(0,0,0);stroke-width:2"/></g>
<g fill-rule="evenodd"><path d="M 784.133,3272.5 L 779.809,3259.19 L 778.346,3245.28 L 779.809,3231.36 L 784.133,3218.05 L 791.129,3205.94 L 800.491,3195.54 L 811.811,3187.31 L 824.593,3181.62 L 838.28,3178.71 L 852.272,3178.71 L 865.958,3181.62 L 878.74,3187.31 L 890.06,3195.54 L 899.395,3205.91 L 1628.97,3205.91 L 1805.91,3028.97 L 1805.91,645.276 L 1806.66,637.595 L 1808.9,630.209 L 1812.54,623.403 L 1817.44,617.437 L 2017.44,417.437 L 2023.4,412.541 L 2030.21,408.902 L 2037.59,406.662 L 2045.28,405.906 L 3645.28,405.906 L 3652.96,406.662 L 3660.34,408.902 L 3667.15,412.541 L 3673.11,417.437 L 3873.11,617.437 L 3878.01,623.403 L 3881.65,630.209 L 3883.89,637.595 L 3884.65,645.276 L 3884.65,1791.6 L 3890.06,1795.54 L 3899.42,1805.94 L 3906.42,1818.05 L 3910.74,1831.36 L 3912.2,1845.28 L 3910.74,1859.19 L 3906.42,1872.5 L 3899.42,1884.62 L 3890.06,1895.01 L 3878.74,1903.24 L 3865.96,1908.93 L 3852.27,1911.84 L 3838.28,1911.84 L 3824.59,1908.93 L 3811.81,1903.24 L 3800.49,1895.01 L 3791.13,1884.62 L 3784.13,1872.5 L 3779.81,1859.19 L 3778.35,1845.28 L 3779.81,1831.36 L 3784.13,1818.05 L 3791.13,1805.94 L 3800.49,1795.54 L 3805.91,1791.6 L 3805.91,661.583 L 3628.97,484.646 L 2061.58,484.646 L 1884.65,661.583 L 1884.65,3045.28 L 1883.89,3052.96 L 1881.65,3060.34 L 1878.01,3067.15 L 1873.11,3073.11 L 1673.11,3273.11 L 1667.15,3278.01 L 1660.34,3281.65 L 1652.96,3283.89 L 1645.28,3284.65 L 899.395,3284.65 L 890.06,3295.01 L 878.74,3303.24 L 865.958,3308.93 L 852.272,3311.84 L 838.28,3311.84 L 824.593,3308.93 L 811.811,3303.24 L 800.491,3295.01 L 791.129,3284.62 L 784.133,3272.5 z " style="fill-opacity:1.000000;fill:rgb(148,117,216);stroke:rgb(0,0,0);stroke-width:2"/></g>
<g fill-rule="evenodd"><path d="M 784.133,3472.5 L 779.809,3459.19 L 778.346,3445.28 L 779.809,3431.36 L 784.133,3418.05 L 791.129,3405.94 L 800.491,3395.54 L 811.811,3387.31 L 824.593,3381.62 L 838.28,3378.71 L 852.272,3378.71 L 865.958,3381.62 L 878.74,3387.31 L 890.06,3395.54 L 899.397,3405.91 L 1828.97,3405.91 L 2005.91,3228.97 L 2005.91,845.276 L 2006.66,837.595 L 2008.9,830.209 L 2012.54,823.403 L 2017.44,817.437 L 2217.44,617.437 L 2223.4,612.541 L 2230.21,608.902 L 2237.59,606.662 L 2245.28,605.906 L 3445.28,605.906 L 3452.96,606.662 L 3460.34,608.902 L 3467.15,612.541 L 3473.11,617.437 L 3673.11,817.437 L 3678.01,823.403 L 3681.65,830.209 L 3683.89,837.595 L 3684.65,845.276 L 3684.65,1828.97 L 3835.07,1979.39 L 3838.28,1978.71 L 3852.27,1978.71 L 3865.96,1981.62 L 3878.74,1987.31 L 3890.06,1995.54 L 3899.42,2005.94 L 3906.42,2018.05 L 3910.74,2031.36 L 3912.2,2045.28 L 3910.74,2059.19 L 3906.42,2072.5 L 3899.42,2084.62 L 3890.06,2095.01 L 3878.74,2103.24 L 3865.96,2108.93 L 3852.27,2111.84 L 3838.28,2111.84 L 3824.59,2108.93 L 3811.81,2103.24 L 3800.49,2095.01 L 3791.13,2084.62 L 3784.13,2072.5 L 3779.81,2059.19 L 3778.35,2045.28 L 3779.42,2035.09 L 3617.44,1873.11 L 3612.54,1867.15 L 3608.9,1860.34 L 3606.66,1852.96 L 3605.91,1845.28 L 3605.91,861.583 L 3428.97,684.646 L 2261.58,684.646 L 2084.65,861.583 L 2084.65,3245.28 L 2083.89,3252.96 L 2081.65,3260.34 L 2078.01,3267.15 L 2073.11,3273.11 L 1873.11,3473.12 L 1868.42,3477.13 L 1863.15,3480.36 L 1857.44,3482.72 L 1851.43,3484.16 L 1845.28,3484.65 L 899.393,3484.65 L 890.06,3495.01 L 878.74,3503.24 L 865.958,3508.93 L 852.272,3511.84 L 838.28,3511.84 L 824.593,3508.93 L 811.811,3503.24 L 800.491,3495.01 L 791.129,3484.62 L 784.133,3472.5 z " style="fill-opacity:1.000000;fill:rgb(190,97,137);stroke:rgb(0,0,0);stroke-width:2"/></g>
<g fill-rule="evenodd"><path d="M 791.129,4484.62 L 784.133,4472.5 L 779.809,4459.19 L 778.346,4445.28 L 779.809,4431.36 L 784.133,4418.05 L 791.129,4405.94 L 800.491,4395.54 L 811.811,4387.31 L 824.593,4381.62 L 838.28,4378.71 L 852.272,4378.71 L 865.958,4381.62 L 878.74,4387.31 L 890.06,4395.54 L 899.395,4405.91 L 2028.97,4405.91 L 2205.91,4228.97 L 2205.91,1045.28 L 2206.66,1037.59 L 2208.9,1030.21 L 2212.54,1023.4 L 2217.44,1017.44 L 2417.44,817.437 L 2423.4,812.541 L 2430.21,808.902 L 2437.59,806.662 L 2445.28,805.906 L 3245.28,805.906 L 3252.96,806.662 L 3260.34,808.902 L 3267.15,812.541 L 3273.11,817.437 L 3473.11,1017.44 L 3478.01,1023.4 L 3481.65,1030.21 L 3483.89,1037.59 L 3484.65,1045.28 L 3484.65,2228.97 L 3661.58,2405.91 L 3791.16,2405.91 L 3800.49,2395.54 L 3811.81,2387.31 L 3824.59,2381.62 L 3838.28,2378.71 L 3852.27,2378.71 L 3865.96,2381.62 L 3878.74,2387.31 L 3890.06,2395.54 L 3899.42,2405.94 L 3906.42,2418.05 L 3910.74,2431.36 L 3912.2,2445.28 L 3910.74,2459.19 L 3906.42,2472.5 L 3899.42,2484.62 L 3890.06,2495.01 L 3878.74,2503.24 L 3865.96,2508.93 L 3852.27,2511.84 L 3838.28,2511.84 L 3824.59,2508.93 L 3811.81,2503.24 L 3800.49,2495.01 L 3791.16,2484.65 L 3645.28,2484.65 L 3637.59,2483.89 L 3630.21,2481.65 L 3623.4,2478.01 L 3617.44,2473.11 L 3417.44,2273.11 L 3412.54,2267.15 L 3408.9,2260.34 L 3406.66,2252.96 L 3405.91,2245.28 L 3405.91,1061.58 L 3228.97,884.646 L 2461.58,884.646 L 2284.65,1061.58 L 2284.65,4245.28 L 2283.89,4252.96 L 2281.65,4260.34 L 2278.01,4267.15 L 2273.11,4273.11 L 2073.11,4473.11 L 2067.15,4478.01 L 2060.34,4481.65 L 2052.96,4483.89 L 2045.28,4484.65 L 899.395,4484.65 L 890.06,4495.01 L 878.74,4503.24 L 865.958,4508.93 L 852.272,4511.84 L 838.28,4511.84 L 824.593,4508.93 L 811.811,4503.24 L 800.491,4495.01 L 791.129,4484.62 z " style="fill-opacity:1.000000;fill:rgb(249,92,187);stroke:rgb(0,0,0);stroke-width:2"/></g>
<g fill-rule="evenodd"><path d="M 779.809,3059.19 L 778.346,3045.28 L 779.809,3031.36 L 784.133,3018.05 L 791.129,3005.94 L 800.491,2995.54 L 811.811,2987.31 L 824.593,2981.62 L 838.28,2978.71 L 852.272,2978.71 L 865.958,2981.62 L 878.74,2987.31 L 890.06,2995.54 L 899.395,3005.91 L 1428.97,3005.91 L 1605.91,2828.97 L 1605.91,445.276 L 1606.66,437.595 L 1608.9,430.209 L 1612.54,423.403 L 1617.44,417.437 L 1817.44,217.437 L 1823.4,212.541 L 1830.21,208.902 L 1837.59,206.662 L 1845.28,205.906 L 3750.79,205.906 L 3756.95,206.39 L 3762.95,207.832 L 3768.66,210.197 L 3773.93,213.425 L 3778.63,217.437 L 4073.11,511.927 L 4078.01,517.893 L 4081.65,524.699 L 4083.89,532.085 L 4084.65,539.766 L 4084.65,2181.81 L 4084.16,2187.97 L 4082.72,2193.98 L 4080.35,2199.69 L 4077.13,2204.95 L 4073.11,2209.65 L 4009.65,2273.11 L 4003.68,2278.01 L 3996.88,2281.65 L 3989.49,2283.89 L 3981.81,2284.65 L 3899.4,2284.65 L 3890.06,2295.01 L 3878.74,2303.24 L 3865.96,2308.93 L 3852.27,2311.84 L 3838.28,2311.84 L 3824.59,2308.93 L 3811.81,2303.24 L 3800.49,2295.01 L 3791.13,2284.62 L 3784.13,2272.5 L 3779.81,2259.19 L 3778.35,2245.28 L 3779.81,2231.36 L 3784.13,2218.05 L 3791.13,2205.94 L 3800.49,2195.54 L 3811.81,2187.31 L 3824.59,2181.62 L 3838.28,2178.71 L 3852.27,2178.71 L 3865.96,2181.62 L 3878.74,2187.31 L 3890.06,2195.54 L 3899.4,2205.91 L 3965.5,2205.91 L 4005.91,2165.5 L 4005.91,556.073 L 3734.48,284.646 L 1861.58,284.646 L 1684.65,461.583 L 1684.65,2845.28 L 1683.89,2852.96 L 1681.65,2860.34 L 1678.01,2867.15 L 1673.11,2873.11 L 1473.11,3073.11 L 1467.15,3078.01 L 1460.34,3081.65 L 1452.96,3083.89 L 1445.28,3084.65 L 899.395,3084.65 L 890.06,3095.01 L 878.74,3103.24 L 865.958,3108.93 L 852.272,3111.84 L 838.28,3111.84 L 824.593,3108.93 L 811.811,3103.24 L 800.491,3095.01 L 791.129,3084.62 L 784.133,3072.5 L 779.809,3059.19 z " style="fill-opacity:1.000000;fill:rgb(168,153,15);stroke:rgb(0,0,0);stroke-width:2"/></g>
</svg>
