<?xml version="1.0" standalone="no"?>
<!DOCTYPE svg PUBLIC "-//W3C//DTD SVG 1.1//EN"
"http://www.w3.org/Graphics/SVG/1.1/DTD/svg11.dtd">
<svg width="253.946" height="219.591" viewBox="0 0 5290.55 4574.8" version="1.1"
xmlns="http://www.w3.org/2000/svg"
xmlns:xlink="http://www.w3.org/1999/xlink">
<g fill-rule="evenodd"><path d="M 678.346,1145.28 L 679.809,1131.36 L 684.133,1118.05 L 691.129,1105.94 L 700.491,1095.54 L 711.811,1087.31 L 724.593,1081.62 L 738.28,1078.71 L 752.272,1078.71 L 765.958,1081.62 L 778.74,1087.31 L 790.06,1095.54 L 799.422,1105.94 L 806.418,1118.05 L 810.742,1131.36 L 812.205,1145.28 L 810.742,1159.19 L 806.418,1172.5 L 799.422,1184.62 L 790.06,1195.01 L 778.74,1203.24 L 765.958,1208.93 L 752.272,1211.84 L 738.28,1211.84 L 724.593,1208.93 L 711.811,1203.24 L 700.491,1195.01 L 691.129,1184.62 L 684.133,1172.5 L 679.809,1159.19 L 678.346,1145.28 z " style="fill-opacity:1.000000;fill:rgb(103,198,105);stroke:rgb(0,0,0);stroke-width:2"/></g>
<g fill-rule="evenodd"><path d="M 3778.35,4229.53 L 3779.81,4215.61 L 3784.13,4202.31 L 3791.13,4190.19 L 3800.49,4179.79 L 3811.81,4171.57 L 3824.59,4165.87 L 3838.28,4162.97 L 3852.27,4162.97 L 3865.96,4165.87 L 3878.74,4171.57 L 3890.06,4179.79 L 3899.42,4190.19 L 3906.42,4202.31 L 3910.74,4215.61 L 3912.2,4229.53 L 3910.74,4243.44 L 3906.42,4256.75 L 3899.42,4268.87 L 3890.06,4279.27 L 3878.74,4287.49 L 3865.96,4293.18 L 3852.27,4296.09 L 3838.28,4296.09 L 3824.59,4293.18 L 3811.81,4287.49 L 3800.49,4279.27 L 3791.13,4268.87 L 3784.13,4256.75 L 3779.81,4243.44 L 3778.35,4229.53 z " style="fill-opacity:1.000000;fill:rgb(115,81,255);stroke:rgb(0,0,0);stroke-width:2"/></g>
<g fill-rule="evenodd"><path d="M 3778.35,4029.53 L 3779.81,4015.61 L 3784.13,4002.31 L 3791.13,3990.19 L 3800.49,3979.79 L 3811.81,3971.57 L 3824.59,3965.87 L 3838.28,3962.97 L 3852.27,3962.97 L 3865.96,3965.87 L 3878.74,3971.57 L 3890.06,3979.79 L 3899.42,3990.19 L 3906.42,4002.31 L 3910.74,4015.61 L 3912.2,4029.53 L 3910.74,4043.44 L 3906.42,4056.75 L 3899.42,4068.87 L 3890.06,4079.27 L 3878.74,4087.49 L 3865.96,4093.18 L 3852.27,4096.09 L 3838.28,4096.09 L 3824.59,4093.18 L 3811.81,4087.49 L 3800.49,4079.27 L 3791.13,4068.87 L 3784.13,4056.75 L 3779.81,4043.44 L 3778.35,4029.53 z " style="fill-opacity:1.000000;fill:rgb(74,236,41);stroke:rgb(0,0,0);stroke-width:2"/></g>
<g fill-rule="evenodd"><path d="M 3778.35,3829.53 L 3779.81,3815.61 L 3784.13,3802.31 L 3791.13,3790.19 L 3800.49,3779.79 L 3811.81,3771.57 L 3824.59,3765.87 L 3838.28,3762.97 L 3852.27,3762.97 L 3865.96,3765.87 L 3878.74,3771.57 L 3890.06,3779.79 L 3899.42,3790.19 L 3906.42,3802.31 L 3910.74,3815.61 L 3912.2,3829.53 L 3910.74,3843.44 L 3906.42,3856.75 L 3899.42,3868.87 L 3890.06,3879.27 L 3878.74,3887.49 L 3865.96,3893.18 L 3852.27,3896.09 L 3838.28,3896.09 L 3824.59,3893.18 L 3811.81,3887.49 L 3800.49,3879.27 L 3791.13,3868.87 L 3784.13,3856.75 L 3779.81,3843.44 L 3778.35,3829.53 z " style="fill-opacity:1.000000;fill:rgb(205,186,171);stroke:rgb(0,0,0);stroke-width:2"/></g>
<g fill-rule="evenodd"><path d="M 3778.35,3429.53 L 3779.81,3415.61 L 3784.13,3402.31 L 3791.13,3390.19 L 3800.49,3379.79 L 3811.81,3371.57 L 3824.59,3365.87 L 3838.28,3362.97 L 3852.27,3362.97 L 3865.96,3365.87 L 3878.74,3371.57 L 3890.06,3379.79 L 3899.42,3390.19 L 3906.42,3402.31 L 3910.74,3415.61 L 3912.2,3429.53 L 3910.74,3443.44 L 3906.42,3456.75 L 3899.42,3468.87 L 3890.06,3479.27 L 3878.74,3487.49 L 3865.96,3493.18 L 3852.27,3496.09 L 3838.28,3496.09 L 3824.59,3493.18 L 3811.81,3487.49 L 3800.49,3479.27 L 3791.13,3468.87 L 3784.13,3456.75 L 3779.81,3443.44 L 3778.35,3429.53 z " style="fill-opacity:1.000000;fill:rgb(242,251,227);stroke:rgb(0,0,0);stroke-width:2"/></g>
<g fill-rule="evenodd"><path d="M 3778.35,3029.53 L 3779.81,3015.61 L 3784.13,3002.31 L 3791.13,2990.19 L 3800.49,2979.79 L 3811.81,2971.57 L 3824.59,2965.87 L 3838.28,2962.97 L 3852.27,2962.97 L 3865.96,2965.87 L 3878.74,2971.57 L 3890.06,2979.79 L 3899.42,2990.19 L 3906.42,3002.31 L 3910.74,3015.61 L 3912.2,3029.53 L 3910.74,3043.44 L 3906.42,3056.75 L 3899.42,3068.87 L 3890.06,3079.27 L 3878.74,3087.49 L 3865.96,3093.18 L 3852.27,3096.09 L 3838.28,3096.09 L 3824.59,3093.18 L 3811.81,3087.49 L 3800.49,3079.27 L 3791.13,3068.87 L 3784.13,3056.75 L 3779.81,3043.44 L 3778.35,3029.53 z " style="fill-opacity:1.000000;fill:rgb(70,124,194);stroke:rgb(0,0,0);stroke-width:2"/></g>
<g fill-rule="evenodd"><path d="M 3778.35,2629.53 L 3779.81,2615.61 L 3784.13,2602.31 L 3791.13,2590.19 L 3800.49,2579.79 L 3811.81,2571.57 L 3824.59,2565.87 L 3838.28,2562.97 L 3852.27,2562.97 L 3865.96,2565.87 L 3878.74,2571.57 L 3890.06,2579.79 L 3899.42,2590.19 L 3906.42,2602.31 L 3910.74,2615.61 L 3912.2,2629.53 L 3910.74,2643.44 L 3906.42,2656.75 L 3899.42,2668.87 L 3890.06,2679.27 L 3878.74,2687.49 L 3865.96,2693.18 L 3852.27,2696.09 L 3838.28,2696.09 L 3824.59,2693.18 L 3811.81,2687.49 L 3800.49,2679.27 L 3791.13,2668.87 L 3784.13,2656.75 L 3779.81,2643.44 L 3778.35,2629.53 z " style="fill-opacity:1.000000;fill:rgb(84,248,27);stroke:rgb(0,0,0);stroke-width:2"/></g>
<g fill-rule="evenodd"><path d="M 3778.35,2429.53 L 3779.81,2415.61 L 3784.13,2402.31 L 3791.13,2390.19 L 3800.49,2379.79 L 3811.81,2371.57 L 3824.59,2365.87 L 3838.28,2362.97 L 3852.27,2362.97 L 3865.96,2365.87 L 3878.74,2371.57 L 3890.06,2379.79 L 3899.42,2390.19 L 3906.42,2402.31 L 3910.74,2415.61 L 3912.2,2429.53 L 3910.74,2443.44 L 3906.42,2456.75 L 3899.42,2468.87 L 3890.06,2479.27 L 3878.74,2487.49 L 3865.96,2493.18 L 3852.27,2496.09 L 3838.28,2496.09 L 3824.59,2493.18 L 3811.81,2487.49 L 3800.49,2479.27 L 3791.13,2468.87 L 3784.13,2456.75 L 3779.81,2443.44 L 3778.35,2429.53 z " style="fill-opacity:1.000000;fill:rgb(232,231,141);stroke:rgb(0,0,0);stroke-width:2"/></g>
<g fill-rule="evenodd"><path d="M 3778.35,2229.53 L 3779.81,2215.61 L 3784.13,2202.31 L 3791.13,2190.19 L 3800.49,2179.79 L 3811.81,2171.57 L 3824.59,2165.87 L 3838.28,2162.97 L 3852.27,2162.97 L 3865.96,2165.87 L 3878.74,2171.57 L 3890.06,2179.79 L 3899.42,2190.19 L 3906.42,2202.31 L 3910.74,2215.61 L 3912.2,2229.53 L 3910.74,2243.44 L 3906.42,2256.75 L 3899.42,2268.87 L 3890.06,2279.27 L 3878.74,2287.49 L 3865.96,2293.18 L 3852.27,2296.09 L 3838.28,2296.09 L 3824.59,2293.18 L 3811.81,2287.49 L 3800.49,2279.27 L 3791.13,2268.87 L 3784.13,2256.75 L 3779.81,2243.44 L 3778.35,2229.53 z " style="fill-opacity:1.000000;fill:rgb(118,90,46);stroke:rgb(0,0,0);stroke-width:2"/></g>
<g fill-rule="evenodd"><path d="M 3778.35,2029.53 L 3779.81,2015.61 L 3784.13,2002.31 L 3791.13,1990.19 L 3800.49,1979.79 L 3811.81,1971.57 L 3824.59,1965.87 L 3838.28,1962.97 L 3852.27,1962.97 L 3865.96,1965.87 L 3878.74,1971.57 L 3890.06,1979.79 L 3899.42,1990.19 L 3906.42,2002.31 L 3910.74,2015.61 L 3912.2,2029.53 L 3910.74,2043.44 L 3906.42,2056.75 L 3899.42,2068.87 L 3890.06,2079.27 L 3878.74,2087.49 L 3865.96,2093.18 L 3852.27,2096.09 L 3838.28,2096.09 L 3824.59,2093.18 L 3811.81,2087.49 L 3800.49,2079.27 L 3791.13,2068.87 L 3784.13,2056.75 L 3779.81,2043.44 L 3778.35,2029.53 z " style="fill-opacity:1.000000;fill:rgb(99,51,159);stroke:rgb(0,0,0);stroke-width:2"/></g>
<g fill-rule="evenodd"><path d="M 3778.35,1829.53 L 3779.81,1815.61 L 3784.13,1802.31 L 3791.13,1790.19 L 3800.49,1779.79 L 3811.81,1771.57 L 3824.59,1765.87 L 3838.28,1762.97 L 3852.27,1762.97 L 3865.96,1765.87 L 3878.74,1771.57 L 3890.06,1779.79 L 3899.42,1790.19 L 3906.42,1802.31 L 3910.74,1815.61 L 3912.2,1829.53 L 3910.74,1843.44 L 3906.42,1856.75 L 3899.42,1868.87 L 3890.06,1879.27 L 3878.74,1887.49 L 3865.96,1893.18 L 3852.27,1896.09 L 3838.28,1896.09 L 3824.59,1893.18 L 3811.81,1887.49 L 3800.49,1879.27 L 3791.13,1868.87 L 3784.13,1856.75 L 3779.81,1843.44 L 3778.35,1829.53 z " style="fill-opacity:1.000000;fill:rgb(201,154,102);stroke:rgb(0,0,0);stroke-width:2"/></g>
<g fill-rule="evenodd"><path d="M 3778.35,1629.53 L 3779.81,1615.61 L 3784.13,1602.31 L 3791.13,1590.19 L 3800.49,1579.79 L 3811.81,1571.57 L 3824.59,1565.87 L 3838.28,1562.97 L 3852.27,1562.97 L 3865.96,1565.87 L 3878.74,1571.57 L 3890.06,1579.79 L 3899.42,1590.19 L 3906.42,1602.31 L 3910.74,1615.61 L 3912.2,1629.53 L 3910.74,1643.44 L 3906.42,1656.75 L 3899.42,1668.87 L 3890.06,1679.27 L 3878.74,1687.49 L 3865.96,1693.18 L 3852.27,1696.09 L 3838.28,1696.09 L 3824.59,1693.18 L 3811.81,1687.49 L 3800.49,1679.27 L 3791.13,1668.87 L 3784.13,1656.75 L 3779.81,1643.44 L 3778.35,1629.53 z " style="fill-opacity:1.000000;fill:rgb(50,13,183);stroke:rgb(0,0,0);stroke-width:2"/></g>
<g fill-rule="evenodd"><path d="M 3778.35,1429.53 L 3779.81,1415.61 L 3784.13,1402.31 L 3791.13,1390.19 L 3800.49,1379.79 L 3811.81,1371.57 L 3824.59,1365.87 L 3838.28,1362.97 L 3852.27,1362.97 L 3865.96,1365.87 L 3878.74,1371.57 L 3890.06,1379.79 L 3899.42,1390.19 L 3906.42,1402.31 L 3910.74,1415.61 L 3912.2,1429.53 L 3910.74,1443.44 L 3906.42,1456.75 L 3899.42,1468.87 L 3890.06,1479.27 L 3878.74,1487.49 L 3865.96,1493.18 L 3852.27,1496.09 L 3838.28,1496.09 L 3824.59,1493.18 L 3811.81,1487.49 L 3800.49,1479.27 L 3791.13,1468.87 L 3784.13,1456.75 L 3779.81,1443.44 L 3778.35,1429.53 z " style="fill-opacity:1.000000;fill:rgb(49,88,163);stroke:rgb(0,0,0);stroke-width:2"/></g>
<g fill-rule="evenodd"><path d="M 3778.35,1229.53 L 3779.81,1215.61 L 3784.13,1202.31 L 3791.13,1190.19 L 3800.49,1179.79 L 3811.81,1171.57 L 3824.59,1165.87 L 3838.28,1162.97 L 3852.27,1162.97 L 3865.96,1165.87 L 3878.74,1171.57 L 3890.06,1179.79 L 3899.42,1190.19 L 3906.42,1202.31 L 3910.74,1215.61 L 3912.2,1229.53 L 3910.74,1243.44 L 3906.42,1256.75 L 3899.42,1268.87 L 3890.06,1279.27 L 3878.74,1287.49 L 3865.96,1293.18 L 3852.27,1296.09 L 3838.28,1296.09 L 3824.59,1293.18 L 3811.81,1287.49 L 3800.49,1279.27 L 3791.13,1268.87 L 3784.13,1256.75 L 3779.81,1243.44 L 3778.35,1229.53 z " style="fill-opacity:1.000000;fill:rgb(90,37,93);stroke:rgb(0,0,0);stroke-width:2"/></g>
<g fill-rule="evenodd"><path d="M 3778.35,1029.53 L 3779.81,1015.61 L 3784.13,1002.31 L 3791.13,990.188 L 3800.49,979.79 L 3811.81,971.565 L 3824.59,965.874 L 3838.28,962.965 L 3852.27,962.965 L 3865.96,965.874 L 3878.74,971.565 L 3890.06,979.79 L 3899.42,990.188 L 3906.42,1002.31 L 3910.74,1015.61 L 3912.2,1029.53 L 3910.74,1043.44 L 3906.42,1056.75 L 3899.42,1068.87 L 3890.06,1079.27 L 3878.74,1087.49 L 3865.96,1093.18 L 3852.27,1096.09 L 3838.28,1096.09 L 3824.59,1093.18 L 3811.81,1087.49 L 3800.49,1079.27 L 3791.13,1068.87 L 3784.13,1056.75 L 3779.81,1043.44 L 3778.35,1029.53 z " style="fill-opacity:1.000000;fill:rgb(5,23,88);stroke:rgb(0,0,0);stroke-width:2"/></g>
<g fill-rule="evenodd"><path d="M 3778.35,829.528 L 3779.81,815.612 L 3784.13,802.305 L 3791.13,790.188 L 3800.49,779.79 L 3811.81,771.565 L 3824.59,765.874 L 3838.28,762.965 L 3852.27,762.965 L 3865.96,765.874 L 3878.74,771.565 L 3890.06,779.79 L 3899.42,790.188 L 3906.42,802.305 L 3910.74,815.612 L 3912.2,829.528 L 3910.74,843.443 L 3906.42,856.75 L 3899.42,868.868 L 3890.06,879.266 L 3878.74,887.49 L 3865.96,893.181 L 3852.27,896.09 L 3838.28,896.09 L 3824.59,893.181 L 3811.81,887.49 L 3800.49,879.266 L 3791.13,868.868 L 3784.13,856.75 L 3779.81,843.443 L 3778.35,829.528 z " style="fill-opacity:1.000000;fill:rgb(233,94,212);stroke:rgb(0,0,0);stroke-width:2"/></g>
<g fill-rule="evenodd"><path d="M 3778.35,629.528 L 3779.81,615.612 L 3784.13,602.305 L 3791.13,590.188 L 3800.49,579.79 L 3811.81,571.565 L 3824.59,565.874 L 3838.28,562.965 L 3852.27,562.965 L 3865.96,565.874 L 3878.74,571.565 L 3890.06,579.79 L 3899.42,590.188 L 3906.42,602.305 L 3910.74,615.612 L 3912.2,629.528 L 3910.74,643.443 L 3906.42,656.75 L 3899.42,668.868 L 3890.06,679.266 L 3878.74,687.49 L 3865.96,693.181 L 3852.27,696.09 L 3838.28,696.09 L 3824.59,693.181 L 3811.81,687.49 L 3800.49,679.266 L 3791.13,668.868 L 3784.13,656.75 L 3779.81,643.443 L 3778.35,629.528 z " style="fill-opacity:1.000000;fill:rgb(171,178,205);stroke:rgb(0,0,0);stroke-width:2"/></g>
<g fill-rule="evenodd"><path d="M 3912.2,362.598 L 3912.2,496.457 L 3778.35,496.457 L 3778.35,362.598 L 3912.2,362.598 z " style="fill-opacity:1.000000;fill:rgb(198,155,180);stroke:rgb(0,0,0);stroke-width:2"/></g>
<g fill-rule="evenodd"><path d="M 1994.09,4245.28 L 1995.56,4231.36 L 1999.88,4218.05 L 2006.88,4205.94 L 2016.24,4195.54 L 2027.56,4187.31 L 2040.34,4181.62 L 2054.03,4178.71 L 2068.02,4178.71 L 2081.71,4181.62 L 2094.49,4187.31 L 2105.81,4195.54 L 2115.17,4205.94 L 2122.17,4218.05 L 2126.49,4231.36 L 2127.95,4245.28 L 2126.49,4259.19 L 2122.17,4272.5 L 2115.17,4284.62 L 2105.81,4295.01 L 2094.49,4303.24 L 2081.71,4308.93 L 2068.02,4311.84 L 2054.03,4311.84 L 2040.34,4308.93 L 2027.56,4303.24 L 2016.24,4295.01 L 2006.88,4284.62 L 1999.88,4272.5 L 1995.56,4259.19 L 1994.09,4245.28 z " style="fill-opacity:1.000000;fill:rgb(84,17,14);stroke:rgb(0,0,0);stroke-width:2"/></g>
<g fill-rule="evenodd"><path d="M 1994.09,4045.28 L 1995.56,4031.36 L 1999.88,4018.05 L 2006.88,4005.94 L 2016.24,3995.54 L 2027.56,3987.31 L 2040.34,3981.62 L 2054.03,3978.71 L 2068.02,3978.71 L 2081.71,3981.62 L 2094.49,3987.31 L 2105.81,3995.54 L 2115.17,4005.94 L 2122.17,4018.05 L 2126.49,4031.36 L 2127.95,4045.28 L 2126.49,4059.19 L 2122.17,4072.5 L 2115.17,4084.62 L 2105.81,4095.01 L 2094.49,4103.24 L 2081.71,4108.93 L 2068.02,4111.84 L 2054.03,4111.84 L 2040.34,4108.93 L 2027.56,4103.24 L 2016.24,4095.01 L 2006.88,4084.62 L 1999.88,4072.5 L 1995.56,4059.19 L 1994.09,4045.28 z " style="fill-opacity:1.000000;fill:rgb(130,116,65);stroke:rgb(0,0,0);stroke-width:2"/></g>
<g fill-rule="evenodd"><path d="M 1994.09,3245.28 L 1995.56,3231.36 L 1999.88,3218.05 L 2006.88,3205.94 L 2016.24,3195.54 L 2027.56,3187.31 L 2040.34,3181.62 L 2054.03,3178.71 L 2068.02,3178.71 L 2081.71,3181.62 L 2094.49,3187.31 L 2105.81,3195.54 L 2115.17,3205.94 L 2122.17,3218.05 L 2126.49,3231.36 L 2127.95,3245.28 L 2126.49,3259.19 L 2122.17,3272.5 L 2115.17,3284.62 L 2105.81,3295.01 L 2094.49,3303.24 L 2081.71,3308.93 L 2068.02,3311.84 L 2054.03,3311.84 L 2040.34,3308.93 L 2027.56,3303.24 L 2016.24,3295.01 L 2006.88,3284.62 L 1999.88,3272.5 L 1995.56,3259.19 L 1994.09,3245.28 z " style="fill-opacity:1.000000;fill:rgb(33,61,220);stroke:rgb(0,0,0);stroke-width:2"/></g>
<g fill-rule="evenodd"><path d="M 1994.09,3045.28 L 1995.56,3031.36 L 1999.88,3018.05 L 2006.88,3005.94 L 2016.24,2995.54 L 2027.56,2987.31 L 2040.34,2981.62 L 2054.03,2978.71 L 2068.02,2978.71 L 2081.71,2981.62 L 2094.49,2987.31 L 2105.81,2995.54 L 2115.17,3005.94 L 2122.17,3018.05 L 2126.49,3031.36 L 2127.95,3045.28 L 2126.49,3059.19 L 2122.17,3072.5 L 2115.17,3084.62 L 2105.81,3095.01 L 2094.49,3103.24 L 2081.71,3108.93 L 2068.02,3111.84 L 2054.03,3111.84 L 2040.34,3108.93 L 2027.56,3103.24 L 2016.24,3095.01 L 2006.88,3084.62 L 1999.88,3072.5 L 1995.56,3059.19 L 1994.09,3045.28 z " style="fill-opacity:1.000000;fill:rgb(135,112,233);stroke:rgb(0,0,0);stroke-width:2"/></g>
<g fill-rule="evenodd"><path d="M 1994.09,2845.28 L 1995.56,2831.36 L 1999.88,2818.05 L 2006.88,2805.94 L 2016.24,2795.54 L 2027.56,2787.31 L 2040.34,2781.62 L 2054.03,2778.71 L 2068.02,2778.71 L 2081.71,2781.62 L 2094.49,2787.31 L 2105.81,2795.54 L 2115.17,2805.94 L 2122.17,2818.05 L 2126.49,2831.36 L 2127.95,2845.28 L 2126.49,2859.19 L 2122.17,2872.5 L 2115.17,2884.62 L 2105.81,2895.01 L 2094.49,2903.24 L 2081.71,2908.93 L 2068.02,2911.84 L 2054.03,2911.84 L 2040.34,2908.93 L 2027.56,2903.24 L 2016.24,2895.01 L 2006.88,2884.62 L 1999.88,2872.5 L 1995.56,2859.19 L 1994.09,2845.28 z " style="fill-opacity:1.000000;fill:rgb(62,161,65);stroke:rgb(0,0,0);stroke-width:2"/></g>
<g fill-rule="evenodd"><path d="M 1994.09,2645.28 L 1995.56,2631.36 L 1999.88,2618.05 L 2006.88,2605.94 L 2016.24,2595.54 L 2027.56,2587.31 L 2040.34,2581.62 L 2054.03,2578.71 L 2068.02,2578.71 L 2081.71,2581.62 L 2094.49,2587.31 L 2105.81,2595.54 L 2115.17,2605.94 L 2122.17,2618.05 L 2126.49,2631.36 L 2127.95,2645.28 L 2126.49,2659.19 L 2122.17,2672.5 L 2115.17,2684.62 L 2105.81,2695.01 L 2094.49,2703.24 L 2081.71,2708.93 L 2068.02,2711.84 L 2054.03,2711.84 L 2040.34,2708.93 L 2027.56,2703.24 L 2016.24,2695.01 L 2006.88,2684.62 L 1999.88,2672.5 L 1995.56,2659.19 L 1994.09,2645.28 z " style="fill-opacity:1.000000;fill:rgb(225,252,103);stroke:rgb(0,0,0);stroke-width:2"/></g>
<g fill-rule="evenodd"><path d="M 1994.09,1845.28 L 1995.56,1831.36 L 1999.88,1818.05 L 2006.88,1805.94 L 2016.24,1795.54 L 2027.56,1787.31 L 2040.34,1781.62 L 2054.03,1778.71 L 2068.02,1778.71 L 2081.71,1781.62 L 2094.49,1787.31 L 2105.81,1795.54 L 2115.17,1805.94 L 2122.17,1818.05 L 2126.49,1831.36 L 2127.95,1845.28 L 2126.49,1859.19 L 2122.17,1872.5 L 2115.17,1884.62 L 2105.81,1895.01 L 2094.49,1903.24 L 2081.71,1908.93 L 2068.02,1911.84 L 2054.03,1911.84 L 2040.34,1908.93 L 2027.56,1903.24 L 2016.24,1895.01 L 2006.88,1884.62 L 1999.88,1872.5 L 1995.56,1859.19 L 1994.09,1845.28 z " style="fill-opacity:1.000000;fill:rgb(62,1,126);stroke:rgb(0,0,0);stroke-width:2"/></g>
<g fill-rule="evenodd"><path d="M 1994.09,1645.28 L 1995.56,1631.36 L 1999.88,1618.05 L 2006.88,1605.94 L 2016.24,1595.54 L 2027.56,1587.31 L 2040.34,1581.62 L 2054.03,1578.71 L 2068.02,1578.71 L 2081.71,1581.62 L 2094.49,1587.31 L 2105.81,1595.54 L 2115.17,1605.94 L 2122.17,1618.05 L 2126.49,1631.36 L 2127.95,1645.28 L 2126.49,1659.19 L 2122.17,1672.5 L 2115.17,1684.62 L 2105.81,1695.01 L 2094.49,1703.24 L 2081.71,1708.93 L 2068.02,1711.84 L 2054.03,1711.84 L 2040.34,1708.93 L 2027.56,1703.24 L 2016.24,1695.01 L 2006.88,1684.62 L 1999.88,1672.5 L 1995.56,1659.19 L 1994.09,1645.28 z " style="fill-opacity:1.000000;fill:rgb(151,234,220);stroke:rgb(0,0,0);stroke-width:2"/></g>
<g fill-rule="evenodd"><path d="M 1994.09,1445.28 L 1995.56,1431.36 L 1999.88,1418.05 L 2006.88,1405.94 L 2016.24,1395.54 L 2027.56,1387.31 L 2040.34,1381.62 L 2054.03,1378.71 L 2068.02,1378.71 L 2081.71,1381.62 L 2094.49,1387.31 L 2105.81,1395.54 L 2115.17,1405.94 L 2122.17,1418.05 L 2126.49,1431.36 L 2127.95,1445.28 L 2126.49,1459.19 L 2122.17,1472.5 L 2115.17,1484.62 L 2105.81,1495.01 L 2094.49,1503.24 L 2081.71,1508.93 L 2068.02,1511.84 L 2054.03,1511.84 L 2040.34,1508.93 L 2027.56,1503.24 L 2016.24,1495.01 L 2006.88,1484.62 L 1999.88,1472.5 L 1995.56,1459.19 L 1994.09,1445.28 z " style="fill-opacity:1.000000;fill:rgb(107,150,143);stroke:rgb(0,0,0);stroke-width:2"/></g>
<g fill-rule="evenodd"><path d="M 1994.09,1245.28 L 1995.56,1231.36 L 1999.88,1218.05 L 2006.88,1205.94 L 2016.24,1195.54 L 2027.56,1187.31 L 2040.34,1181.62 L 2054.03,1178.71 L 2068.02,1178.71 L 2081.71,1181.62 L 2094.49,1187.31 L 2105.81,1195.54 L 2115.17,1205.94 L 2122.17,1218.05 L 2126.49,1231.36 L 2127.95,1245.28 L 2126.49,1259.19 L 2122.17,1272.5 L 2115.17,1284.62 L 2105.81,1295.01 L 2094.49,1303.24 L 2081.71,1308.93 L 2068.02,1311.84 L 2054.03,1311.84 L 2040.34,1308.93 L 2027.56,1303.24 L 2016.24,1295.01 L 2006.88,1284.62 L 1999.88,1272.5 L 1995.56,1259.19 L 1994.09,1245.28 z " style="fill-opacity:1.000000;fill:rgb(56,92,42);stroke:rgb(0,0,0);stroke-width:2"/></g>
<g fill-rule="evenodd"><path d="M 1994.09,1045.28 L 1995.56,1031.36 L 1999.88,1018.05 L 2006.88,1005.94 L 2016.24,995.538 L 2027.56,987.313 L 2040.34,981.622 L 2054.03,978.713 L 2068.02,978.713 L 2081.71,981.622 L 2094.49,987.313 L 2105.81,995.538 L 2115.17,1005.94 L 2122.17,1018.05 L 2126.49,1031.36 L 2127.95,1045.28 L 2126.49,1059.19 L 2122.17,1072.5 L 2115.17,1084.62 L 2105.81,1095.01 L 2094.49,1103.24 L 2081.71,1108.93 L 2068.02,1111.84 L 2054.03,1111.84 L 2040.34,1108.93 L 2027.56,1103.24 L 2016.24,1095.01 L 2006.88,1084.62 L 1999.88,1072.5 L 1995.56,1059.19 L 1994.09,1045.28 z " style="fill-opacity:1.000000;fill:rgb(236,176,59);stroke:rgb(0,0,0);stroke-width:2"/></g>
<g fill-rule="evenodd"><path d="M 1994.09,845.276 L 1995.56,831.36 L 1999.88,818.053 L 2006.88,805.936 L 2016.24,795.538 L 2027.56,787.313 L 2040.34,781.622 L 2054.03,778.713 L 2068.02,778.713 L 2081.71,781.622 L 2094.49,787.313 L 2105.81,795.538 L 2115.17,805.936 L 2122.17,818.053 L 2126.49,831.36 L 2127.95,845.276 L 2126.49,859.191 L 2122.17,872.498 L 2115.17,884.616 L 2105.81,895.014 L 2094.49,903.238 L 2081.71,908.929 L 2068.02,911.838 L 2054.03,911.838 L 2040.34,908.929 L 2027.56,903.238 L 2016.24,895.014 L 2006.88,884.616 L 1999.88,872.498 L 1995.56,859.191 L 1994.09,845.276 z " style="fill-opacity:1.000000;fill:rgb(251,50,175);stroke:rgb(0,0,0);stroke-width:2"/></g>
<g fill-rule="evenodd"><path d="M 1994.09,645.276 L 1995.56,631.36 L 1999.88,618.053 L 2006.88,605.936 L 2016.24,595.538 L 2027.56,587.313 L 2040.34,581.622 L 2054.03,578.713 L 2068.02,578.713 L 2081.71,581.622 L 2094.49,587.313 L 2105.81,595.538 L 2115.17,605.936 L 2122.17,618.053 L 2126.49,631.36 L 2127.95,645.276 L 2126.49,659.191 L 2122.17,672.498 L 2115.17,684.616 L 2105.81,695.014 L 2094.49,703.238 L 2081.71,708.929 L 2068.02,711.838 L 2054.03,711.838 L 2040.34,708.929 L 2027.56,703.238 L 2016.24,695.014 L 2006.88,684.616 L 1999.88,672.498 L 1995.56,659.191 L 1994.09,645.276 z " style="fill-opacity:1.000000;fill:rgb(60,84,236);stroke:rgb(0,0,0);stroke-width:2"/></g>
<g fill-rule="evenodd"><path d="M 2127.95,378.346 L 2127.95,512.205 L 1994.09,512.205 L 1994.09,378.346 L 2127.95,378.346 z " style="fill-opacity:1.000000;fill:rgb(24,219,92);stroke:rgb(0,0,0);stroke-width:2"/></g>
<g fill-rule="evenodd"><path d="M 2094.49,3503.24 L 2081.71,3508.93 L 2068.02,3511.84 L 2054.03,3511.84 L 2040.34,3508.93 L 2027.56,3503.24 L 2016.24,3495.01 L 2006.9,3484.65 L 1745.28,3484.65 L 1737.59,3483.89 L 1730.21,3481.65 L 1723.4,3478.01 L 1717.44,3473.11 L 917.437,2673.11 L 912.541,2667.15 L 908.902,2660.34 L 906.662,2652.96 L 905.906,2645.28 L 905.905,1198.95 L 900.491,1195.01 L 891.129,1184.62 L 884.133,1172.5 L 879.809,1159.19 L 878.346,1145.28 L 879.809,1131.36 L 884.133,1118.05 L 891.129,1105.94 L 900.491,1095.54 L 911.811,1087.31 L 924.593,1081.62 L 938.28,1078.71 L 952.272,1078.71 L 965.958,1081.62 L 978.74,1087.31 L 990.06,1095.54 L 999.422,1105.94 L 1006.42,1118.05 L 1010.74,1131.36 L 1012.2,1145.28 L 1010.74,1159.19 L 1006.42,1172.5 L 999.422,1184.62 L 990.06,1195.01 L 984.646,1198.95 L 984.646,2628.97 L 1761.58,3405.91 L 2006.9,3405.91 L 2016.24,3395.54 L 2027.56,3387.31 L 2040.34,3381.62 L 2054.03,3378.71 L 2068.02,3378.71 L 2081.71,3381.62 L 2094.49,3387.31 L 2105.81,3395.54 L 2115.17,3405.94 L 2122.17,3418.05 L 2126.49,3431.36 L 2127.95,3445.28 L 2126.49,3459.19 L 2122.17,3472.5 L 2115.17,3484.62 L 2105.81,3495.01 L 2094.49,3503.24 z " style="fill-opacity:1.000000;fill:rgb(2,26,254);stroke:rgb(0,0,0);stroke-width:2"/></g>
<g fill-rule="evenodd"><path d="M 2094.49,3703.24 L 2081.71,3708.93 L 2068.02,3711.84 L 2054.03,3711.84 L 2040.34,3708.93 L 2027.56,3703.24 L 2016.24,3695.01 L 2006.9,3684.65 L 1545.28,3684.65 L 1539.12,3684.16 L 1533.11,3682.72 L 1527.4,3680.35 L 1522.13,3677.13 L 1517.44,3673.11 L 517.437,2673.11 L 512.541,2667.15 L 508.902,2660.34 L 506.662,2652.96 L 505.906,2645.28 L 505.906,1198.95 L 500.491,1195.01 L 491.129,1184.62 L 484.133,1172.5 L 479.809,1159.19 L 478.346,1145.28 L 479.809,1131.36 L 484.133,1118.05 L 491.129,1105.94 L 500.491,1095.54 L 511.811,1087.31 L 524.593,1081.62 L 538.28,1078.71 L 552.272,1078.71 L 565.958,1081.62 L 578.74,1087.31 L 590.06,1095.54 L 599.422,1105.94 L 606.418,1118.05 L 610.742,1131.36 L 612.205,1145.28 L 610.742,1159.19 L 606.418,1172.5 L 599.422,1184.62 L 590.06,1195.01 L 584.646,1198.95 L 584.646,2628.97 L 1561.58,3605.91 L 2006.9,3605.91 L 2016.24,3595.54 L 2027.56,3587.31 L 2040.34,3581.62 L 2054.03,3578.71 L 2068.02,3578.71 L 2081.71,3581.62 L 2094.49,3587.31 L 2105.81,3595.54 L 2115.17,3605.94 L 2122.17,3618.05 L 2126.49,3631.36 L 2127.95,3645.28 L 2126.49,3659.19 L 2122.17,3672.5 L 2115.17,3684.62 L 2105.81,3695.01 L 2094.49,3703.24 z " style="fill-opacity:1.000000;fill:rgb(67,251,250);stroke:rgb(0,0,0);stroke-width:2"/></g>
<g fill-rule="evenodd"><path d="M 2094.49,3903.24 L 2081.71,3908.93 L 2068.02,3911.84 L 2054.03,3911.84 L 2040.34,3908.93 L 2027.56,3903.24 L 2016.24,3895.01 L 2006.9,3884.65 L 1345.28,3884.65 L 1339.12,3884.16 L 1333.11,3882.72 L 1327.4,3880.35 L 1322.13,3877.13 L 1317.44,3873.11 L 317.437,2873.11 L 312.541,2867.15 L 308.902,2860.34 L 306.662,2852.96 L 305.906,2845.28 L 305.905,1212.2 L 278.346,1212.2 L 278.346,1078.35 L 412.205,1078.35 L 412.205,1212.2 L 384.646,1212.2 L 384.646,2828.97 L 1361.58,3805.91 L 2006.9,3805.91 L 2016.24,3795.54 L 2027.56,3787.31 L 2040.34,3781.62 L 2054.03,3778.71 L 2068.02,3778.71 L 2081.71,3781.62 L 2094.49,3787.31 L 2105.81,3795.54 L 2115.17,3805.94 L 2122.17,3818.05 L 2126.49,3831.36 L 2127.95,3845.28 L 2126.49,3859.19 L 2122.17,3872.5 L 2115.17,3884.62 L 2105.81,3895.01 L 2094.49,3903.24 z " style="fill-opacity:1.000000;fill:rgb(170,58,251);stroke:rgb(0,0,0);stroke-width:2"/></g>
<g fill-rule="evenodd"><path d="M 2094.49,2503.24 L 2081.71,2508.93 L 2068.02,2511.84 L 2054.03,2511.84 L 2040.34,2508.93 L 2027.56,2503.24 L 2016.24,2495.01 L 2006.9,2484.65 L 1745.28,2484.65 L 1737.59,2483.89 L 1730.21,2481.65 L 1723.4,2478.01 L 1717.44,2473.11 L 1317.44,2073.11 L 1312.54,2067.15 L 1308.9,2060.34 L 1306.66,2052.96 L 1305.91,2045.28 L 1305.91,1198.95 L 1300.49,1195.01 L 1291.13,1184.62 L 1284.13,1172.5 L 1279.81,1159.19 L 1278.35,1145.28 L 1279.81,1131.36 L 1284.13,1118.05 L 1291.13,1105.94 L 1300.49,1095.54 L 1311.81,1087.31 L 1324.59,1081.62 L 1338.28,1078.71 L 1352.27,1078.71 L 1365.96,1081.62 L 1378.74,1087.31 L 1390.06,1095.54 L 1399.42,1105.94 L 1406.42,1118.05 L 1410.74,1131.36 L 1412.2,1145.28 L 1410.74,1159.19 L 1406.42,1172.5 L 1399.42,1184.62 L 1390.06,1195.01 L 1384.65,1198.95 L 1384.65,2028.97 L 1761.58,2405.91 L 2006.9,2405.91 L 2016.24,2395.54 L 2027.56,2387.31 L 2040.34,2381.62 L 2054.03,2378.71 L 2068.02,2378.71 L 2081.71,2381.62 L 2094.49,2387.31 L 2105.81,2395.54 L 2115.17,2405.94 L 2122.17,2418.05 L 2126.49,2431.36 L 2127.95,2445.28 L 2126.49,2459.19 L 2122.17,2472.5 L 2115.17,2484.62 L 2105.81,2495.01 L 2094.49,2503.24 z " style="fill-opacity:1.000000;fill:rgb(41,209,230);stroke:rgb(0,0,0);stroke-width:2"/></g>
<g fill-rule="evenodd"><path d="M 2105.81,2095.01 L 2094.49,2103.24 L 2081.71,2108.93 L 2068.02,2111.84 L 2054.03,2111.84 L 2040.34,2108.93 L 2027.56,2103.24 L 2016.24,2095.01 L 2006.88,2084.62 L 1999.88,2072.5 L 1995.56,2059.19 L 1994.09,2045.28 L 1995.16,2035.09 L 1717.44,1757.37 L 1713.42,1752.67 L 1710.2,1747.4 L 1707.83,1741.69 L 1706.39,1735.69 L 1705.91,1729.53 L 1705.91,861.583 L 1628.97,784.646 L 1361.58,784.646 L 1184.65,961.583 L 1184.65,1091.61 L 1190.06,1095.54 L 1199.42,1105.94 L 1206.42,1118.05 L 1210.74,1131.36 L 1212.2,1145.28 L 1210.74,1159.19 L 1206.42,1172.5 L 1199.42,1184.62 L 1190.06,1195.01 L 1178.74,1203.24 L 1165.96,1208.93 L 1152.27,1211.84 L 1138.28,1211.84 L 1124.59,1208.93 L 1111.81,1203.24 L 1100.49,1195.01 L 1091.13,1184.62 L 1084.13,1172.5 L 1079.81,1159.19 L 1078.35,1145.28 L 1079.81,1131.36 L 1084.13,1118.05 L 1091.13,1105.94 L 1100.49,1095.54 L 1105.91,1091.6 L 1105.91,945.276 L 1106.66,937.595 L 1108.9,930.209 L 1112.54,923.403 L 1117.44,917.437 L 1317.44,717.437 L 1322.13,713.425 L 1327.4,710.197 L 1333.11,707.832 L 1339.12,706.39 L 1345.28,705.906 L 1645.28,705.906 L 1652.96,706.662 L 1660.34,708.902 L 1667.15,712.541 L 1673.11,717.437 L 1773.11,817.437 L 1778.01,823.403 L 1781.65,830.209 L 1783.89,837.595 L 1784.65,845.276 L 1784.65,1713.22 L 2050.82,1979.39 L 2054.03,1978.71 L 2068.02,1978.71 L 2081.71,1981.62 L 2094.49,1987.31 L 2105.81,1995.54 L 2115.17,2005.94 L 2122.17,2018.05 L 2126.49,2031.36 L 2127.95,2045.28 L 2126.49,2059.19 L 2122.17,2072.5 L 2115.17,2084.62 L 2105.81,2095.01 z " style="fill-opacity:1.000000;fill:rgb(5,60,124);stroke:rgb(0,0,0);stroke-width:2"/></g>
<g fill-rule="evenodd"><path d="M 2094.49,2303.24 L 2081.71,2308.93 L 2068.02,2311.84 L 2054.03,2311.84 L 2040.34,2308.93 L 2027.56,2303.24 L 2016.24,2295.01 L 2006.9,2284.65 L 1845.28,2284.65 L 1837.59,2283.89 L 1830.21,2281.65 L 1823.4,2278.01 L 1817.44,2273.11 L 1517.44,1973.11 L 1512.54,1967.15 L 1508.9,1960.34 L 1506.66,1952.96 L 1505.91,1945.28 L 1505.91,1198.95 L 1500.49,1195.01 L 1491.13,1184.62 L 1484.13,1172.5 L 1479.81,1159.19 L 1478.35,1145.28 L 1479.81,1131.36 L 1484.13,1118.05 L 1491.13,1105.94 L 1500.49,1095.54 L 1511.81,1087.31 L 1524.59,1081.62 L 1538.28,1078.71 L 1552.27,1078.71 L 1565.96,1081.62 L 1578.74,1087.31 L 1590.06,1095.54 L 1599.42,1105.94 L 1606.42,1118.05 L 1610.74,1131.36 L 1612.2,1145.28 L 1610.74,1159.19 L 1606.42,1172.5 L 1599.42,1184.62 L 1590.06,1195.01 L 1584.65,1198.95 L 1584.65,1928.97 L 1861.58,2205.91 L 2006.9,2205.91 L 2016.24,2195.54 L 2027.56,2187.31 L 2040.34,2181.62 L 2054.03,2178.71 L 2068.02,2178.71 L 2081.71,2181.62 L 2094.49,2187.31 L 2105.81,2195.54 L 2115.17,2205.94 L 2122.17,2218.05 L 2126.49,2231.36 L 2127.95,2245.28 L 2126.49,2259.19 L 2122.17,2272.5 L 2115.17,2284.62 L 2105.81,2295.01 L 2094.49,2303.24 z " style="fill-opacity:1.000000;fill:rgb(148,117,216);stroke:rgb(0,0,0);stroke-width:2"/></g>
<g fill-rule="evenodd"><path d="M 4890.67,3218.05 L 4894.99,3231.36 L 4896.46,3245.28 L 4894.99,3259.19 L 4890.67,3272.5 L 4883.67,3284.62 L 4874.31,3295.01 L 4862.99,3303.24 L 4850.21,3308.93 L 4836.52,3311.84 L 4822.53,3311.84 L 4808.85,3308.93 L 4796.06,3303.24 L 4784.74,3295.01 L 4775.41,3284.65 L 4461.58,3284.65 L 4088.86,3657.37 L 4084.17,3661.38 L 4078.9,3664.61 L 4073.19,3666.97 L 4067.18,3668.41 L 4061.03,3668.9 L 3899.39,3668.9 L 3890.06,3679.27 L 3878.74,3687.49 L 3865.96,3693.18 L 3852.27,3696.09 L 3838.28,3696.09 L 3824.59,3693.18 L 3811.81,3687.49 L 3800.49,3679.27 L 3791.13,3668.87 L 3784.13,3656.75 L 3779.81,3643.44 L 3778.35,3629.53 L 3779.81,3615.61 L 3784.13,3602.31 L 3791.13,3590.19 L 3800.49,3579.79 L 3811.81,3571.57 L 3824.59,3565.87 L 3838.28,3562.97 L 3852.27,3562.97 L 3865.96,3565.87 L 3878.74,3571.57 L 3890.06,3579.79 L 3899.4,3590.16 L 4044.72,3590.16 L 4417.44,3217.44 L 4422.13,3213.42 L 4427.4,3210.2 L 4433.11,3207.83 L 4439.12,3206.39 L 4445.28,3205.91 L 4775.41,3205.91 L 4784.74,3195.54 L 4796.06,3187.31 L 4808.85,3181.62 L 4822.53,3178.71 L 4836.52,3178.71 L 4850.21,3181.62 L 4862.99,3187.31 L 4874.31,3195.54 L 4883.67,3205.94 L 4890.67,3218.05 z " style="fill-opacity:1.000000;fill:rgb(190,97,137);stroke:rgb(0,0,0);stroke-width:2"/></g>
<g fill-rule="evenodd"><path d="M 4896.46,2762.6 L 4896.46,2896.46 L 4762.6,2896.46 L 4762.6,2868.9 L 3899.4,2868.9 L 3890.06,2879.27 L 3878.74,2887.49 L 3865.96,2893.18 L 3852.27,2896.09 L 3838.28,2896.09 L 3824.59,2893.18 L 3811.81,2887.49 L 3800.49,2879.27 L 3791.13,2868.87 L 3784.13,2856.75 L 3779.81,2843.44 L 3778.35,2829.53 L 3779.81,2815.61 L 3784.13,2802.31 L 3791.13,2790.19 L 3800.49,2779.79 L 3811.81,2771.57 L 3824.59,2765.87 L 3838.28,2762.97 L 3852.27,2762.97 L 3865.96,2765.87 L 3878.74,2771.57 L 3890.06,2779.79 L 3899.4,2790.16 L 4762.6,2790.16 L 4762.6,2762.6 L 4896.46,2762.6 z " style="fill-opacity:1.000000;fill:rgb(249,92,187);stroke:rgb(0,0,0);stroke-width:2"/></g>
<g fill-rule="evenodd"><path d="M 3779.81,3243.44 L 3778.35,3229.53 L 3779.81,3215.61 L 3784.13,3202.31 L 3791.13,3190.19 L 3800.49,3179.79 L 3811.81,3171.57 L 3824.59,3165.87 L 3838.28,3162.97 L 3852.27,3162.97 L 3865.96,3165.87 L 3878.74,3171.57 L 3890.06,3179.79 L 3899.39,3190.16 L 4044.72,3190.16 L 4217.44,3017.44 L 4222.13,3013.42 L 4227.4,3010.2 L 4233.11,3007.83 L 4239.12,3006.39 L 4245.28,3005.91 L 4762.6,3005.91 L 4762.6,2978.35 L 4896.46,2978.35 L 4896.46,3112.2 L 4762.6,3112.2 L 4762.6,3084.65 L 4261.58,3084.65 L 4088.86,3257.37 L 4084.17,3261.38 L 4078.9,3264.61 L 4073.19,3266.97 L 4067.18,3268.41 L 4061.03,3268.9 L 3899.4,3268.9 L 3890.06,3279.27 L 3878.74,3287.49 L 3865.96,3293.18 L 3852.27,3296.09 L 3838.28,3296.09 L 3824.59,3293.18 L 3811.81,3287.49 L 3800.49,3279.27 L 3791.13,3268.87 L 3784.13,3256.75 L 3779.81,3243.44 z " style="fill-opacity:1.000000;fill:rgb(168,153,15);stroke:rgb(0,0,0);stroke-width:2"/></g>
</svg>
