<?xml version="1.0" standalone="no"?>
<!DOCTYPE svg PUBLIC "-//W3C//DTD SVG 1.1//EN"
"http://www.w3.org/Graphics/SVG/1.1/DTD/svg11.dtd">
<svg width="253.946" height="219.591" viewBox="0 0 5290.55 4574.8" version="1.1"
xmlns="http://www.w3.org/2000/svg"
xmlns:xlink="http://www.w3.org/1999/xlink">
<g fill-rule="evenodd"><path d="M 5211.57,134.162 L 5230.05,168.74 L 5241.43,206.258 L 5245.28,245.276 L 5229.53,4329.53 L 5225.69,4368.55 L 5214.3,4406.07 L 5195.82,4440.64 L 5170.95,4470.95 L 5140.64,4495.82 L 5106.07,4514.3 L 5068.55,4525.69 L 5029.53,4529.53 L 245.276,4529.53 L 206.258,4525.69 L 168.74,4514.3 L 134.162,4495.82 L 103.856,4470.95 L 78.9836,4440.64 L 60.5016,4406.07 L 49.1196,4368.55 L 45.2756,4329.53 L 45.2756,245.276 L 49.1196,206.258 L 60.5016,168.74 L 78.9836,134.162 L 103.856,103.856 L 134.162,78.9836 L 168.74,60.5016 L 206.258,49.1196 L 245.276,45.2756 L 5045.28,45.2756 L 5084.3,49.1196 L 5121.81,60.5016 L 5156.39,78.9836 L 5186.7,103.856 L 5211.57,134.162 z " style="fill-opacity:1.000000;fill:rgb(103,198,105);stroke:rgb(0,0,0);stroke-width:2"/></g>
</svg>
