<?xml version="1.0" standalone="no"?>
<!DOCTYPE svg PUBLIC "-//W3C//DTD SVG 1.1//EN"
"http://www.w3.org/Graphics/SVG/1.1/DTD/svg11.dtd">
<svg width="234.746" height="263.546" viewBox="0 0 4890.55 5490.55" version="1.1"
xmlns="http://www.w3.org/2000/svg"
xmlns:xlink="http://www.w3.org/1999/xlink">
<g fill-rule="evenodd"><path d="M 3778.35,2645.28 L 3779.81,2631.36 L 3784.13,2618.05 L 3791.13,2605.94 L 3800.49,2595.54 L 3811.81,2587.31 L 3824.59,2581.62 L 3838.28,2578.71 L 3852.27,2578.71 L 3865.96,2581.62 L 3878.74,2587.31 L 3890.06,2595.54 L 3899.42,2605.94 L 3906.42,2618.05 L 3910.74,2631.36 L 3912.2,2645.28 L 3910.74,2659.19 L 3906.42,2672.5 L 3899.42,2684.62 L 3890.06,2695.01 L 3878.74,2703.24 L 3865.96,2708.93 L 3852.27,2711.84 L 3838.28,2711.84 L 3824.59,2708.93 L 3811.81,2703.24 L 3800.49,2695.01 L 3791.13,2684.62 L 3784.13,2672.5 L 3779.81,2659.19 L 3778.35,2645.28 z " style="fill-opacity:1.000000;fill:rgb(103,198,105);stroke:rgb(0,0,0);stroke-width:2"/></g>
<g fill-rule="evenodd"><path d="M 2794.09,5245.28 L 2795.56,5231.36 L 2799.88,5218.05 L 2806.88,5205.94 L 2816.24,5195.54 L 2827.56,5187.31 L 2840.34,5181.62 L 2854.03,5178.71 L 2868.02,5178.71 L 2881.71,5181.62 L 2894.49,5187.31 L 2905.81,5195.54 L 2915.17,5205.94 L 2922.17,5218.05 L 2926.49,5231.36 L 2927.95,5245.28 L 2926.49,5259.19 L 2922.17,5272.5 L 2915.17,5284.62 L 2905.81,5295.01 L 2894.49,5303.24 L 2881.71,5308.93 L 2868.02,5311.84 L 2854.03,5311.84 L 2840.34,5308.93 L 2827.56,5303.24 L 2816.24,5295.01 L 2806.88,5284.62 L 2799.88,5272.5 L 2795.56,5259.19 L 2794.09,5245.28 z " style="fill-opacity:1.000000;fill:rgb(115,81,255);stroke:rgb(0,0,0);stroke-width:2"/></g>
<g fill-rule="evenodd"><path d="M 2794.09,5045.28 L 2795.56,5031.36 L 2799.88,5018.05 L 2806.88,5005.94 L 2816.24,4995.54 L 2827.56,4987.31 L 2840.34,4981.62 L 2854.03,4978.71 L 2868.02,4978.71 L 2881.71,4981.62 L 2894.49,4987.31 L 2905.81,4995.54 L 2915.17,5005.94 L 2922.17,5018.05 L 2926.49,5031.36 L 2927.95,5045.28 L 2926.49,5059.19 L 2922.17,5072.5 L 2915.17,5084.62 L 2905.81,5095.01 L 2894.49,5103.24 L 2881.71,5108.93 L 2868.02,5111.84 L 2854.03,5111.84 L 2840.34,5108.93 L 2827.56,5103.24 L 2816.24,5095.01 L 2806.88,5084.62 L 2799.88,5072.5 L 2795.56,5059.19 L 2794.09,5045.28 z " style="fill-opacity:1.000000;fill:rgb(74,236,41);stroke:rgb(0,0,0);stroke-width:2"/></g>
<g fill-rule="evenodd"><path d="M 2794.09,4845.28 L 2795.56,4831.36 L 2799.88,4818.05 L 2806.88,4805.94 L 2816.24,4795.54 L 2827.56,4787.31 L 2840.34,4781.62 L 2854.03,4778.71 L 2868.02,4778.71 L 2881.71,4781.62 L 2894.49,4787.31 L 2905.81,4795.54 L 2915.17,4805.94 L 2922.17,4818.05 L 2926.49,4831.36 L 2927.95,4845.28 L 2926.49,4859.19 L 2922.17,4872.5 L 2915.17,4884.62 L 2905.81,4895.01 L 2894.49,4903.24 L 2881.71,4908.93 L 2868.02,4911.84 L 2854.03,4911.84 L 2840.34,4908.93 L 2827.56,4903.24 L 2816.24,4895.01 L 2806.88,4884.62 L 2799.88,4872.5 L 2795.56,4859.19 L 2794.09,4845.28 z " style="fill-opacity:1.000000;fill:rgb(205,186,171);stroke:rgb(0,0,0);stroke-width:2"/></g>
<g fill-rule="evenodd"><path d="M 2794.09,4445.28 L 2795.56,4431.36 L 2799.88,4418.05 L 2806.88,4405.94 L 2816.24,4395.54 L 2827.56,4387.31 L 2840.34,4381.62 L 2854.03,4378.71 L 2868.02,4378.71 L 2881.71,4381.62 L 2894.49,4387.31 L 2905.81,4395.54 L 2915.17,4405.94 L 2922.17,4418.05 L 2926.49,4431.36 L 2927.95,4445.28 L 2926.49,4459.19 L 2922.17,4472.5 L 2915.17,4484.62 L 2905.81,4495.01 L 2894.49,4503.24 L 2881.71,4508.93 L 2868.02,4511.84 L 2854.03,4511.84 L 2840.34,4508.93 L 2827.56,4503.24 L 2816.24,4495.01 L 2806.88,4484.62 L 2799.88,4472.5 L 2795.56,4459.19 L 2794.09,4445.28 z " style="fill-opacity:1.000000;fill:rgb(242,251,227);stroke:rgb(0,0,0);stroke-width:2"/></g>
<g fill-rule="evenodd"><path d="M 2794.09,4045.28 L 2795.56,4031.36 L 2799.88,4018.05 L 2806.88,4005.94 L 2816.24,3995.54 L 2827.56,3987.31 L 2840.34,3981.62 L 2854.03,3978.71 L 2868.02,3978.71 L 2881.71,3981.62 L 2894.49,3987.31 L 2905.81,3995.54 L 2915.17,4005.94 L 2922.17,4018.05 L 2926.49,4031.36 L 2927.95,4045.28 L 2926.49,4059.19 L 2922.17,4072.5 L 2915.17,4084.62 L 2905.81,4095.01 L 2894.49,4103.24 L 2881.71,4108.93 L 2868.02,4111.84 L 2854.03,4111.84 L 2840.34,4108.93 L 2827.56,4103.24 L 2816.24,4095.01 L 2806.88,4084.62 L 2799.88,4072.5 L 2795.56,4059.19 L 2794.09,4045.28 z " style="fill-opacity:1.000000;fill:rgb(70,124,194);stroke:rgb(0,0,0);stroke-width:2"/></g>
<g fill-rule="evenodd"><path d="M 2794.09,3645.28 L 2795.56,3631.36 L 2799.88,3618.05 L 2806.88,3605.94 L 2816.24,3595.54 L 2827.56,3587.31 L 2840.34,3581.62 L 2854.03,3578.71 L 2868.02,3578.71 L 2881.71,3581.62 L 2894.49,3587.31 L 2905.81,3595.54 L 2915.17,3605.94 L 2922.17,3618.05 L 2926.49,3631.36 L 2927.95,3645.28 L 2926.49,3659.19 L 2922.17,3672.5 L 2915.17,3684.62 L 2905.81,3695.01 L 2894.49,3703.24 L 2881.71,3708.93 L 2868.02,3711.84 L 2854.03,3711.84 L 2840.34,3708.93 L 2827.56,3703.24 L 2816.24,3695.01 L 2806.88,3684.62 L 2799.88,3672.5 L 2795.56,3659.19 L 2794.09,3645.28 z " style="fill-opacity:1.000000;fill:rgb(84,248,27);stroke:rgb(0,0,0);stroke-width:2"/></g>
<g fill-rule="evenodd"><path d="M 2794.09,3445.28 L 2795.56,3431.36 L 2799.88,3418.05 L 2806.88,3405.94 L 2816.24,3395.54 L 2827.56,3387.31 L 2840.34,3381.62 L 2854.03,3378.71 L 2868.02,3378.71 L 2881.71,3381.62 L 2894.49,3387.31 L 2905.81,3395.54 L 2915.17,3405.94 L 2922.17,3418.05 L 2926.49,3431.36 L 2927.95,3445.28 L 2926.49,3459.19 L 2922.17,3472.5 L 2915.17,3484.62 L 2905.81,3495.01 L 2894.49,3503.24 L 2881.71,3508.93 L 2868.02,3511.84 L 2854.03,3511.84 L 2840.34,3508.93 L 2827.56,3503.24 L 2816.24,3495.01 L 2806.88,3484.62 L 2799.88,3472.5 L 2795.56,3459.19 L 2794.09,3445.28 z " style="fill-opacity:1.000000;fill:rgb(232,231,141);stroke:rgb(0,0,0);stroke-width:2"/></g>
<g fill-rule="evenodd"><path d="M 2794.09,3245.28 L 2795.56,3231.36 L 2799.88,3218.05 L 2806.88,3205.94 L 2816.24,3195.54 L 2827.56,3187.31 L 2840.34,3181.62 L 2854.03,3178.71 L 2868.02,3178.71 L 2881.71,3181.62 L 2894.49,3187.31 L 2905.81,3195.54 L 2915.17,3205.94 L 2922.17,3218.05 L 2926.49,3231.36 L 2927.95,3245.28 L 2926.49,3259.19 L 2922.17,3272.5 L 2915.17,3284.62 L 2905.81,3295.01 L 2894.49,3303.24 L 2881.71,3308.93 L 2868.02,3311.84 L 2854.03,3311.84 L 2840.34,3308.93 L 2827.56,3303.24 L 2816.24,3295.01 L 2806.88,3284.62 L 2799.88,3272.5 L 2795.56,3259.19 L 2794.09,3245.28 z " style="fill-opacity:1.000000;fill:rgb(118,90,46);stroke:rgb(0,0,0);stroke-width:2"/></g>
<g fill-rule="evenodd"><path d="M 2794.09,3045.28 L 2795.56,3031.36 L 2799.88,3018.05 L 2806.88,3005.94 L 2816.24,2995.54 L 2827.56,2987.31 L 2840.34,2981.62 L 2854.03,2978.71 L 2868.02,2978.71 L 2881.71,2981.62 L 2894.49,2987.31 L 2905.81,2995.54 L 2915.17,3005.94 L 2922.17,3018.05 L 2926.49,3031.36 L 2927.95,3045.28 L 2926.49,3059.19 L 2922.17,3072.5 L 2915.17,3084.62 L 2905.81,3095.01 L 2894.49,3103.24 L 2881.71,3108.93 L 2868.02,3111.84 L 2854.03,3111.84 L 2840.34,3108.93 L 2827.56,3103.24 L 2816.24,3095.01 L 2806.88,3084.62 L 2799.88,3072.5 L 2795.56,3059.19 L 2794.09,3045.28 z " style="fill-opacity:1.000000;fill:rgb(99,51,159);stroke:rgb(0,0,0);stroke-width:2"/></g>
<g fill-rule="evenodd"><path d="M 2794.09,2845.28 L 2795.56,2831.36 L 2799.88,2818.05 L 2806.88,2805.94 L 2816.24,2795.54 L 2827.56,2787.31 L 2840.34,2781.62 L 2854.03,2778.71 L 2868.02,2778.71 L 2881.71,2781.62 L 2894.49,2787.31 L 2905.81,2795.54 L 2915.17,2805.94 L 2922.17,2818.05 L 2926.49,2831.36 L 2927.95,2845.28 L 2926.49,2859.19 L 2922.17,2872.5 L 2915.17,2884.62 L 2905.81,2895.01 L 2894.49,2903.24 L 2881.71,2908.93 L 2868.02,2911.84 L 2854.03,2911.84 L 2840.34,2908.93 L 2827.56,2903.24 L 2816.24,2895.01 L 2806.88,2884.62 L 2799.88,2872.5 L 2795.56,2859.19 L 2794.09,2845.28 z " style="fill-opacity:1.000000;fill:rgb(201,154,102);stroke:rgb(0,0,0);stroke-width:2"/></g>
<g fill-rule="evenodd"><path d="M 2794.09,2645.28 L 2795.56,2631.36 L 2799.88,2618.05 L 2806.88,2605.94 L 2816.24,2595.54 L 2827.56,2587.31 L 2840.34,2581.62 L 2854.03,2578.71 L 2868.02,2578.71 L 2881.71,2581.62 L 2894.49,2587.31 L 2905.81,2595.54 L 2915.17,2605.94 L 2922.17,2618.05 L 2926.49,2631.36 L 2927.95,2645.28 L 2926.49,2659.19 L 2922.17,2672.5 L 2915.17,2684.62 L 2905.81,2695.01 L 2894.49,2703.24 L 2881.71,2708.93 L 2868.02,2711.84 L 2854.03,2711.84 L 2840.34,2708.93 L 2827.56,2703.24 L 2816.24,2695.01 L 2806.88,2684.62 L 2799.88,2672.5 L 2795.56,2659.19 L 2794.09,2645.28 z " style="fill-opacity:1.000000;fill:rgb(50,13,183);stroke:rgb(0,0,0);stroke-width:2"/></g>
<g fill-rule="evenodd"><path d="M 2794.09,2445.28 L 2795.56,2431.36 L 2799.88,2418.05 L 2806.88,2405.94 L 2816.24,2395.54 L 2827.56,2387.31 L 2840.34,2381.62 L 2854.03,2378.71 L 2868.02,2378.71 L 2881.71,2381.62 L 2894.49,2387.31 L 2905.81,2395.54 L 2915.17,2405.94 L 2922.17,2418.05 L 2926.49,2431.36 L 2927.95,2445.28 L 2926.49,2459.19 L 2922.17,2472.5 L 2915.17,2484.62 L 2905.81,2495.01 L 2894.49,2503.24 L 2881.71,2508.93 L 2868.02,2511.84 L 2854.03,2511.84 L 2840.34,2508.93 L 2827.56,2503.24 L 2816.24,2495.01 L 2806.88,2484.62 L 2799.88,2472.5 L 2795.56,2459.19 L 2794.09,2445.28 z " style="fill-opacity:1.000000;fill:rgb(49,88,163);stroke:rgb(0,0,0);stroke-width:2"/></g>
<g fill-rule="evenodd"><path d="M 2794.09,2245.28 L 2795.56,2231.36 L 2799.88,2218.05 L 2806.88,2205.94 L 2816.24,2195.54 L 2827.56,2187.31 L 2840.34,2181.62 L 2854.03,2178.71 L 2868.02,2178.71 L 2881.71,2181.62 L 2894.49,2187.31 L 2905.81,2195.54 L 2915.17,2205.94 L 2922.17,2218.05 L 2926.49,2231.36 L 2927.95,2245.28 L 2926.49,2259.19 L 2922.17,2272.5 L 2915.17,2284.62 L 2905.81,2295.01 L 2894.49,2303.24 L 2881.71,2308.93 L 2868.02,2311.84 L 2854.03,2311.84 L 2840.34,2308.93 L 2827.56,2303.24 L 2816.24,2295.01 L 2806.88,2284.62 L 2799.88,2272.5 L 2795.56,2259.19 L 2794.09,2245.28 z " style="fill-opacity:1.000000;fill:rgb(90,37,93);stroke:rgb(0,0,0);stroke-width:2"/></g>
<g fill-rule="evenodd"><path d="M 2794.09,2045.28 L 2795.56,2031.36 L 2799.88,2018.05 L 2806.88,2005.94 L 2816.24,1995.54 L 2827.56,1987.31 L 2840.34,1981.62 L 2854.03,1978.71 L 2868.02,1978.71 L 2881.71,1981.62 L 2894.49,1987.31 L 2905.81,1995.54 L 2915.17,2005.94 L 2922.17,2018.05 L 2926.49,2031.36 L 2927.95,2045.28 L 2926.49,2059.19 L 2922.17,2072.5 L 2915.17,2084.62 L 2905.81,2095.01 L 2894.49,2103.24 L 2881.71,2108.93 L 2868.02,2111.84 L 2854.03,2111.84 L 2840.34,2108.93 L 2827.56,2103.24 L 2816.24,2095.01 L 2806.88,2084.62 L 2799.88,2072.5 L 2795.56,2059.19 L 2794.09,2045.28 z " style="fill-opacity:1.000000;fill:rgb(5,23,88);stroke:rgb(0,0,0);stroke-width:2"/></g>
<g fill-rule="evenodd"><path d="M 2794.09,1845.28 L 2795.56,1831.36 L 2799.88,1818.05 L 2806.88,1805.94 L 2816.24,1795.54 L 2827.56,1787.31 L 2840.34,1781.62 L 2854.03,1778.71 L 2868.02,1778.71 L 2881.71,1781.62 L 2894.49,1787.31 L 2905.81,1795.54 L 2915.17,1805.94 L 2922.17,1818.05 L 2926.49,1831.36 L 2927.95,1845.28 L 2926.49,1859.19 L 2922.17,1872.5 L 2915.17,1884.62 L 2905.81,1895.01 L 2894.49,1903.24 L 2881.71,1908.93 L 2868.02,1911.84 L 2854.03,1911.84 L 2840.34,1908.93 L 2827.56,1903.24 L 2816.24,1895.01 L 2806.88,1884.62 L 2799.88,1872.5 L 2795.56,1859.19 L 2794.09,1845.28 z " style="fill-opacity:1.000000;fill:rgb(233,94,212);stroke:rgb(0,0,0);stroke-width:2"/></g>
<g fill-rule="evenodd"><path d="M 2794.09,1645.28 L 2795.56,1631.36 L 2799.88,1618.05 L 2806.88,1605.94 L 2816.24,1595.54 L 2827.56,1587.31 L 2840.34,1581.62 L 2854.03,1578.71 L 2868.02,1578.71 L 2881.71,1581.62 L 2894.49,1587.31 L 2905.81,1595.54 L 2915.17,1605.94 L 2922.17,1618.05 L 2926.49,1631.36 L 2927.95,1645.28 L 2926.49,1659.19 L 2922.17,1672.5 L 2915.17,1684.62 L 2905.81,1695.01 L 2894.49,1703.24 L 2881.71,1708.93 L 2868.02,1711.84 L 2854.03,1711.84 L 2840.34,1708.93 L 2827.56,1703.24 L 2816.24,1695.01 L 2806.88,1684.62 L 2799.88,1672.5 L 2795.56,1659.19 L 2794.09,1645.28 z " style="fill-opacity:1.000000;fill:rgb(171,178,205);stroke:rgb(0,0,0);stroke-width:2"/></g>
<g fill-rule="evenodd"><path d="M 2927.95,1378.35 L 2927.95,1512.2 L 2794.09,1512.2 L 2794.09,1378.35 L 2927.95,1378.35 z " style="fill-opacity:1.000000;fill:rgb(198,155,180);stroke:rgb(0,0,0);stroke-width:2"/></g>
<g fill-rule="evenodd"><path d="M 1009.84,5261.02 L 1011.31,5247.11 L 1015.63,5233.8 L 1022.62,5221.68 L 1031.99,5211.29 L 1043.31,5203.06 L 1056.09,5197.37 L 1069.78,5194.46 L 1083.77,5194.46 L 1097.45,5197.37 L 1110.24,5203.06 L 1121.56,5211.29 L 1130.92,5221.68 L 1137.91,5233.8 L 1142.24,5247.11 L 1143.7,5261.02 L 1142.24,5274.94 L 1137.91,5288.25 L 1130.92,5300.36 L 1121.56,5310.76 L 1110.24,5318.99 L 1097.45,5324.68 L 1083.77,5327.59 L 1069.78,5327.59 L 1056.09,5324.68 L 1043.31,5318.99 L 1031.99,5310.76 L 1022.62,5300.36 L 1015.63,5288.25 L 1011.31,5274.94 L 1009.84,5261.02 z " style="fill-opacity:1.000000;fill:rgb(84,17,14);stroke:rgb(0,0,0);stroke-width:2"/></g>
<g fill-rule="evenodd"><path d="M 1009.84,5061.02 L 1011.31,5047.11 L 1015.63,5033.8 L 1022.62,5021.68 L 1031.99,5011.29 L 1043.31,5003.06 L 1056.09,4997.37 L 1069.78,4994.46 L 1083.77,4994.46 L 1097.45,4997.37 L 1110.24,5003.06 L 1121.56,5011.29 L 1130.92,5021.68 L 1137.91,5033.8 L 1142.24,5047.11 L 1143.7,5061.02 L 1142.24,5074.94 L 1137.91,5088.25 L 1130.92,5100.36 L 1121.56,5110.76 L 1110.24,5118.99 L 1097.45,5124.68 L 1083.77,5127.59 L 1069.78,5127.59 L 1056.09,5124.68 L 1043.31,5118.99 L 1031.99,5110.76 L 1022.62,5100.36 L 1015.63,5088.25 L 1011.31,5074.94 L 1009.84,5061.02 z " style="fill-opacity:1.000000;fill:rgb(130,116,65);stroke:rgb(0,0,0);stroke-width:2"/></g>
<g fill-rule="evenodd"><path d="M 1009.84,4261.02 L 1011.31,4247.11 L 1015.63,4233.8 L 1022.62,4221.68 L 1031.99,4211.29 L 1043.31,4203.06 L 1056.09,4197.37 L 1069.78,4194.46 L 1083.77,4194.46 L 1097.45,4197.37 L 1110.24,4203.06 L 1121.56,4211.29 L 1130.92,4221.68 L 1137.91,4233.8 L 1142.24,4247.11 L 1143.7,4261.02 L 1142.24,4274.94 L 1137.91,4288.25 L 1130.92,4300.36 L 1121.56,4310.76 L 1110.24,4318.99 L 1097.45,4324.68 L 1083.77,4327.59 L 1069.78,4327.59 L 1056.09,4324.68 L 1043.31,4318.99 L 1031.99,4310.76 L 1022.62,4300.36 L 1015.63,4288.25 L 1011.31,4274.94 L 1009.84,4261.02 z " style="fill-opacity:1.000000;fill:rgb(33,61,220);stroke:rgb(0,0,0);stroke-width:2"/></g>
<g fill-rule="evenodd"><path d="M 1009.84,4061.02 L 1011.31,4047.11 L 1015.63,4033.8 L 1022.62,4021.68 L 1031.99,4011.29 L 1043.31,4003.06 L 1056.09,3997.37 L 1069.78,3994.46 L 1083.77,3994.46 L 1097.45,3997.37 L 1110.24,4003.06 L 1121.56,4011.29 L 1130.92,4021.68 L 1137.91,4033.8 L 1142.24,4047.11 L 1143.7,4061.02 L 1142.24,4074.94 L 1137.91,4088.25 L 1130.92,4100.36 L 1121.56,4110.76 L 1110.24,4118.99 L 1097.45,4124.68 L 1083.77,4127.59 L 1069.78,4127.59 L 1056.09,4124.68 L 1043.31,4118.99 L 1031.99,4110.76 L 1022.62,4100.36 L 1015.63,4088.25 L 1011.31,4074.94 L 1009.84,4061.02 z " style="fill-opacity:1.000000;fill:rgb(135,112,233);stroke:rgb(0,0,0);stroke-width:2"/></g>
<g fill-rule="evenodd"><path d="M 1009.84,3861.02 L 1011.31,3847.11 L 1015.63,3833.8 L 1022.62,3821.68 L 1031.99,3811.29 L 1043.31,3803.06 L 1056.09,3797.37 L 1069.78,3794.46 L 1083.77,3794.46 L 1097.45,3797.37 L 1110.24,3803.06 L 1121.56,3811.29 L 1130.92,3821.68 L 1137.91,3833.8 L 1142.24,3847.11 L 1143.7,3861.02 L 1142.24,3874.94 L 1137.91,3888.25 L 1130.92,3900.36 L 1121.56,3910.76 L 1110.24,3918.99 L 1097.45,3924.68 L 1083.77,3927.59 L 1069.78,3927.59 L 1056.09,3924.68 L 1043.31,3918.99 L 1031.99,3910.76 L 1022.62,3900.36 L 1015.63,3888.25 L 1011.31,3874.94 L 1009.84,3861.02 z " style="fill-opacity:1.000000;fill:rgb(62,161,65);stroke:rgb(0,0,0);stroke-width:2"/></g>
<g fill-rule="evenodd"><path d="M 1009.84,3661.02 L 1011.31,3647.11 L 1015.63,3633.8 L 1022.62,3621.68 L 1031.99,3611.29 L 1043.31,3603.06 L 1056.09,3597.37 L 1069.78,3594.46 L 1083.77,3594.46 L 1097.45,3597.37 L 1110.24,3603.06 L 1121.56,3611.29 L 1130.92,3621.68 L 1137.91,3633.8 L 1142.24,3647.11 L 1143.7,3661.02 L 1142.24,3674.94 L 1137.91,3688.25 L 1130.92,3700.36 L 1121.56,3710.76 L 1110.24,3718.99 L 1097.45,3724.68 L 1083.77,3727.59 L 1069.78,3727.59 L 1056.09,3724.68 L 1043.31,3718.99 L 1031.99,3710.76 L 1022.62,3700.36 L 1015.63,3688.25 L 1011.31,3674.94 L 1009.84,3661.02 z " style="fill-opacity:1.000000;fill:rgb(225,252,103);stroke:rgb(0,0,0);stroke-width:2"/></g>
<g fill-rule="evenodd"><path d="M 1009.84,2861.02 L 1011.31,2847.11 L 1015.63,2833.8 L 1022.62,2821.68 L 1031.99,2811.29 L 1043.31,2803.06 L 1056.09,2797.37 L 1069.78,2794.46 L 1083.77,2794.46 L 1097.45,2797.37 L 1110.24,2803.06 L 1121.56,2811.29 L 1130.92,2821.68 L 1137.91,2833.8 L 1142.24,2847.11 L 1143.7,2861.02 L 1142.24,2874.94 L 1137.91,2888.25 L 1130.92,2900.36 L 1121.56,2910.76 L 1110.24,2918.99 L 1097.45,2924.68 L 1083.77,2927.59 L 1069.78,2927.59 L 1056.09,2924.68 L 1043.31,2918.99 L 1031.99,2910.76 L 1022.62,2900.36 L 1015.63,2888.25 L 1011.31,2874.94 L 1009.84,2861.02 z " style="fill-opacity:1.000000;fill:rgb(62,1,126);stroke:rgb(0,0,0);stroke-width:2"/></g>
<g fill-rule="evenodd"><path d="M 1009.84,2661.02 L 1011.31,2647.11 L 1015.63,2633.8 L 1022.62,2621.68 L 1031.99,2611.29 L 1043.31,2603.06 L 1056.09,2597.37 L 1069.78,2594.46 L 1083.77,2594.46 L 1097.45,2597.37 L 1110.24,2603.06 L 1121.56,2611.29 L 1130.92,2621.68 L 1137.91,2633.8 L 1142.24,2647.11 L 1143.7,2661.02 L 1142.24,2674.94 L 1137.91,2688.25 L 1130.92,2700.36 L 1121.56,2710.76 L 1110.24,2718.99 L 1097.45,2724.68 L 1083.77,2727.59 L 1069.78,2727.59 L 1056.09,2724.68 L 1043.31,2718.99 L 1031.99,2710.76 L 1022.62,2700.36 L 1015.63,2688.25 L 1011.31,2674.94 L 1009.84,2661.02 z " style="fill-opacity:1.000000;fill:rgb(151,234,220);stroke:rgb(0,0,0);stroke-width:2"/></g>
<g fill-rule="evenodd"><path d="M 1009.84,2461.02 L 1011.31,2447.11 L 1015.63,2433.8 L 1022.62,2421.68 L 1031.99,2411.29 L 1043.31,2403.06 L 1056.09,2397.37 L 1069.78,2394.46 L 1083.77,2394.46 L 1097.45,2397.37 L 1110.24,2403.06 L 1121.56,2411.29 L 1130.92,2421.68 L 1137.91,2433.8 L 1142.24,2447.11 L 1143.7,2461.02 L 1142.24,2474.94 L 1137.91,2488.25 L 1130.92,2500.36 L 1121.56,2510.76 L 1110.24,2518.99 L 1097.45,2524.68 L 1083.77,2527.59 L 1069.78,2527.59 L 1056.09,2524.68 L 1043.31,2518.99 L 1031.99,2510.76 L 1022.62,2500.36 L 1015.63,2488.25 L 1011.31,2474.94 L 1009.84,2461.02 z " style="fill-opacity:1.000000;fill:rgb(107,150,143);stroke:rgb(0,0,0);stroke-width:2"/></g>
<g fill-rule="evenodd"><path d="M 1009.84,2261.02 L 1011.31,2247.11 L 1015.63,2233.8 L 1022.62,2221.68 L 1031.99,2211.29 L 1043.31,2203.06 L 1056.09,2197.37 L 1069.78,2194.46 L 1083.77,2194.46 L 1097.45,2197.37 L 1110.24,2203.06 L 1121.56,2211.29 L 1130.92,2221.68 L 1137.91,2233.8 L 1142.24,2247.11 L 1143.7,2261.02 L 1142.24,2274.94 L 1137.91,2288.25 L 1130.92,2300.36 L 1121.56,2310.76 L 1110.24,2318.99 L 1097.45,2324.68 L 1083.77,2327.59 L 1069.78,2327.59 L 1056.09,2324.68 L 1043.31,2318.99 L 1031.99,2310.76 L 1022.62,2300.36 L 1015.63,2288.25 L 1011.31,2274.94 L 1009.84,2261.02 z " style="fill-opacity:1.000000;fill:rgb(56,92,42);stroke:rgb(0,0,0);stroke-width:2"/></g>
<g fill-rule="evenodd"><path d="M 1009.84,2061.02 L 1011.31,2047.11 L 1015.63,2033.8 L 1022.62,2021.68 L 1031.99,2011.29 L 1043.31,2003.06 L 1056.09,1997.37 L 1069.78,1994.46 L 1083.77,1994.46 L 1097.45,1997.37 L 1110.24,2003.06 L 1121.56,2011.29 L 1130.92,2021.68 L 1137.91,2033.8 L 1142.24,2047.11 L 1143.7,2061.02 L 1142.24,2074.94 L 1137.91,2088.25 L 1130.92,2100.36 L 1121.56,2110.76 L 1110.24,2118.99 L 1097.45,2124.68 L 1083.77,2127.59 L 1069.78,2127.59 L 1056.09,2124.68 L 1043.31,2118.99 L 1031.99,2110.76 L 1022.62,2100.36 L 1015.63,2088.25 L 1011.31,2074.94 L 1009.84,2061.02 z " style="fill-opacity:1.000000;fill:rgb(236,176,59);stroke:rgb(0,0,0);stroke-width:2"/></g>
<g fill-rule="evenodd"><path d="M 1009.84,1861.02 L 1011.31,1847.11 L 1015.63,1833.8 L 1022.62,1821.68 L 1031.99,1811.29 L 1043.31,1803.06 L 1056.09,1797.37 L 1069.78,1794.46 L 1083.77,1794.46 L 1097.45,1797.37 L 1110.24,1803.06 L 1121.56,1811.29 L 1130.92,1821.68 L 1137.91,1833.8 L 1142.24,1847.11 L 1143.7,1861.02 L 1142.24,1874.94 L 1137.91,1888.25 L 1130.92,1900.36 L 1121.56,1910.76 L 1110.24,1918.99 L 1097.45,1924.68 L 1083.77,1927.59 L 1069.78,1927.59 L 1056.09,1924.68 L 1043.31,1918.99 L 1031.99,1910.76 L 1022.62,1900.36 L 1015.63,1888.25 L 1011.31,1874.94 L 1009.84,1861.02 z " style="fill-opacity:1.000000;fill:rgb(251,50,175);stroke:rgb(0,0,0);stroke-width:2"/></g>
<g fill-rule="evenodd"><path d="M 1009.84,1661.02 L 1011.31,1647.11 L 1015.63,1633.8 L 1022.62,1621.68 L 1031.99,1611.29 L 1043.31,1603.06 L 1056.09,1597.37 L 1069.78,1594.46 L 1083.77,1594.46 L 1097.45,1597.37 L 1110.24,1603.06 L 1121.56,1611.29 L 1130.92,1621.68 L 1137.91,1633.8 L 1142.24,1647.11 L 1143.7,1661.02 L 1142.24,1674.94 L 1137.91,1688.25 L 1130.92,1700.36 L 1121.56,1710.76 L 1110.24,1718.99 L 1097.45,1724.68 L 1083.77,1727.59 L 1069.78,1727.59 L 1056.09,1724.68 L 1043.31,1718.99 L 1031.99,1710.76 L 1022.62,1700.36 L 1015.63,1688.25 L 1011.31,1674.94 L 1009.84,1661.02 z " style="fill-opacity:1.000000;fill:rgb(60,84,236);stroke:rgb(0,0,0);stroke-width:2"/></g>
<g fill-rule="evenodd"><path d="M 1143.7,1394.09 L 1143.7,1527.95 L 1009.84,1527.95 L 1009.84,1394.09 L 1143.7,1394.09 z " style="fill-opacity:1.000000;fill:rgb(24,219,92);stroke:rgb(0,0,0);stroke-width:2"/></g>
<g fill-rule="evenodd"><path d="M 3912.2,4645.28 L 3910.74,4659.19 L 3906.42,4672.5 L 3899.42,4684.62 L 3890.06,4695.01 L 3878.74,4703.24 L 3865.96,4708.93 L 3852.27,4711.84 L 3838.28,4711.84 L 3824.59,4708.93 L 3811.81,4703.24 L 3800.49,4695.01 L 3791.16,4684.65 L 2915.14,4684.65 L 2905.81,4695.01 L 2894.49,4703.24 L 2881.71,4708.93 L 2868.02,4711.84 L 2854.03,4711.84 L 2840.34,4708.93 L 2827.56,4703.24 L 2816.24,4695.01 L 2806.88,4684.62 L 2799.88,4672.5 L 2795.56,4659.19 L 2794.09,4645.28 L 2795.56,4631.36 L 2799.88,4618.05 L 2806.88,4605.94 L 2816.24,4595.54 L 2827.56,4587.31 L 2840.34,4581.62 L 2854.03,4578.71 L 2868.02,4578.71 L 2881.71,4581.62 L 2894.49,4587.31 L 2905.81,4595.54 L 2915.14,4605.91 L 3791.16,4605.91 L 3800.49,4595.54 L 3811.81,4587.31 L 3824.59,4581.62 L 3838.28,4578.71 L 3852.27,4578.71 L 3865.96,4581.62 L 3878.74,4587.31 L 3890.06,4595.54 L 3899.42,4605.94 L 3906.42,4618.05 L 3910.74,4631.36 L 3912.2,4645.28 z " style="fill-opacity:1.000000;fill:rgb(2,26,254);stroke:rgb(0,0,0);stroke-width:2"/></g>
<g fill-rule="evenodd"><path d="M 3912.2,4512.2 L 3778.35,4512.2 L 3778.35,4434.02 L 3628.97,4284.65 L 2915.14,4284.65 L 2905.81,4295.01 L 2894.49,4303.24 L 2881.71,4308.93 L 2868.02,4311.84 L 2854.03,4311.84 L 2840.34,4308.93 L 2827.56,4303.24 L 2816.24,4295.01 L 2806.88,4284.62 L 2799.88,4272.5 L 2795.56,4259.19 L 2794.09,4245.28 L 2795.56,4231.36 L 2799.88,4218.05 L 2806.88,4205.94 L 2816.24,4195.54 L 2827.56,4187.31 L 2840.34,4181.62 L 2854.03,4178.71 L 2868.02,4178.71 L 2881.71,4181.62 L 2894.49,4187.31 L 2905.81,4195.54 L 2915.14,4205.91 L 3645.28,4205.91 L 3652.96,4206.66 L 3660.34,4208.9 L 3667.15,4212.54 L 3673.11,4217.44 L 3834.02,4378.35 L 3912.2,4378.35 L 3912.2,4512.2 z " style="fill-opacity:1.000000;fill:rgb(67,251,250);stroke:rgb(0,0,0);stroke-width:2"/></g>
<g fill-rule="evenodd"><path d="M 3912.2,3778.35 L 3912.2,3912.2 L 3778.35,3912.2 L 3778.35,3884.65 L 2915.14,3884.65 L 2905.81,3895.01 L 2894.49,3903.24 L 2881.71,3908.93 L 2868.02,3911.84 L 2854.03,3911.84 L 2840.34,3908.93 L 2827.56,3903.24 L 2816.24,3895.01 L 2806.88,3884.62 L 2799.88,3872.5 L 2795.56,3859.19 L 2794.09,3845.28 L 2795.56,3831.36 L 2799.88,3818.05 L 2806.88,3805.94 L 2816.24,3795.54 L 2827.56,3787.31 L 2840.34,3781.62 L 2854.03,3778.71 L 2868.02,3778.71 L 2881.71,3781.62 L 2894.49,3787.31 L 2905.81,3795.54 L 2915.14,3805.91 L 3778.35,3805.91 L 3778.35,3778.35 L 3912.2,3778.35 z " style="fill-opacity:1.000000;fill:rgb(170,58,251);stroke:rgb(0,0,0);stroke-width:2"/></g>
<g fill-rule="evenodd"><path d="M 1022.62,4900.36 L 1015.63,4888.25 L 1011.31,4874.94 L 1009.84,4861.02 L 1011.31,4847.11 L 1015.63,4833.8 L 1022.62,4821.68 L 1031.99,4811.29 L 1043.31,4803.06 L 1056.09,4797.37 L 1069.78,4794.46 L 1083.77,4794.46 L 1097.45,4797.37 L 1110.24,4803.06 L 1121.56,4811.29 L 1130.89,4821.65 L 2413.22,4821.65 L 2605.91,4628.97 L 2605.91,1412.21 L 2606.39,1406.05 L 2607.83,1400.04 L 2610.2,1394.33 L 2613.42,1389.06 L 2617.44,1384.37 L 2784.37,1217.44 L 2790.33,1212.54 L 2797.14,1208.9 L 2804.53,1206.66 L 2812.21,1205.91 L 2878.35,1205.91 L 2884.51,1206.39 L 2890.51,1207.83 L 2896.22,1210.2 L 2901.49,1213.42 L 2906.19,1217.44 L 3073.11,1384.37 L 3078.01,1390.33 L 3081.65,1397.14 L 3083.89,1404.52 L 3084.65,1412.21 L 3084.65,2828.97 L 3261.58,3005.91 L 3778.35,3005.91 L 3778.35,2978.35 L 3912.2,2978.35 L 3912.2,3112.2 L 3778.35,3112.2 L 3778.35,3084.65 L 3245.28,3084.65 L 3237.59,3083.89 L 3230.21,3081.65 L 3223.4,3078.01 L 3217.44,3073.11 L 3017.44,2873.11 L 3012.54,2867.15 L 3008.9,2860.34 L 3006.66,2852.96 L 3005.91,2845.28 L 3005.91,1428.51 L 2862.04,1284.65 L 2828.52,1284.65 L 2684.65,1428.51 L 2684.65,4645.28 L 2683.89,4652.96 L 2681.65,4660.34 L 2678.01,4667.15 L 2673.11,4673.11 L 2457.37,4888.86 L 2452.67,4892.87 L 2447.4,4896.1 L 2441.69,4898.47 L 2435.69,4899.91 L 2429.53,4900.39 L 1130.89,4900.39 L 1121.56,4910.76 L 1110.24,4918.99 L 1097.45,4924.68 L 1083.77,4927.59 L 1069.78,4927.59 L 1056.09,4924.68 L 1043.31,4918.99 L 1031.99,4910.76 L 1022.62,4900.36 z " style="fill-opacity:1.000000;fill:rgb(41,209,230);stroke:rgb(0,0,0);stroke-width:2"/></g>
<g fill-rule="evenodd"><path d="M 1022.62,4700.36 L 1015.63,4688.25 L 1011.31,4674.94 L 1009.84,4661.02 L 1011.31,4647.11 L 1015.63,4633.8 L 1022.62,4621.68 L 1031.99,4611.29 L 1043.31,4603.06 L 1056.09,4597.37 L 1069.78,4594.46 L 1083.77,4594.46 L 1097.45,4597.37 L 1110.24,4603.06 L 1121.56,4611.29 L 1130.89,4621.65 L 2213.22,4621.65 L 2405.91,4428.97 L 2405.91,1245.28 L 2406.66,1237.59 L 2408.9,1230.21 L 2412.54,1223.4 L 2417.44,1217.44 L 2617.44,1017.44 L 2623.4,1012.54 L 2630.21,1008.9 L 2637.59,1006.66 L 2645.28,1005.91 L 3045.28,1005.91 L 3052.96,1006.66 L 3060.34,1008.9 L 3067.15,1012.54 L 3073.11,1017.44 L 3273.11,1217.44 L 3278.01,1223.4 L 3281.65,1230.21 L 3283.89,1237.59 L 3284.65,1245.28 L 3284.65,2628.97 L 3461.58,2805.91 L 3791.16,2805.91 L 3800.49,2795.54 L 3811.81,2787.31 L 3824.59,2781.62 L 3838.28,2778.71 L 3852.27,2778.71 L 3865.96,2781.62 L 3878.74,2787.31 L 3890.06,2795.54 L 3899.42,2805.94 L 3906.42,2818.05 L 3910.74,2831.36 L 3912.2,2845.28 L 3910.74,2859.19 L 3906.42,2872.5 L 3899.42,2884.62 L 3890.06,2895.01 L 3878.74,2903.24 L 3865.96,2908.93 L 3852.27,2911.84 L 3838.28,2911.84 L 3824.59,2908.93 L 3811.81,2903.24 L 3800.49,2895.01 L 3791.16,2884.65 L 3445.28,2884.65 L 3437.59,2883.89 L 3430.21,2881.65 L 3423.4,2878.01 L 3417.44,2873.11 L 3217.44,2673.11 L 3212.54,2667.15 L 3208.9,2660.34 L 3206.66,2652.96 L 3205.91,2645.28 L 3205.91,1261.58 L 3028.97,1084.65 L 2661.58,1084.65 L 2484.65,1261.58 L 2484.65,4445.28 L 2483.89,4452.96 L 2481.65,4460.34 L 2478.01,4467.15 L 2473.11,4473.11 L 2257.37,4688.86 L 2252.67,4692.87 L 2247.4,4696.1 L 2241.69,4698.47 L 2235.69,4699.91 L 2229.53,4700.39 L 1130.89,4700.39 L 1121.56,4710.76 L 1110.24,4718.99 L 1097.45,4724.68 L 1083.77,4727.59 L 1069.78,4727.59 L 1056.09,4724.68 L 1043.31,4718.99 L 1031.99,4710.76 L 1022.62,4700.36 z " style="fill-opacity:1.000000;fill:rgb(5,60,124);stroke:rgb(0,0,0);stroke-width:2"/></g>
<g fill-rule="evenodd"><path d="M 1015.63,3288.25 L 1011.31,3274.94 L 1009.84,3261.02 L 1011.31,3247.11 L 1015.63,3233.8 L 1022.62,3221.68 L 1031.99,3211.29 L 1043.31,3203.06 L 1056.09,3197.37 L 1069.78,3194.46 L 1083.77,3194.46 L 1097.45,3197.37 L 1110.24,3203.06 L 1121.56,3211.29 L 1130.89,3221.65 L 1544.72,3221.65 L 1805.91,2960.47 L 1805.91,645.276 L 1806.66,637.595 L 1808.9,630.209 L 1812.54,623.403 L 1817.44,617.437 L 2017.44,417.437 L 2023.4,412.541 L 2030.21,408.902 L 2037.59,406.662 L 2045.28,405.906 L 3645.28,405.906 L 3652.96,406.662 L 3660.34,408.902 L 3667.15,412.541 L 3673.11,417.437 L 3873.11,617.437 L 3878.01,623.403 L 3881.65,630.209 L 3883.89,637.595 L 3884.65,645.276 L 3884.65,1791.6 L 3890.06,1795.54 L 3899.42,1805.94 L 3906.42,1818.05 L 3910.74,1831.36 L 3912.2,1845.28 L 3910.74,1859.19 L 3906.42,1872.5 L 3899.42,1884.62 L 3890.06,1895.01 L 3878.74,1903.24 L 3865.96,1908.93 L 3852.27,1911.84 L 3838.28,1911.84 L 3824.59,1908.93 L 3811.81,1903.24 L 3800.49,1895.01 L 3791.13,1884.62 L 3784.13,1872.5 L 3779.81,1859.19 L 3778.35,1845.28 L 3779.81,1831.36 L 3784.13,1818.05 L 3791.13,1805.94 L 3800.49,1795.54 L 3805.91,1791.6 L 3805.91,661.583 L 3628.97,484.646 L 2061.58,484.646 L 1884.65,661.583 L 1884.65,2976.77 L 1884.16,2982.93 L 1882.72,2988.94 L 1880.35,2994.65 L 1877.13,2999.91 L 1873.11,3004.61 L 1588.86,3288.86 L 1582.9,3293.76 L 1576.09,3297.4 L 1568.7,3299.64 L 1561.02,3300.39 L 1130.89,3300.39 L 1121.56,3310.76 L 1110.24,3318.99 L 1097.45,3324.68 L 1083.77,3327.59 L 1069.78,3327.59 L 1056.09,3324.68 L 1043.31,3318.99 L 1031.99,3310.76 L 1022.62,3300.36 L 1015.63,3288.25 z " style="fill-opacity:1.000000;fill:rgb(148,117,216);stroke:rgb(0,0,0);stroke-width:2"/></g>
<g fill-rule="evenodd"><path d="M 1015.63,3488.25 L 1011.31,3474.94 L 1009.84,3461.02 L 1011.31,3447.11 L 1015.63,3433.8 L 1022.62,3421.68 L 1031.99,3411.29 L 1043.31,3403.06 L 1056.09,3397.37 L 1069.78,3394.46 L 1083.77,3394.46 L 1097.45,3397.37 L 1110.24,3403.06 L 1121.56,3411.29 L 1130.89,3421.65 L 1744.72,3421.65 L 2005.91,3160.47 L 2005.91,845.276 L 2006.66,837.595 L 2008.9,830.209 L 2012.54,823.403 L 2017.44,817.437 L 2217.44,617.437 L 2223.4,612.541 L 2230.21,608.902 L 2237.59,606.662 L 2245.28,605.906 L 3445.28,605.906 L 3452.96,606.662 L 3460.34,608.902 L 3467.15,612.541 L 3473.11,617.437 L 3673.11,817.437 L 3678.01,823.403 L 3681.65,830.209 L 3683.89,837.595 L 3684.65,845.276 L 3684.65,1828.97 L 3835.07,1979.39 L 3838.28,1978.71 L 3852.27,1978.71 L 3865.96,1981.62 L 3878.74,1987.31 L 3890.06,1995.54 L 3899.42,2005.94 L 3906.42,2018.05 L 3910.74,2031.36 L 3912.2,2045.28 L 3910.74,2059.19 L 3906.42,2072.5 L 3899.42,2084.62 L 3890.06,2095.01 L 3878.74,2103.24 L 3865.96,2108.93 L 3852.27,2111.84 L 3838.28,2111.84 L 3824.59,2108.93 L 3811.81,2103.24 L 3800.49,2095.01 L 3791.13,2084.62 L 3784.13,2072.5 L 3779.81,2059.19 L 3778.35,2045.28 L 3779.42,2035.09 L 3617.44,1873.11 L 3612.54,1867.15 L 3608.9,1860.34 L 3606.66,1852.96 L 3605.91,1845.28 L 3605.91,861.583 L 3428.97,684.646 L 2261.58,684.646 L 2084.65,861.583 L 2084.65,3176.77 L 2084.16,3182.93 L 2082.72,3188.94 L 2080.35,3194.65 L 2077.13,3199.91 L 2073.11,3204.61 L 1788.86,3488.86 L 1782.9,3493.76 L 1776.09,3497.4 L 1768.7,3499.64 L 1761.02,3500.39 L 1130.89,3500.39 L 1121.56,3510.76 L 1110.24,3518.99 L 1097.45,3524.68 L 1083.77,3527.59 L 1069.78,3527.59 L 1056.09,3524.68 L 1043.31,3518.99 L 1031.99,3510.76 L 1022.62,3500.36 L 1015.63,3488.25 z " style="fill-opacity:1.000000;fill:rgb(190,97,137);stroke:rgb(0,0,0);stroke-width:2"/></g>
<g fill-rule="evenodd"><path d="M 1022.62,4500.36 L 1015.63,4488.25 L 1011.31,4474.94 L 1009.84,4461.02 L 1011.31,4447.11 L 1015.63,4433.8 L 1022.62,4421.68 L 1031.99,4411.29 L 1043.31,4403.06 L 1056.09,4397.37 L 1069.78,4394.46 L 1083.77,4394.46 L 1097.45,4397.37 L 1110.24,4403.06 L 1121.56,4411.29 L 1130.89,4421.65 L 2022.47,4421.65 L 2024.65,4414.46 L 2028.29,4407.65 L 2033.18,4401.69 L 2205.91,4228.97 L 2205.91,1045.28 L 2206.66,1037.59 L 2208.9,1030.21 L 2212.54,1023.4 L 2217.44,1017.44 L 2417.44,817.437 L 2423.4,812.541 L 2430.21,808.902 L 2437.59,806.662 L 2445.28,805.906 L 3245.28,805.906 L 3252.96,806.662 L 3260.34,808.902 L 3267.15,812.541 L 3273.11,817.437 L 3473.11,1017.44 L 3478.01,1023.4 L 3481.65,1030.21 L 3483.89,1037.59 L 3484.65,1045.28 L 3484.65,2228.97 L 3661.58,2405.91 L 3791.16,2405.91 L 3800.49,2395.54 L 3811.81,2387.31 L 3824.59,2381.62 L 3838.28,2378.71 L 3852.27,2378.71 L 3865.96,2381.62 L 3878.74,2387.31 L 3890.06,2395.54 L 3899.42,2405.94 L 3906.42,2418.05 L 3910.74,2431.36 L 3912.2,2445.28 L 3910.74,2459.19 L 3906.42,2472.5 L 3899.42,2484.62 L 3890.06,2495.01 L 3878.74,2503.24 L 3865.96,2508.93 L 3852.27,2511.84 L 3838.28,2511.84 L 3824.59,2508.93 L 3811.81,2503.24 L 3800.49,2495.01 L 3791.16,2484.65 L 3645.28,2484.65 L 3637.59,2483.89 L 3630.21,2481.65 L 3623.4,2478.01 L 3617.44,2473.11 L 3417.44,2273.11 L 3412.54,2267.15 L 3408.9,2260.34 L 3406.66,2252.96 L 3405.91,2245.28 L 3405.91,1061.58 L 3228.97,884.646 L 2461.58,884.646 L 2284.65,1061.58 L 2284.65,4245.28 L 2283.89,4252.96 L 2281.65,4260.34 L 2278.01,4267.15 L 2273.11,4273.11 L 2100.39,4445.84 L 2100.39,4461.02 L 2099.64,4468.7 L 2097.4,4476.09 L 2093.76,4482.9 L 2088.86,4488.86 L 2082.9,4493.76 L 2076.09,4497.4 L 2068.7,4499.64 L 2061.02,4500.39 L 1130.89,4500.39 L 1121.56,4510.76 L 1110.24,4518.99 L 1097.45,4524.68 L 1083.77,4527.59 L 1069.78,4527.59 L 1056.09,4524.68 L 1043.31,4518.99 L 1031.99,4510.76 L 1022.62,4500.36 z " style="fill-opacity:1.000000;fill:rgb(249,92,187);stroke:rgb(0,0,0);stroke-width:2"/></g>
<g fill-rule="evenodd"><path d="M 1011.31,3074.94 L 1009.84,3061.02 L 1011.31,3047.11 L 1015.63,3033.8 L 1022.62,3021.68 L 1031.99,3011.29 L 1043.31,3003.06 L 1056.09,2997.37 L 1069.78,2994.46 L 1083.77,2994.46 L 1097.45,2997.37 L 1110.24,3003.06 L 1121.56,3011.29 L 1130.89,3021.65 L 1444.72,3021.65 L 1621.65,2844.72 L 1621.65,429.528 L 1622.41,421.847 L 1624.65,414.461 L 1628.29,407.655 L 1633.18,401.689 L 1817.44,217.437 L 1823.4,212.541 L 1830.21,208.902 L 1837.59,206.662 L 1845.28,205.906 L 3750.79,205.906 L 3756.95,206.39 L 3762.95,207.832 L 3768.66,210.197 L 3773.93,213.425 L 3778.63,217.437 L 4073.11,511.927 L 4078.01,517.893 L 4081.65,524.699 L 4083.89,532.085 L 4084.65,539.766 L 4084.65,2181.81 L 4084.16,2187.97 L 4082.72,2193.98 L 4080.35,2199.69 L 4077.13,2204.95 L 4073.11,2209.65 L 4009.65,2273.11 L 4003.68,2278.01 L 3996.88,2281.65 L 3989.49,2283.89 L 3981.81,2284.65 L 3899.4,2284.65 L 3890.06,2295.01 L 3878.74,2303.24 L 3865.96,2308.93 L 3852.27,2311.84 L 3838.28,2311.84 L 3824.59,2308.93 L 3811.81,2303.24 L 3800.49,2295.01 L 3791.13,2284.62 L 3784.13,2272.5 L 3779.81,2259.19 L 3778.35,2245.28 L 3779.81,2231.36 L 3784.13,2218.05 L 3791.13,2205.94 L 3800.49,2195.54 L 3811.81,2187.31 L 3824.59,2181.62 L 3838.28,2178.71 L 3852.27,2178.71 L 3865.96,2181.62 L 3878.74,2187.31 L 3890.06,2195.54 L 3899.4,2205.91 L 3965.5,2205.91 L 4005.91,2165.5 L 4005.91,556.073 L 3734.48,284.646 L 1861.58,284.646 L 1700.39,445.835 L 1700.39,2861.02 L 1699.64,2868.7 L 1697.4,2876.09 L 1693.76,2882.9 L 1688.86,2888.86 L 1488.86,3088.86 L 1482.9,3093.76 L 1476.09,3097.4 L 1468.7,3099.64 L 1461.02,3100.39 L 1130.89,3100.39 L 1121.56,3110.76 L 1110.24,3118.99 L 1097.45,3124.68 L 1083.77,3127.59 L 1069.78,3127.59 L 1056.09,3124.68 L 1043.31,3118.99 L 1031.99,3110.76 L 1022.62,3100.36 L 1015.63,3088.25 L 1011.31,3074.94 z " style="fill-opacity:1.000000;fill:rgb(168,153,15);stroke:rgb(0,0,0);stroke-width:2"/></g>
</svg>
