<?xml version="1.0" standalone="no"?>
<!DOCTYPE svg PUBLIC "-//W3C//DTD SVG 1.1//EN"
"http://www.w3.org/Graphics/SVG/1.1/DTD/svg11.dtd">
<svg width="234.746" height="263.546" viewBox="0 0 4890.55 5490.55" version="1.1"
xmlns="http://www.w3.org/2000/svg"
xmlns:xlink="http://www.w3.org/1999/xlink">
<g fill-rule="evenodd"><path d="M 4786.7,103.856 L 4811.57,134.162 L 4830.05,168.74 L 4841.43,206.258 L 4845.28,245.276 L 4845.28,5245.28 L 4841.43,5284.3 L 4830.05,5321.81 L 4811.57,5356.39 L 4786.7,5386.7 L 4756.39,5411.57 L 4721.81,5430.05 L 4684.3,5441.43 L 4645.28,5445.28 L 245.276,5445.28 L 206.258,5441.43 L 168.74,5430.05 L 134.162,5411.57 L 103.856,5386.7 L 78.9836,5356.39 L 60.5016,5321.81 L 49.1196,5284.3 L 45.2756,5245.28 L 45.2756,245.276 L 49.1196,206.258 L 60.5016,168.74 L 78.9836,134.162 L 103.856,103.856 L 134.162,78.9836 L 168.74,60.5016 L 206.258,49.1196 L 245.276,45.2756 L 4645.28,45.2756 L 4684.3,49.1196 L 4721.81,60.5016 L 4756.39,78.9836 L 4786.7,103.856 z " style="fill-opacity:1.000000;fill:rgb(103,198,105);stroke:rgb(0,0,0);stroke-width:2"/></g>
</svg>
