<?xml version="1.0" standalone="no"?>
<!DOCTYPE svg PUBLIC "-//W3C//DTD SVG 1.1//EN"
"http://www.w3.org/Graphics/SVG/1.1/DTD/svg11.dtd">
<svg width="234.746" height="263.546" viewBox="0 0 4890.55 5490.55" version="1.1"
xmlns="http://www.w3.org/2000/svg"
xmlns:xlink="http://www.w3.org/1999/xlink">
<g fill-rule="evenodd"><path d="M 0,5490.55 L 0,0 L 4890.55,0 L 4890.55,5490.55 L 0,5490.55 z " style="fill-opacity:0.200000;fill:rgb(103,198,105);"/></g>
<polyline points="25.5916,5245.28 25.6856,5247.21 29.5296,5286.23 29.8136,5288.14 30.2836,5290.01 41.6656,5327.53 43.1416,5331.09 61.6236,5365.67 62.6176,5367.33 63.7676,5368.88 88.6396,5399.19 91.3676,5401.92 121.674,5426.79 123.226,5427.94 124.884,5428.93 159.462,5447.41 163.026,5448.89 200.544,5460.27 202.418,5460.74 204.33,5461.02 243.348,5464.87 245.276,5464.96 4645.28,5464.96 4647.21,5464.87 4686.23,5461.02 4688.14,5460.74 4690.01,5460.27 4727.53,5448.89 4731.09,5447.41 4765.67,5428.93 4767.33,5427.94 4768.88,5426.79 4799.19,5401.92 4801.92,5399.19 4826.79,5368.88 4827.94,5367.33 4828.93,5365.67 4847.41,5331.09 4848.89,5327.53 4860.27,5290.01 4860.74,5288.14 4861.02,5286.23 4864.87,5247.21 4864.96,5245.28 4864.96,245.276 4864.87,243.348 4861.02,204.33 4860.74,202.418 4860.27,200.544 4848.89,163.026 4847.41,159.462 4828.93,124.884 4827.94,123.226 4826.79,121.674 4801.92,91.3676 4799.19,88.6396 4768.88,63.7676 4767.33,62.6176 4765.67,61.6236 4731.09,43.1416 4727.53,41.6656 4690.01,30.2836 4688.14,29.8136 4686.23,29.5296 4647.21,25.6856 4645.28,25.5916 245.276,25.5916 243.348,25.6856 204.33,29.5296 200.544,30.2836 163.026,41.6656 159.462,43.1416 124.884,61.6236 123.226,62.6176 121.674,63.7676 91.3676,88.6396 88.6396,91.3676 63.7676,121.674 62.6176,123.226 61.6236,124.884 43.1416,159.462 41.6656,163.026 30.2836,200.544 29.5296,204.33 25.6856,243.348 25.5916,245.276 25.5916,5245.28" style="stroke:rgb(103,198,105);stroke-width:39.370079;fill:none;stroke-opacity:0.5;stroke-linecap:round;stroke-linejoin:round;;fill:none"/>
<polyline points="25.5916,5245.28 25.6856,5247.21 29.5296,5286.23 29.8136,5288.14 30.2836,5290.01 41.6656,5327.53 43.1416,5331.09 61.6236,5365.67 62.6176,5367.33 63.7676,5368.88 88.6396,5399.19 91.3676,5401.92 121.674,5426.79 123.226,5427.94 124.884,5428.93 159.462,5447.41 163.026,5448.89 200.544,5460.27 202.418,5460.74 204.33,5461.02 243.348,5464.87 245.276,5464.96 4645.28,5464.96 4647.21,5464.87 4686.23,5461.02 4688.14,5460.74 4690.01,5460.27 4727.53,5448.89 4731.09,5447.41 4765.67,5428.93 4767.33,5427.94 4768.88,5426.79 4799.19,5401.92 4801.92,5399.19 4826.79,5368.88 4827.94,5367.33 4828.93,5365.67 4847.41,5331.09 4848.89,5327.53 4860.27,5290.01 4860.74,5288.14 4861.02,5286.23 4864.87,5247.21 4864.96,5245.28 4864.96,245.276 4864.87,243.348 4861.02,204.33 4860.74,202.418 4860.27,200.544 4848.89,163.026 4847.41,159.462 4828.93,124.884 4827.94,123.226 4826.79,121.674 4801.92,91.3676 4799.19,88.6396 4768.88,63.7676 4767.33,62.6176 4765.67,61.6236 4731.09,43.1416 4727.53,41.6656 4690.01,30.2836 4688.14,29.8136 4686.23,29.5296 4647.21,25.6856 4645.28,25.5916 245.276,25.5916 243.348,25.6856 204.33,29.5296 200.544,30.2836 163.026,41.6656 159.462,43.1416 124.884,61.6236 123.226,62.6176 121.674,63.7676 91.3676,88.6396 88.6396,91.3676 63.7676,121.674 62.6176,123.226 61.6236,124.884 43.1416,159.462 41.6656,163.026 30.2836,200.544 29.5296,204.33 25.6856,243.348 25.5916,245.276 25.5916,5245.28" style="stroke:rgb(0,0,0);stroke-width:1px;fill:none;stroke-opacity:1;stroke-linecap:round;stroke-linejoin:round;;fill:none"/>
<g fill-rule="evenodd"><path d="M 4786.7,103.856 L 4811.57,134.162 L 4830.05,168.74 L 4841.43,206.258 L 4845.28,245.276 L 4845.28,5245.28 L 4841.43,5284.3 L 4830.05,5321.81 L 4811.57,5356.39 L 4786.7,5386.7 L 4756.39,5411.57 L 4721.81,5430.05 L 4684.3,5441.43 L 4645.28,5445.28 L 245.276,5445.28 L 206.258,5441.43 L 168.74,5430.05 L 134.162,5411.57 L 103.856,5386.7 L 78.9836,5356.39 L 60.5016,5321.81 L 49.1196,5284.3 L 45.2756,5245.28 L 45.2756,245.276 L 49.1196,206.258 L 60.5016,168.74 L 78.9836,134.162 L 103.856,103.856 L 134.162,78.9836 L 168.74,60.5016 L 206.258,49.1196 L 245.276,45.2756 L 4645.28,45.2756 L 4684.3,49.1196 L 4721.81,60.5016 L 4756.39,78.9836 L 4786.7,103.856 z " style="fill-opacity:1.000000;fill:rgb(103,198,105);stroke:rgb(0,0,0);stroke-width:2"/></g>
</svg>
