%TF.GenerationSoftware,KiCad,Pcbnew,5.1.8-db9833491~88~ubuntu20.04.1*%
%TF.CreationDate,2020-11-28T17:49:58-07:00*%
%TF.ProjectId,Sound-Clock-Board,536f756e-642d-4436-9c6f-636b2d426f61,rev?*%
%TF.SameCoordinates,Original*%
%TF.FileFunction,Copper,L2,Bot*%
%TF.FilePolarity,Positive*%
%FSLAX46Y46*%
G04 Gerber Fmt 4.6, Leading zero omitted, Abs format (unit mm)*
G04 Created by KiCad (PCBNEW 5.1.8-db9833491~88~ubuntu20.04.1) date 2020-11-28 17:49:58*
%MOMM*%
%LPD*%
G01*
G04 APERTURE LIST*
%TA.AperFunction,ComponentPad*%
%ADD10R,1.700000X1.700000*%
%TD*%
%TA.AperFunction,ComponentPad*%
%ADD11O,1.700000X1.700000*%
%TD*%
%TA.AperFunction,Conductor*%
%ADD12C,1.000000*%
%TD*%
G04 APERTURE END LIST*
D10*
%TO.P,J5,1*%
%TO.N,Net-(J2-Pad13)*%
X-12900000Y20520000D03*
%TD*%
D11*
%TO.P,J4,2*%
%TO.N,Net-(J2-Pad17)*%
X-12900000Y10360000D03*
D10*
%TO.P,J4,1*%
%TO.N,Net-(J2-Pad15)*%
X-12900000Y12900000D03*
%TD*%
D11*
%TO.P,J3,7*%
%TO.N,Net-(J1-Pad10)*%
X-12900000Y45920000D03*
%TO.P,J3,6*%
%TO.N,Net-(J1-Pad11)*%
X-12900000Y43380000D03*
%TO.P,J3,5*%
%TO.N,Net-(J1-Pad9)*%
X-12900000Y40840000D03*
%TO.P,J3,4*%
%TO.N,Net-(J1-Pad16)*%
X-12900000Y38300000D03*
%TO.P,J3,3*%
%TO.N,Net-(J3-Pad3)*%
X-12900000Y35760000D03*
%TO.P,J3,2*%
%TO.N,Net-(J1-Pad17)*%
X-12900000Y33220000D03*
D10*
%TO.P,J3,1*%
%TO.N,Net-(J1-Pad18)*%
X-12900000Y30680000D03*
%TD*%
D11*
%TO.P,J2,20*%
%TO.N,Net-(J2-Pad20)*%
X-25400000Y2740000D03*
%TO.P,J2,19*%
%TO.N,Net-(J2-Pad19)*%
X-25400000Y5280000D03*
%TO.P,J2,18*%
%TO.N,Net-(J2-Pad18)*%
X-25400000Y7820000D03*
%TO.P,J2,17*%
%TO.N,Net-(J2-Pad17)*%
X-25400000Y10360000D03*
%TO.P,J2,16*%
%TO.N,Net-(J2-Pad16)*%
X-25400000Y12900000D03*
%TO.P,J2,15*%
%TO.N,Net-(J2-Pad15)*%
X-25400000Y15440000D03*
%TO.P,J2,14*%
%TO.N,Net-(J2-Pad14)*%
X-25400000Y17980000D03*
%TO.P,J2,13*%
%TO.N,Net-(J2-Pad13)*%
X-25400000Y20520000D03*
%TO.P,J2,12*%
%TO.N,Net-(J2-Pad12)*%
X-25400000Y23060000D03*
%TO.P,J2,11*%
%TO.N,Net-(J2-Pad11)*%
X-25400000Y25600000D03*
%TO.P,J2,10*%
%TO.N,Net-(J2-Pad10)*%
X-25400000Y28140000D03*
%TO.P,J2,9*%
%TO.N,Net-(J2-Pad9)*%
X-25400000Y30680000D03*
%TO.P,J2,8*%
%TO.N,Net-(J2-Pad8)*%
X-25400000Y33220000D03*
%TO.P,J2,7*%
%TO.N,Net-(J2-Pad7)*%
X-25400000Y35760000D03*
%TO.P,J2,6*%
%TO.N,Net-(J2-Pad6)*%
X-25400000Y38300000D03*
%TO.P,J2,5*%
%TO.N,Net-(J2-Pad5)*%
X-25400000Y40840000D03*
%TO.P,J2,4*%
%TO.N,Net-(J2-Pad4)*%
X-25400000Y43380000D03*
%TO.P,J2,3*%
%TO.N,Net-(J2-Pad3)*%
X-25400000Y45920000D03*
%TO.P,J2,2*%
%TO.N,Net-(J2-Pad2)*%
X-25400000Y48460000D03*
D10*
%TO.P,J2,1*%
%TO.N,Net-(J2-Pad1)*%
X-25400000Y51000000D03*
%TD*%
D11*
%TO.P,J1,20*%
%TO.N,Net-(J1-Pad20)*%
X-48060000Y2540000D03*
%TO.P,J1,19*%
%TO.N,Net-(J1-Pad19)*%
X-48060000Y5080000D03*
%TO.P,J1,18*%
%TO.N,Net-(J1-Pad18)*%
X-48060000Y7620000D03*
%TO.P,J1,17*%
%TO.N,Net-(J1-Pad17)*%
X-48060000Y10160000D03*
%TO.P,J1,16*%
%TO.N,Net-(J1-Pad16)*%
X-48060000Y12700000D03*
%TO.P,J1,15*%
%TO.N,Net-(J1-Pad15)*%
X-48060000Y15240000D03*
%TO.P,J1,14*%
%TO.N,Net-(J1-Pad14)*%
X-48060000Y17780000D03*
%TO.P,J1,13*%
%TO.N,Net-(J1-Pad13)*%
X-48060000Y20320000D03*
%TO.P,J1,12*%
%TO.N,Net-(J1-Pad12)*%
X-48060000Y22860000D03*
%TO.P,J1,11*%
%TO.N,Net-(J1-Pad11)*%
X-48060000Y25400000D03*
%TO.P,J1,10*%
%TO.N,Net-(J1-Pad10)*%
X-48060000Y27940000D03*
%TO.P,J1,9*%
%TO.N,Net-(J1-Pad9)*%
X-48060000Y30480000D03*
%TO.P,J1,8*%
%TO.N,Net-(J1-Pad8)*%
X-48060000Y33020000D03*
%TO.P,J1,7*%
%TO.N,Net-(J1-Pad7)*%
X-48060000Y35560000D03*
%TO.P,J1,6*%
%TO.N,Net-(J1-Pad6)*%
X-48060000Y38100000D03*
%TO.P,J1,5*%
%TO.N,Net-(J1-Pad5)*%
X-48060000Y40640000D03*
%TO.P,J1,4*%
%TO.N,Net-(J1-Pad4)*%
X-48060000Y43180000D03*
%TO.P,J1,3*%
%TO.N,Net-(J1-Pad3)*%
X-48060000Y45720000D03*
%TO.P,J1,2*%
%TO.N,Net-(J1-Pad2)*%
X-48060000Y48260000D03*
D10*
%TO.P,J1,1*%
%TO.N,Net-(J1-Pad1)*%
X-48060000Y50800000D03*
%TD*%
D12*
%TO.N,Net-(J1-Pad18)*%
X-20520000Y30680000D02*
X-12900000Y30680000D01*
X-23060000Y33220000D02*
X-20520000Y30680000D01*
X-23060000Y51420002D02*
X-23060000Y33220000D01*
X-28140000Y51420002D02*
X-26020002Y53540000D01*
X-25179998Y53540000D02*
X-23060000Y51420002D01*
X-28140000Y10360000D02*
X-28140000Y51420002D01*
X-26020002Y53540000D02*
X-25179998Y53540000D01*
X-30880000Y7620000D02*
X-28140000Y10360000D01*
X-48060000Y7620000D02*
X-30880000Y7620000D01*
%TO.N,Net-(J1-Pad17)*%
X-17980000Y33220000D02*
X-20520000Y35760000D01*
X-12900000Y33220000D02*
X-17980000Y33220000D01*
X-20520000Y53540000D02*
X-23060000Y56080000D01*
X-20520000Y53540000D02*
X-20520000Y35760000D01*
X-30680000Y53540000D02*
X-28140000Y56080000D01*
X-28140000Y56080000D02*
X-23060000Y56080000D01*
X-30680000Y12900000D02*
X-30680000Y53540000D01*
X-33420000Y10160000D02*
X-30680000Y12900000D01*
X-48060000Y10160000D02*
X-33420000Y10160000D01*
%TO.N,Net-(J1-Pad16)*%
X-17980000Y40840000D02*
X-15440000Y38300000D01*
X-17980000Y56080000D02*
X-17980000Y40840000D01*
X-20520000Y58620000D02*
X-17980000Y56080000D01*
X-33220000Y56080000D02*
X-30680000Y58620000D01*
X-30680000Y58620000D02*
X-20520000Y58620000D01*
X-33220000Y15440000D02*
X-33220000Y56080000D01*
X-15440000Y38300000D02*
X-12900000Y38300000D01*
X-48060000Y12700000D02*
X-35560000Y12700000D01*
X-35560000Y13100000D02*
X-33220000Y15440000D01*
X-35560000Y12700000D02*
X-35560000Y13100000D01*
%TO.N,Net-(J1-Pad11)*%
X-12900000Y43380000D02*
X-15440000Y45920000D01*
X-15440000Y58620000D02*
X-17980000Y61160000D01*
X-15440000Y58620000D02*
X-15440000Y45920000D01*
X-33220000Y61160000D02*
X-17980000Y61160000D01*
X-35760000Y58620000D02*
X-33220000Y61160000D01*
X-35760000Y38300000D02*
X-35760000Y58620000D01*
X-35760000Y37700000D02*
X-35760000Y38300000D01*
X-39370000Y25400000D02*
X-35760000Y29010000D01*
X-48060000Y25400000D02*
X-39370000Y25400000D01*
X-35760000Y29010000D02*
X-35760000Y38300000D01*
%TO.N,Net-(J1-Pad10)*%
X-15440000Y63700000D02*
X-12900000Y61160000D01*
X-35760000Y63700000D02*
X-15440000Y63700000D01*
X-38300000Y61160000D02*
X-35760000Y63700000D01*
X-12900000Y61160000D02*
X-12900000Y45920000D01*
X-41910000Y27940000D02*
X-38300000Y31550000D01*
X-48060000Y27940000D02*
X-41910000Y27940000D01*
X-38300000Y31550000D02*
X-38300000Y61160000D01*
%TO.N,Net-(J1-Pad9)*%
X-11166000Y40840000D02*
X-12900000Y40840000D01*
X-10360000Y62499990D02*
X-10360000Y41646000D01*
X-10360000Y41646000D02*
X-11166000Y40840000D01*
X-14100010Y66240000D02*
X-10360000Y62499990D01*
X-38300000Y66240000D02*
X-14100010Y66240000D01*
X-40205000Y64335000D02*
X-38300000Y66240000D01*
X-40640000Y63900000D02*
X-40205000Y64335000D01*
X-48060000Y30480000D02*
X-43180000Y30480000D01*
X-43180000Y30480000D02*
X-40640000Y33020000D01*
X-40640000Y33020000D02*
X-40640000Y38100000D01*
X-40640000Y38100000D02*
X-40640000Y63900000D01*
X-40640000Y37900000D02*
X-40640000Y38100000D01*
%TO.N,Net-(J2-Pad17)*%
X-25600000Y10360000D02*
X-12900000Y10360000D01*
%TO.N,Net-(J2-Pad15)*%
X-15440000Y15440000D02*
X-12900000Y12900000D01*
X-25600000Y15440000D02*
X-15440000Y15440000D01*
%TO.N,Net-(J2-Pad13)*%
X-25600000Y20520000D02*
X-12900000Y20520000D01*
%TD*%
M02*
