M48
; DRILL file {KiCad 5.1.8-db9833491~88~ubuntu20.04.1} date Tue Dec  1 16:57:20 2020
; FORMAT={3:3/ absolute / metric / suppress leading zeros}
; #@! TF.CreationDate,2020-12-01T16:57:20-07:00
; #@! TF.GenerationSoftware,Kicad,Pcbnew,5.1.8-db9833491~88~ubuntu20.04.1
FMAT,2
METRIC,TZ
T1C1.000
T2C3.200
%
G90
G05
T1
X-5280Y21790
X-17780Y52270
X-17780Y49730
X-17780Y47190
X-17780Y44650
X-17780Y42110
X-17780Y39570
X-17780Y37030
X-17780Y34490
X-17780Y31950
X-17780Y29410
X-17780Y26870
X-17780Y24330
X-17780Y21790
X-17780Y19250
X-17780Y16710
X-17780Y14170
X-17780Y11630
X-17780Y9090
X-17780Y6550
X-17780Y4010
X-62230Y43180
X-59690Y43180
X-57150Y43180
X-54610Y43180
X-52070Y43180
X-49530Y43180
X-46990Y43180
X-40440Y52070
X-40440Y49530
X-40440Y46990
X-40440Y44450
X-40440Y41910
X-40440Y39370
X-40440Y36830
X-40440Y34290
X-40440Y31750
X-40440Y29210
X-40440Y26670
X-40440Y24130
X-40440Y21590
X-40440Y19050
X-40440Y16510
X-40440Y13970
X-40440Y11430
X-40440Y8890
X-40440Y6350
X-40440Y3810
X-5280Y19050
X-5280Y16510
T2
X-60960Y6350
X-60960Y52070
X-5080Y52070
X-5080Y6350
T0
M30
