M48
; DRILL file {KiCad 5.1.8-db9833491~88~ubuntu20.04.1} date Sat Nov 28 17:50:04 2020
; FORMAT={3:3/ absolute / metric / suppress leading zeros}
; #@! TF.CreationDate,2020-11-28T17:50:04-07:00
; #@! TF.GenerationSoftware,Kicad,Pcbnew,5.1.8-db9833491~88~ubuntu20.04.1
FMAT,2
METRIC,TZ
T1C1.000
T2C3.200
%
G90
G05
T1
X-48060Y50800
X-48060Y48260
X-48060Y45720
X-48060Y43180
X-48060Y40640
X-48060Y38100
X-48060Y35560
X-48060Y33020
X-48060Y30480
X-48060Y27940
X-48060Y25400
X-48060Y22860
X-48060Y20320
X-48060Y17780
X-48060Y15240
X-48060Y12700
X-48060Y10160
X-48060Y7620
X-48060Y5080
X-48060Y2540
X-12900Y20520
X-25400Y51000
X-25400Y48460
X-25400Y45920
X-25400Y43380
X-25400Y40840
X-25400Y38300
X-25400Y35760
X-25400Y33220
X-25400Y30680
X-25400Y28140
X-25400Y25600
X-25400Y23060
X-25400Y20520
X-25400Y17980
X-25400Y15440
X-25400Y12900
X-25400Y10360
X-25400Y7820
X-25400Y5280
X-25400Y2740
X-12900Y12900
X-12900Y10360
X-12900Y45920
X-12900Y43380
X-12900Y40840
X-12900Y38300
X-12900Y35760
X-12900Y33220
X-12900Y30680
T2
X-5080Y63500
X-5080Y6350
X-55880Y6350
X-55880Y63500
T0
M30
