M48
; DRILL file {KiCad 5.1.8-db9833491~88~ubuntu20.04.1} date Fri Nov 27 14:55:46 2020
; FORMAT={3:3/ absolute / metric / suppress leading zeros}
; #@! TF.CreationDate,2020-11-27T14:55:46-07:00
; #@! TF.GenerationSoftware,Kicad,Pcbnew,5.1.8-db9833491~88~ubuntu20.04.1
FMAT,2
METRIC,TZ
T1C1.000
T2C2.200
%
G90
G05
T1
X-51000Y51000
X-51000Y48460
X-51000Y45920
X-51000Y43380
X-51000Y40840
X-51000Y38300
X-51000Y35760
X-51000Y33220
X-51000Y30680
X-51000Y28140
X-51000Y25600
X-51000Y23060
X-51000Y20520
X-51000Y17980
X-51000Y15440
X-51000Y12900
X-51000Y10360
X-51000Y7820
X-51000Y5280
X-51000Y2740
X-12900Y12900
X-12900Y10360
X-25600Y51000
X-25600Y48460
X-25600Y45920
X-25600Y43380
X-25600Y40840
X-25600Y38300
X-25600Y35760
X-25600Y33220
X-25600Y30680
X-25600Y28140
X-25600Y25600
X-25600Y23060
X-25600Y20520
X-25600Y17980
X-25600Y15440
X-25600Y12900
X-25600Y10360
X-25600Y7820
X-25600Y5280
X-25600Y2740
X-12900Y45920
X-12900Y43380
X-12900Y40840
X-12900Y38300
X-12900Y35760
X-12900Y33220
X-12900Y30680
X-12900Y20520
T2
X-5280Y63700
X-56080Y5280
X-56080Y63700
X-5280Y5280
T0
M30
