M48
; DRILL file {KiCad 5.1.8-db9833491~88~ubuntu20.04.1} date Fri Nov 27 11:24:38 2020
; FORMAT={3:3/ absolute / metric / suppress leading zeros}
; #@! TF.CreationDate,2020-11-27T11:24:38-07:00
; #@! TF.GenerationSoftware,Kicad,Pcbnew,5.1.8-db9833491~88~ubuntu20.04.1
FMAT,2
METRIC,TZ
T1C1.000
T2C2.200
%
G90
G05
T1
X165100Y-68580
X165100Y-71120
X165100Y-73660
X165100Y-76200
X165100Y-78740
X165100Y-81280
X165100Y-83820
X165100Y-93980
X127000Y-63500
X127000Y-66040
X127000Y-68580
X127000Y-71120
X127000Y-73660
X127000Y-76200
X127000Y-78740
X127000Y-81280
X127000Y-83820
X127000Y-86360
X127000Y-88900
X127000Y-91440
X127000Y-93980
X127000Y-96520
X127000Y-99060
X127000Y-101600
X127000Y-104140
X127000Y-106680
X127000Y-109220
X127000Y-111760
X152400Y-63500
X152400Y-66040
X152400Y-68580
X152400Y-71120
X152400Y-73660
X152400Y-76200
X152400Y-78740
X152400Y-81280
X152400Y-83820
X152400Y-86360
X152400Y-88900
X152400Y-91440
X152400Y-93980
X152400Y-96520
X152400Y-99060
X152400Y-101600
X152400Y-104140
X152400Y-106680
X152400Y-109220
X152400Y-111760
X165100Y-101600
X165100Y-104140
T2
X172720Y-50800
X121920Y-50800
X121920Y-109220
X172720Y-109220
T0
M30
