<?xml version="1.0" standalone="no"?>
<!DOCTYPE svg PUBLIC "-//W3C//DTD SVG 1.1//EN"
"http://www.w3.org/Graphics/SVG/1.1/DTD/svg11.dtd">
<svg width="253.946" height="219.591" viewBox="0 0 5290.55 4574.8" version="1.1"
xmlns="http://www.w3.org/2000/svg"
xmlns:xlink="http://www.w3.org/1999/xlink">
<polyline points="25.5916,4329.53 25.6856,4331.46 29.5296,4370.48 29.8136,4372.39 30.2836,4374.26 41.6656,4411.78 43.1416,4415.35 61.6236,4449.92 62.6176,4451.58 63.7676,4453.13 88.6396,4483.44 91.3676,4486.17 121.674,4511.04 123.226,4512.19 124.884,4513.18 159.462,4531.67 163.026,4533.14 200.544,4544.52 202.418,4544.99 204.33,4545.28 243.348,4549.12 245.276,4549.21 5029.53,4549.21 5031.46,4549.12 5070.48,4545.28 5072.39,4544.99 5074.26,4544.52 5111.78,4533.14 5115.35,4531.67 5149.92,4513.18 5151.58,4512.19 5153.13,4511.04 5183.44,4486.17 5186.17,4483.44 5211.04,4453.13 5212.19,4451.58 5213.18,4449.92 5231.67,4415.35 5233.14,4411.78 5244.52,4374.26 5244.99,4372.39 5245.28,4370.48 5249.12,4331.46 5249.21,4329.6 5264.96,245.352 5264.87,243.348 5261.02,204.33 5260.74,202.418 5260.27,200.544 5248.89,163.026 5247.41,159.462 5228.93,124.884 5227.94,123.226 5226.79,121.674 5201.92,91.3676 5199.19,88.6396 5168.88,63.7676 5167.33,62.6176 5165.67,61.6236 5131.09,43.1416 5127.53,41.6656 5090.01,30.2836 5088.14,29.8136 5086.23,29.5296 5047.21,25.6856 5045.28,25.5916 245.276,25.5916 243.348,25.6856 204.33,29.5296 200.544,30.2836 163.026,41.6656 159.462,43.1416 124.884,61.6236 123.226,62.6176 121.674,63.7676 91.3676,88.6396 88.6396,91.3676 63.7676,121.674 62.6176,123.226 61.6236,124.884 43.1416,159.462 41.6656,163.026 30.2836,200.544 29.5296,204.33 25.6856,243.348 25.5916,245.276 25.5916,4329.53" style="stroke:rgb(103,198,105);stroke-width:39.370079;fill:none;stroke-opacity:0.5;stroke-linecap:round;stroke-linejoin:round;;fill:none"/>
<polyline points="25.5916,4329.53 25.6856,4331.46 29.5296,4370.48 29.8136,4372.39 30.2836,4374.26 41.6656,4411.78 43.1416,4415.35 61.6236,4449.92 62.6176,4451.58 63.7676,4453.13 88.6396,4483.44 91.3676,4486.17 121.674,4511.04 123.226,4512.19 124.884,4513.18 159.462,4531.67 163.026,4533.14 200.544,4544.52 202.418,4544.99 204.33,4545.28 243.348,4549.12 245.276,4549.21 5029.53,4549.21 5031.46,4549.12 5070.48,4545.28 5072.39,4544.99 5074.26,4544.52 5111.78,4533.14 5115.35,4531.67 5149.92,4513.18 5151.58,4512.19 5153.13,4511.04 5183.44,4486.17 5186.17,4483.44 5211.04,4453.13 5212.19,4451.58 5213.18,4449.92 5231.67,4415.35 5233.14,4411.78 5244.52,4374.26 5244.99,4372.39 5245.28,4370.48 5249.12,4331.46 5249.21,4329.6 5264.96,245.352 5264.87,243.348 5261.02,204.33 5260.74,202.418 5260.27,200.544 5248.89,163.026 5247.41,159.462 5228.93,124.884 5227.94,123.226 5226.79,121.674 5201.92,91.3676 5199.19,88.6396 5168.88,63.7676 5167.33,62.6176 5165.67,61.6236 5131.09,43.1416 5127.53,41.6656 5090.01,30.2836 5088.14,29.8136 5086.23,29.5296 5047.21,25.6856 5045.28,25.5916 245.276,25.5916 243.348,25.6856 204.33,29.5296 200.544,30.2836 163.026,41.6656 159.462,43.1416 124.884,61.6236 123.226,62.6176 121.674,63.7676 91.3676,88.6396 88.6396,91.3676 63.7676,121.674 62.6176,123.226 61.6236,124.884 43.1416,159.462 41.6656,163.026 30.2836,200.544 29.5296,204.33 25.6856,243.348 25.5916,245.276 25.5916,4329.53" style="stroke:rgb(0,0,0);stroke-width:1px;fill:none;stroke-opacity:1;stroke-linecap:round;stroke-linejoin:round;;fill:none"/>
</svg>
