<?xml version="1.0" standalone="no"?>
<!DOCTYPE svg PUBLIC "-//W3C//DTD SVG 1.1//EN"
"http://www.w3.org/Graphics/SVG/1.1/DTD/svg11.dtd">
<svg width="253.946" height="219.591" viewBox="0 0 5290.55 4574.8" version="1.1"
xmlns="http://www.w3.org/2000/svg"
xmlns:xlink="http://www.w3.org/1999/xlink">
<circle cx="1745.28" cy="2845.28" r="31.4961" style=""/>
<circle cx="1745.28" cy="3045.28" r="31.4961" style=""/>
<circle cx="4445.28" cy="3245.28" r="39.3701" style=""/>
<circle cx="4445.28" cy="3045.28" r="39.3701" style=""/>
<circle cx="4445.28" cy="2845.28" r="39.3701" style=""/>
<circle cx="3845.28" cy="2429.53" r="39.3701" style=""/>
<circle cx="3845.28" cy="2629.53" r="39.3701" style=""/>
<circle cx="3845.28" cy="2829.53" r="39.3701" style=""/>
<circle cx="3845.28" cy="3029.53" r="39.3701" style=""/>
<circle cx="3845.28" cy="3229.53" r="39.3701" style=""/>
<circle cx="3845.28" cy="3429.53" r="39.3701" style=""/>
<circle cx="3845.28" cy="3629.53" r="39.3701" style=""/>
<circle cx="3845.28" cy="3829.53" r="39.3701" style=""/>
<circle cx="3845.28" cy="4029.53" r="39.3701" style=""/>
<circle cx="3845.28" cy="4229.53" r="39.3701" style=""/>
<circle cx="2061.02" cy="4245.28" r="39.3701" style=""/>
<circle cx="2061.02" cy="4045.28" r="39.3701" style=""/>
<circle cx="2061.02" cy="3845.28" r="39.3701" style=""/>
<circle cx="2061.02" cy="3645.28" r="39.3701" style=""/>
<circle cx="2061.02" cy="3445.28" r="39.3701" style=""/>
<circle cx="2061.02" cy="3245.28" r="39.3701" style=""/>
<circle cx="2061.02" cy="3045.28" r="39.3701" style=""/>
<circle cx="2061.02" cy="2845.28" r="39.3701" style=""/>
<circle cx="2061.02" cy="2645.28" r="39.3701" style=""/>
<circle cx="2061.02" cy="2445.28" r="39.3701" style=""/>
<circle cx="1445.28" cy="2345.28" r="39.3701" style=""/>
<circle cx="1445.28" cy="2145.28" r="39.3701" style=""/>
<circle cx="1445.28" cy="1945.28" r="39.3701" style=""/>
<circle cx="1445.28" cy="1745.28" r="39.3701" style=""/>
<circle cx="1445.28" cy="1545.28" r="39.3701" style=""/>
<circle cx="1445.28" cy="1345.28" r="39.3701" style=""/>
<circle cx="1445.28" cy="1145.28" r="39.3701" style=""/>
<circle cx="2061.02" cy="445.276" r="39.3701" style=""/>
<circle cx="2061.02" cy="645.276" r="39.3701" style=""/>
<circle cx="2061.02" cy="845.276" r="39.3701" style=""/>
<circle cx="2061.02" cy="1045.28" r="39.3701" style=""/>
<circle cx="2061.02" cy="1245.28" r="39.3701" style=""/>
<circle cx="2061.02" cy="1445.28" r="39.3701" style=""/>
<circle cx="2061.02" cy="1645.28" r="39.3701" style=""/>
<circle cx="2061.02" cy="1845.28" r="39.3701" style=""/>
<circle cx="2061.02" cy="2045.28" r="39.3701" style=""/>
<circle cx="2061.02" cy="2245.28" r="39.3701" style=""/>
<circle cx="3845.28" cy="2229.53" r="39.3701" style=""/>
<circle cx="3845.28" cy="2029.53" r="39.3701" style=""/>
<circle cx="3845.28" cy="1829.53" r="39.3701" style=""/>
<circle cx="3845.28" cy="1629.53" r="39.3701" style=""/>
<circle cx="3845.28" cy="1429.53" r="39.3701" style=""/>
<circle cx="3845.28" cy="1229.53" r="39.3701" style=""/>
<circle cx="3845.28" cy="1029.53" r="39.3701" style=""/>
<circle cx="3845.28" cy="829.528" r="39.3701" style=""/>
<circle cx="3845.28" cy="629.528" r="39.3701" style=""/>
<circle cx="3845.28" cy="429.528" r="39.3701" style=""/>
<circle cx="4845.28" cy="4045.28" r="125.984" style=""/>
<circle cx="4845.28" cy="445.276" r="125.984" style=""/>
<circle cx="445.276" cy="445.276" r="125.984" style=""/>
<circle cx="445.276" cy="4045.28" r="125.984" style=""/>
</svg>
