<?xml version="1.0" standalone="no"?>
<!DOCTYPE svg PUBLIC "-//W3C//DTD SVG 1.1//EN"
"http://www.w3.org/Graphics/SVG/1.1/DTD/svg11.dtd">
<svg width="253.946" height="219.591" viewBox="0 0 5290.55 4574.8" version="1.1"
xmlns="http://www.w3.org/2000/svg"
xmlns:xlink="http://www.w3.org/1999/xlink">
<g fill-rule="evenodd"><path d="M 1378.35,1545.28 L 1379.81,1531.36 L 1384.13,1518.05 L 1391.13,1505.94 L 1400.49,1495.54 L 1411.81,1487.31 L 1424.59,1481.62 L 1438.28,1478.71 L 1452.27,1478.71 L 1465.96,1481.62 L 1478.74,1487.31 L 1490.06,1495.54 L 1499.42,1505.94 L 1506.42,1518.05 L 1510.74,1531.36 L 1512.2,1545.28 L 1510.74,1559.19 L 1506.42,1572.5 L 1499.42,1584.62 L 1490.06,1595.01 L 1478.74,1603.24 L 1465.96,1608.93 L 1452.27,1611.84 L 1438.28,1611.84 L 1424.59,1608.93 L 1411.81,1603.24 L 1400.49,1595.01 L 1391.13,1584.62 L 1384.13,1572.5 L 1379.81,1559.19 L 1378.35,1545.28 z " style="fill-opacity:1.000000;fill:rgb(103,198,105);stroke:rgb(0,0,0);stroke-width:2"/></g>
<g fill-rule="evenodd"><path d="M 3778.35,4229.53 L 3779.81,4215.61 L 3784.13,4202.31 L 3791.13,4190.19 L 3800.49,4179.79 L 3811.81,4171.57 L 3824.59,4165.87 L 3838.28,4162.97 L 3852.27,4162.97 L 3865.96,4165.87 L 3878.74,4171.57 L 3890.06,4179.79 L 3899.42,4190.19 L 3906.42,4202.31 L 3910.74,4215.61 L 3912.2,4229.53 L 3910.74,4243.44 L 3906.42,4256.75 L 3899.42,4268.87 L 3890.06,4279.27 L 3878.74,4287.49 L 3865.96,4293.18 L 3852.27,4296.09 L 3838.28,4296.09 L 3824.59,4293.18 L 3811.81,4287.49 L 3800.49,4279.27 L 3791.13,4268.87 L 3784.13,4256.75 L 3779.81,4243.44 L 3778.35,4229.53 z " style="fill-opacity:1.000000;fill:rgb(115,81,255);stroke:rgb(0,0,0);stroke-width:2"/></g>
<g fill-rule="evenodd"><path d="M 3778.35,4029.53 L 3779.81,4015.61 L 3784.13,4002.31 L 3791.13,3990.19 L 3800.49,3979.79 L 3811.81,3971.57 L 3824.59,3965.87 L 3838.28,3962.97 L 3852.27,3962.97 L 3865.96,3965.87 L 3878.74,3971.57 L 3890.06,3979.79 L 3899.42,3990.19 L 3906.42,4002.31 L 3910.74,4015.61 L 3912.2,4029.53 L 3910.74,4043.44 L 3906.42,4056.75 L 3899.42,4068.87 L 3890.06,4079.27 L 3878.74,4087.49 L 3865.96,4093.18 L 3852.27,4096.09 L 3838.28,4096.09 L 3824.59,4093.18 L 3811.81,4087.49 L 3800.49,4079.27 L 3791.13,4068.87 L 3784.13,4056.75 L 3779.81,4043.44 L 3778.35,4029.53 z " style="fill-opacity:1.000000;fill:rgb(74,236,41);stroke:rgb(0,0,0);stroke-width:2"/></g>
<g fill-rule="evenodd"><path d="M 3778.35,3829.53 L 3779.81,3815.61 L 3784.13,3802.31 L 3791.13,3790.19 L 3800.49,3779.79 L 3811.81,3771.57 L 3824.59,3765.87 L 3838.28,3762.97 L 3852.27,3762.97 L 3865.96,3765.87 L 3878.74,3771.57 L 3890.06,3779.79 L 3899.42,3790.19 L 3906.42,3802.31 L 3910.74,3815.61 L 3912.2,3829.53 L 3910.74,3843.44 L 3906.42,3856.75 L 3899.42,3868.87 L 3890.06,3879.27 L 3878.74,3887.49 L 3865.96,3893.18 L 3852.27,3896.09 L 3838.28,3896.09 L 3824.59,3893.18 L 3811.81,3887.49 L 3800.49,3879.27 L 3791.13,3868.87 L 3784.13,3856.75 L 3779.81,3843.44 L 3778.35,3829.53 z " style="fill-opacity:1.000000;fill:rgb(205,186,171);stroke:rgb(0,0,0);stroke-width:2"/></g>
<g fill-rule="evenodd"><path d="M 3778.35,3429.53 L 3779.81,3415.61 L 3784.13,3402.31 L 3791.13,3390.19 L 3800.49,3379.79 L 3811.81,3371.57 L 3824.59,3365.87 L 3838.28,3362.97 L 3852.27,3362.97 L 3865.96,3365.87 L 3878.74,3371.57 L 3890.06,3379.79 L 3899.42,3390.19 L 3906.42,3402.31 L 3910.74,3415.61 L 3912.2,3429.53 L 3910.74,3443.44 L 3906.42,3456.75 L 3899.42,3468.87 L 3890.06,3479.27 L 3878.74,3487.49 L 3865.96,3493.18 L 3852.27,3496.09 L 3838.28,3496.09 L 3824.59,3493.18 L 3811.81,3487.49 L 3800.49,3479.27 L 3791.13,3468.87 L 3784.13,3456.75 L 3779.81,3443.44 L 3778.35,3429.53 z " style="fill-opacity:1.000000;fill:rgb(242,251,227);stroke:rgb(0,0,0);stroke-width:2"/></g>
<g fill-rule="evenodd"><path d="M 3778.35,3029.53 L 3779.81,3015.61 L 3784.13,3002.31 L 3791.13,2990.19 L 3800.49,2979.79 L 3811.81,2971.57 L 3824.59,2965.87 L 3838.28,2962.97 L 3852.27,2962.97 L 3865.96,2965.87 L 3878.74,2971.57 L 3890.06,2979.79 L 3899.42,2990.19 L 3906.42,3002.31 L 3910.74,3015.61 L 3912.2,3029.53 L 3910.74,3043.44 L 3906.42,3056.75 L 3899.42,3068.87 L 3890.06,3079.27 L 3878.74,3087.49 L 3865.96,3093.18 L 3852.27,3096.09 L 3838.28,3096.09 L 3824.59,3093.18 L 3811.81,3087.49 L 3800.49,3079.27 L 3791.13,3068.87 L 3784.13,3056.75 L 3779.81,3043.44 L 3778.35,3029.53 z " style="fill-opacity:1.000000;fill:rgb(70,124,194);stroke:rgb(0,0,0);stroke-width:2"/></g>
<g fill-rule="evenodd"><path d="M 3778.35,2629.53 L 3779.81,2615.61 L 3784.13,2602.31 L 3791.13,2590.19 L 3800.49,2579.79 L 3811.81,2571.57 L 3824.59,2565.87 L 3838.28,2562.97 L 3852.27,2562.97 L 3865.96,2565.87 L 3878.74,2571.57 L 3890.06,2579.79 L 3899.42,2590.19 L 3906.42,2602.31 L 3910.74,2615.61 L 3912.2,2629.53 L 3910.74,2643.44 L 3906.42,2656.75 L 3899.42,2668.87 L 3890.06,2679.27 L 3878.74,2687.49 L 3865.96,2693.18 L 3852.27,2696.09 L 3838.28,2696.09 L 3824.59,2693.18 L 3811.81,2687.49 L 3800.49,2679.27 L 3791.13,2668.87 L 3784.13,2656.75 L 3779.81,2643.44 L 3778.35,2629.53 z " style="fill-opacity:1.000000;fill:rgb(84,248,27);stroke:rgb(0,0,0);stroke-width:2"/></g>
<g fill-rule="evenodd"><path d="M 3778.35,2429.53 L 3779.81,2415.61 L 3784.13,2402.31 L 3791.13,2390.19 L 3800.49,2379.79 L 3811.81,2371.57 L 3824.59,2365.87 L 3838.28,2362.97 L 3852.27,2362.97 L 3865.96,2365.87 L 3878.74,2371.57 L 3890.06,2379.79 L 3899.42,2390.19 L 3906.42,2402.31 L 3910.74,2415.61 L 3912.2,2429.53 L 3910.74,2443.44 L 3906.42,2456.75 L 3899.42,2468.87 L 3890.06,2479.27 L 3878.74,2487.49 L 3865.96,2493.18 L 3852.27,2496.09 L 3838.28,2496.09 L 3824.59,2493.18 L 3811.81,2487.49 L 3800.49,2479.27 L 3791.13,2468.87 L 3784.13,2456.75 L 3779.81,2443.44 L 3778.35,2429.53 z " style="fill-opacity:1.000000;fill:rgb(232,231,141);stroke:rgb(0,0,0);stroke-width:2"/></g>
<g fill-rule="evenodd"><path d="M 3778.35,2229.53 L 3779.81,2215.61 L 3784.13,2202.31 L 3791.13,2190.19 L 3800.49,2179.79 L 3811.81,2171.57 L 3824.59,2165.87 L 3838.28,2162.97 L 3852.27,2162.97 L 3865.96,2165.87 L 3878.74,2171.57 L 3890.06,2179.79 L 3899.42,2190.19 L 3906.42,2202.31 L 3910.74,2215.61 L 3912.2,2229.53 L 3910.74,2243.44 L 3906.42,2256.75 L 3899.42,2268.87 L 3890.06,2279.27 L 3878.74,2287.49 L 3865.96,2293.18 L 3852.27,2296.09 L 3838.28,2296.09 L 3824.59,2293.18 L 3811.81,2287.49 L 3800.49,2279.27 L 3791.13,2268.87 L 3784.13,2256.75 L 3779.81,2243.44 L 3778.35,2229.53 z " style="fill-opacity:1.000000;fill:rgb(118,90,46);stroke:rgb(0,0,0);stroke-width:2"/></g>
<g fill-rule="evenodd"><path d="M 3778.35,2029.53 L 3779.81,2015.61 L 3784.13,2002.31 L 3791.13,1990.19 L 3800.49,1979.79 L 3811.81,1971.57 L 3824.59,1965.87 L 3838.28,1962.97 L 3852.27,1962.97 L 3865.96,1965.87 L 3878.74,1971.57 L 3890.06,1979.79 L 3899.42,1990.19 L 3906.42,2002.31 L 3910.74,2015.61 L 3912.2,2029.53 L 3910.74,2043.44 L 3906.42,2056.75 L 3899.42,2068.87 L 3890.06,2079.27 L 3878.74,2087.49 L 3865.96,2093.18 L 3852.27,2096.09 L 3838.28,2096.09 L 3824.59,2093.18 L 3811.81,2087.49 L 3800.49,2079.27 L 3791.13,2068.87 L 3784.13,2056.75 L 3779.81,2043.44 L 3778.35,2029.53 z " style="fill-opacity:1.000000;fill:rgb(99,51,159);stroke:rgb(0,0,0);stroke-width:2"/></g>
<g fill-rule="evenodd"><path d="M 3778.35,1829.53 L 3779.81,1815.61 L 3784.13,1802.31 L 3791.13,1790.19 L 3800.49,1779.79 L 3811.81,1771.57 L 3824.59,1765.87 L 3838.28,1762.97 L 3852.27,1762.97 L 3865.96,1765.87 L 3878.74,1771.57 L 3890.06,1779.79 L 3899.42,1790.19 L 3906.42,1802.31 L 3910.74,1815.61 L 3912.2,1829.53 L 3910.74,1843.44 L 3906.42,1856.75 L 3899.42,1868.87 L 3890.06,1879.27 L 3878.74,1887.49 L 3865.96,1893.18 L 3852.27,1896.09 L 3838.28,1896.09 L 3824.59,1893.18 L 3811.81,1887.49 L 3800.49,1879.27 L 3791.13,1868.87 L 3784.13,1856.75 L 3779.81,1843.44 L 3778.35,1829.53 z " style="fill-opacity:1.000000;fill:rgb(201,154,102);stroke:rgb(0,0,0);stroke-width:2"/></g>
<g fill-rule="evenodd"><path d="M 3778.35,1629.53 L 3779.81,1615.61 L 3784.13,1602.31 L 3791.13,1590.19 L 3800.49,1579.79 L 3811.81,1571.57 L 3824.59,1565.87 L 3838.28,1562.97 L 3852.27,1562.97 L 3865.96,1565.87 L 3878.74,1571.57 L 3890.06,1579.79 L 3899.42,1590.19 L 3906.42,1602.31 L 3910.74,1615.61 L 3912.2,1629.53 L 3910.74,1643.44 L 3906.42,1656.75 L 3899.42,1668.87 L 3890.06,1679.27 L 3878.74,1687.49 L 3865.96,1693.18 L 3852.27,1696.09 L 3838.28,1696.09 L 3824.59,1693.18 L 3811.81,1687.49 L 3800.49,1679.27 L 3791.13,1668.87 L 3784.13,1656.75 L 3779.81,1643.44 L 3778.35,1629.53 z " style="fill-opacity:1.000000;fill:rgb(50,13,183);stroke:rgb(0,0,0);stroke-width:2"/></g>
<g fill-rule="evenodd"><path d="M 3778.35,1429.53 L 3779.81,1415.61 L 3784.13,1402.31 L 3791.13,1390.19 L 3800.49,1379.79 L 3811.81,1371.57 L 3824.59,1365.87 L 3838.28,1362.97 L 3852.27,1362.97 L 3865.96,1365.87 L 3878.74,1371.57 L 3890.06,1379.79 L 3899.42,1390.19 L 3906.42,1402.31 L 3910.74,1415.61 L 3912.2,1429.53 L 3910.74,1443.44 L 3906.42,1456.75 L 3899.42,1468.87 L 3890.06,1479.27 L 3878.74,1487.49 L 3865.96,1493.18 L 3852.27,1496.09 L 3838.28,1496.09 L 3824.59,1493.18 L 3811.81,1487.49 L 3800.49,1479.27 L 3791.13,1468.87 L 3784.13,1456.75 L 3779.81,1443.44 L 3778.35,1429.53 z " style="fill-opacity:1.000000;fill:rgb(49,88,163);stroke:rgb(0,0,0);stroke-width:2"/></g>
<g fill-rule="evenodd"><path d="M 3778.35,1229.53 L 3779.81,1215.61 L 3784.13,1202.31 L 3791.13,1190.19 L 3800.49,1179.79 L 3811.81,1171.57 L 3824.59,1165.87 L 3838.28,1162.97 L 3852.27,1162.97 L 3865.96,1165.87 L 3878.74,1171.57 L 3890.06,1179.79 L 3899.42,1190.19 L 3906.42,1202.31 L 3910.74,1215.61 L 3912.2,1229.53 L 3910.74,1243.44 L 3906.42,1256.75 L 3899.42,1268.87 L 3890.06,1279.27 L 3878.74,1287.49 L 3865.96,1293.18 L 3852.27,1296.09 L 3838.28,1296.09 L 3824.59,1293.18 L 3811.81,1287.49 L 3800.49,1279.27 L 3791.13,1268.87 L 3784.13,1256.75 L 3779.81,1243.44 L 3778.35,1229.53 z " style="fill-opacity:1.000000;fill:rgb(90,37,93);stroke:rgb(0,0,0);stroke-width:2"/></g>
<g fill-rule="evenodd"><path d="M 3778.35,1029.53 L 3779.81,1015.61 L 3784.13,1002.31 L 3791.13,990.188 L 3800.49,979.79 L 3811.81,971.565 L 3824.59,965.874 L 3838.28,962.965 L 3852.27,962.965 L 3865.96,965.874 L 3878.74,971.565 L 3890.06,979.79 L 3899.42,990.188 L 3906.42,1002.31 L 3910.74,1015.61 L 3912.2,1029.53 L 3910.74,1043.44 L 3906.42,1056.75 L 3899.42,1068.87 L 3890.06,1079.27 L 3878.74,1087.49 L 3865.96,1093.18 L 3852.27,1096.09 L 3838.28,1096.09 L 3824.59,1093.18 L 3811.81,1087.49 L 3800.49,1079.27 L 3791.13,1068.87 L 3784.13,1056.75 L 3779.81,1043.44 L 3778.35,1029.53 z " style="fill-opacity:1.000000;fill:rgb(5,23,88);stroke:rgb(0,0,0);stroke-width:2"/></g>
<g fill-rule="evenodd"><path d="M 3778.35,829.528 L 3779.81,815.612 L 3784.13,802.305 L 3791.13,790.188 L 3800.49,779.79 L 3811.81,771.565 L 3824.59,765.874 L 3838.28,762.965 L 3852.27,762.965 L 3865.96,765.874 L 3878.74,771.565 L 3890.06,779.79 L 3899.42,790.188 L 3906.42,802.305 L 3910.74,815.612 L 3912.2,829.528 L 3910.74,843.443 L 3906.42,856.75 L 3899.42,868.868 L 3890.06,879.266 L 3878.74,887.49 L 3865.96,893.181 L 3852.27,896.09 L 3838.28,896.09 L 3824.59,893.181 L 3811.81,887.49 L 3800.49,879.266 L 3791.13,868.868 L 3784.13,856.75 L 3779.81,843.443 L 3778.35,829.528 z " style="fill-opacity:1.000000;fill:rgb(233,94,212);stroke:rgb(0,0,0);stroke-width:2"/></g>
<g fill-rule="evenodd"><path d="M 3778.35,629.528 L 3779.81,615.612 L 3784.13,602.305 L 3791.13,590.188 L 3800.49,579.79 L 3811.81,571.565 L 3824.59,565.874 L 3838.28,562.965 L 3852.27,562.965 L 3865.96,565.874 L 3878.74,571.565 L 3890.06,579.79 L 3899.42,590.188 L 3906.42,602.305 L 3910.74,615.612 L 3912.2,629.528 L 3910.74,643.443 L 3906.42,656.75 L 3899.42,668.868 L 3890.06,679.266 L 3878.74,687.49 L 3865.96,693.181 L 3852.27,696.09 L 3838.28,696.09 L 3824.59,693.181 L 3811.81,687.49 L 3800.49,679.266 L 3791.13,668.868 L 3784.13,656.75 L 3779.81,643.443 L 3778.35,629.528 z " style="fill-opacity:1.000000;fill:rgb(171,178,205);stroke:rgb(0,0,0);stroke-width:2"/></g>
<g fill-rule="evenodd"><path d="M 3912.2,362.598 L 3912.2,496.457 L 3778.35,496.457 L 3778.35,362.598 L 3912.2,362.598 z " style="fill-opacity:1.000000;fill:rgb(198,155,180);stroke:rgb(0,0,0);stroke-width:2"/></g>
<g fill-rule="evenodd"><path d="M 1994.09,4245.28 L 1995.56,4231.36 L 1999.88,4218.05 L 2006.88,4205.94 L 2016.24,4195.54 L 2027.56,4187.31 L 2040.34,4181.62 L 2054.03,4178.71 L 2068.02,4178.71 L 2081.71,4181.62 L 2094.49,4187.31 L 2105.81,4195.54 L 2115.17,4205.94 L 2122.17,4218.05 L 2126.49,4231.36 L 2127.95,4245.28 L 2126.49,4259.19 L 2122.17,4272.5 L 2115.17,4284.62 L 2105.81,4295.01 L 2094.49,4303.24 L 2081.71,4308.93 L 2068.02,4311.84 L 2054.03,4311.84 L 2040.34,4308.93 L 2027.56,4303.24 L 2016.24,4295.01 L 2006.88,4284.62 L 1999.88,4272.5 L 1995.56,4259.19 L 1994.09,4245.28 z " style="fill-opacity:1.000000;fill:rgb(84,17,14);stroke:rgb(0,0,0);stroke-width:2"/></g>
<g fill-rule="evenodd"><path d="M 1994.09,4045.28 L 1995.56,4031.36 L 1999.88,4018.05 L 2006.88,4005.94 L 2016.24,3995.54 L 2027.56,3987.31 L 2040.34,3981.62 L 2054.03,3978.71 L 2068.02,3978.71 L 2081.71,3981.62 L 2094.49,3987.31 L 2105.81,3995.54 L 2115.17,4005.94 L 2122.17,4018.05 L 2126.49,4031.36 L 2127.95,4045.28 L 2126.49,4059.19 L 2122.17,4072.5 L 2115.17,4084.62 L 2105.81,4095.01 L 2094.49,4103.24 L 2081.71,4108.93 L 2068.02,4111.84 L 2054.03,4111.84 L 2040.34,4108.93 L 2027.56,4103.24 L 2016.24,4095.01 L 2006.88,4084.62 L 1999.88,4072.5 L 1995.56,4059.19 L 1994.09,4045.28 z " style="fill-opacity:1.000000;fill:rgb(130,116,65);stroke:rgb(0,0,0);stroke-width:2"/></g>
<g fill-rule="evenodd"><path d="M 1994.09,3845.28 L 1995.56,3831.36 L 1999.88,3818.05 L 2006.88,3805.94 L 2016.24,3795.54 L 2027.56,3787.31 L 2040.34,3781.62 L 2054.03,3778.71 L 2068.02,3778.71 L 2081.71,3781.62 L 2094.49,3787.31 L 2105.81,3795.54 L 2115.17,3805.94 L 2122.17,3818.05 L 2126.49,3831.36 L 2127.95,3845.28 L 2126.49,3859.19 L 2122.17,3872.5 L 2115.17,3884.62 L 2105.81,3895.01 L 2094.49,3903.24 L 2081.71,3908.93 L 2068.02,3911.84 L 2054.03,3911.84 L 2040.34,3908.93 L 2027.56,3903.24 L 2016.24,3895.01 L 2006.88,3884.62 L 1999.88,3872.5 L 1995.56,3859.19 L 1994.09,3845.28 z " style="fill-opacity:1.000000;fill:rgb(33,61,220);stroke:rgb(0,0,0);stroke-width:2"/></g>
<g fill-rule="evenodd"><path d="M 1994.09,3245.28 L 1995.56,3231.36 L 1999.88,3218.05 L 2006.88,3205.94 L 2016.24,3195.54 L 2027.56,3187.31 L 2040.34,3181.62 L 2054.03,3178.71 L 2068.02,3178.71 L 2081.71,3181.62 L 2094.49,3187.31 L 2105.81,3195.54 L 2115.17,3205.94 L 2122.17,3218.05 L 2126.49,3231.36 L 2127.95,3245.28 L 2126.49,3259.19 L 2122.17,3272.5 L 2115.17,3284.62 L 2105.81,3295.01 L 2094.49,3303.24 L 2081.71,3308.93 L 2068.02,3311.84 L 2054.03,3311.84 L 2040.34,3308.93 L 2027.56,3303.24 L 2016.24,3295.01 L 2006.88,3284.62 L 1999.88,3272.5 L 1995.56,3259.19 L 1994.09,3245.28 z " style="fill-opacity:1.000000;fill:rgb(135,112,233);stroke:rgb(0,0,0);stroke-width:2"/></g>
<g fill-rule="evenodd"><path d="M 1994.09,2645.28 L 1995.56,2631.36 L 1999.88,2618.05 L 2006.88,2605.94 L 2016.24,2595.54 L 2027.56,2587.31 L 2040.34,2581.62 L 2054.03,2578.71 L 2068.02,2578.71 L 2081.71,2581.62 L 2094.49,2587.31 L 2105.81,2595.54 L 2115.17,2605.94 L 2122.17,2618.05 L 2126.49,2631.36 L 2127.95,2645.28 L 2126.49,2659.19 L 2122.17,2672.5 L 2115.17,2684.62 L 2105.81,2695.01 L 2094.49,2703.24 L 2081.71,2708.93 L 2068.02,2711.84 L 2054.03,2711.84 L 2040.34,2708.93 L 2027.56,2703.24 L 2016.24,2695.01 L 2006.88,2684.62 L 1999.88,2672.5 L 1995.56,2659.19 L 1994.09,2645.28 z " style="fill-opacity:1.000000;fill:rgb(62,161,65);stroke:rgb(0,0,0);stroke-width:2"/></g>
<g fill-rule="evenodd"><path d="M 1994.09,1845.28 L 1995.56,1831.36 L 1999.88,1818.05 L 2006.88,1805.94 L 2016.24,1795.54 L 2027.56,1787.31 L 2040.34,1781.62 L 2054.03,1778.71 L 2068.02,1778.71 L 2081.71,1781.62 L 2094.49,1787.31 L 2105.81,1795.54 L 2115.17,1805.94 L 2122.17,1818.05 L 2126.49,1831.36 L 2127.95,1845.28 L 2126.49,1859.19 L 2122.17,1872.5 L 2115.17,1884.62 L 2105.81,1895.01 L 2094.49,1903.24 L 2081.71,1908.93 L 2068.02,1911.84 L 2054.03,1911.84 L 2040.34,1908.93 L 2027.56,1903.24 L 2016.24,1895.01 L 2006.88,1884.62 L 1999.88,1872.5 L 1995.56,1859.19 L 1994.09,1845.28 z " style="fill-opacity:1.000000;fill:rgb(225,252,103);stroke:rgb(0,0,0);stroke-width:2"/></g>
<g fill-rule="evenodd"><path d="M 1994.09,1645.28 L 1995.56,1631.36 L 1999.88,1618.05 L 2006.88,1605.94 L 2016.24,1595.54 L 2027.56,1587.31 L 2040.34,1581.62 L 2054.03,1578.71 L 2068.02,1578.71 L 2081.71,1581.62 L 2094.49,1587.31 L 2105.81,1595.54 L 2115.17,1605.94 L 2122.17,1618.05 L 2126.49,1631.36 L 2127.95,1645.28 L 2126.49,1659.19 L 2122.17,1672.5 L 2115.17,1684.62 L 2105.81,1695.01 L 2094.49,1703.24 L 2081.71,1708.93 L 2068.02,1711.84 L 2054.03,1711.84 L 2040.34,1708.93 L 2027.56,1703.24 L 2016.24,1695.01 L 2006.88,1684.62 L 1999.88,1672.5 L 1995.56,1659.19 L 1994.09,1645.28 z " style="fill-opacity:1.000000;fill:rgb(62,1,126);stroke:rgb(0,0,0);stroke-width:2"/></g>
<g fill-rule="evenodd"><path d="M 1994.09,1445.28 L 1995.56,1431.36 L 1999.88,1418.05 L 2006.88,1405.94 L 2016.24,1395.54 L 2027.56,1387.31 L 2040.34,1381.62 L 2054.03,1378.71 L 2068.02,1378.71 L 2081.71,1381.62 L 2094.49,1387.31 L 2105.81,1395.54 L 2115.17,1405.94 L 2122.17,1418.05 L 2126.49,1431.36 L 2127.95,1445.28 L 2126.49,1459.19 L 2122.17,1472.5 L 2115.17,1484.62 L 2105.81,1495.01 L 2094.49,1503.24 L 2081.71,1508.93 L 2068.02,1511.84 L 2054.03,1511.84 L 2040.34,1508.93 L 2027.56,1503.24 L 2016.24,1495.01 L 2006.88,1484.62 L 1999.88,1472.5 L 1995.56,1459.19 L 1994.09,1445.28 z " style="fill-opacity:1.000000;fill:rgb(151,234,220);stroke:rgb(0,0,0);stroke-width:2"/></g>
<g fill-rule="evenodd"><path d="M 1994.09,1245.28 L 1995.56,1231.36 L 1999.88,1218.05 L 2006.88,1205.94 L 2016.24,1195.54 L 2027.56,1187.31 L 2040.34,1181.62 L 2054.03,1178.71 L 2068.02,1178.71 L 2081.71,1181.62 L 2094.49,1187.31 L 2105.81,1195.54 L 2115.17,1205.94 L 2122.17,1218.05 L 2126.49,1231.36 L 2127.95,1245.28 L 2126.49,1259.19 L 2122.17,1272.5 L 2115.17,1284.62 L 2105.81,1295.01 L 2094.49,1303.24 L 2081.71,1308.93 L 2068.02,1311.84 L 2054.03,1311.84 L 2040.34,1308.93 L 2027.56,1303.24 L 2016.24,1295.01 L 2006.88,1284.62 L 1999.88,1272.5 L 1995.56,1259.19 L 1994.09,1245.28 z " style="fill-opacity:1.000000;fill:rgb(107,150,143);stroke:rgb(0,0,0);stroke-width:2"/></g>
<g fill-rule="evenodd"><path d="M 1994.09,1045.28 L 1995.56,1031.36 L 1999.88,1018.05 L 2006.88,1005.94 L 2016.24,995.538 L 2027.56,987.313 L 2040.34,981.622 L 2054.03,978.713 L 2068.02,978.713 L 2081.71,981.622 L 2094.49,987.313 L 2105.81,995.538 L 2115.17,1005.94 L 2122.17,1018.05 L 2126.49,1031.36 L 2127.95,1045.28 L 2126.49,1059.19 L 2122.17,1072.5 L 2115.17,1084.62 L 2105.81,1095.01 L 2094.49,1103.24 L 2081.71,1108.93 L 2068.02,1111.84 L 2054.03,1111.84 L 2040.34,1108.93 L 2027.56,1103.24 L 2016.24,1095.01 L 2006.88,1084.62 L 1999.88,1072.5 L 1995.56,1059.19 L 1994.09,1045.28 z " style="fill-opacity:1.000000;fill:rgb(56,92,42);stroke:rgb(0,0,0);stroke-width:2"/></g>
<g fill-rule="evenodd"><path d="M 1994.09,845.276 L 1995.56,831.36 L 1999.88,818.053 L 2006.88,805.936 L 2016.24,795.538 L 2027.56,787.313 L 2040.34,781.622 L 2054.03,778.713 L 2068.02,778.713 L 2081.71,781.622 L 2094.49,787.313 L 2105.81,795.538 L 2115.17,805.936 L 2122.17,818.053 L 2126.49,831.36 L 2127.95,845.276 L 2126.49,859.191 L 2122.17,872.498 L 2115.17,884.616 L 2105.81,895.014 L 2094.49,903.238 L 2081.71,908.929 L 2068.02,911.838 L 2054.03,911.838 L 2040.34,908.929 L 2027.56,903.238 L 2016.24,895.014 L 2006.88,884.616 L 1999.88,872.498 L 1995.56,859.191 L 1994.09,845.276 z " style="fill-opacity:1.000000;fill:rgb(236,176,59);stroke:rgb(0,0,0);stroke-width:2"/></g>
<g fill-rule="evenodd"><path d="M 1994.09,645.276 L 1995.56,631.36 L 1999.88,618.053 L 2006.88,605.936 L 2016.24,595.538 L 2027.56,587.313 L 2040.34,581.622 L 2054.03,578.713 L 2068.02,578.713 L 2081.71,581.622 L 2094.49,587.313 L 2105.81,595.538 L 2115.17,605.936 L 2122.17,618.053 L 2126.49,631.36 L 2127.95,645.276 L 2126.49,659.191 L 2122.17,672.498 L 2115.17,684.616 L 2105.81,695.014 L 2094.49,703.238 L 2081.71,708.929 L 2068.02,711.838 L 2054.03,711.838 L 2040.34,708.929 L 2027.56,703.238 L 2016.24,695.014 L 2006.88,684.616 L 1999.88,672.498 L 1995.56,659.191 L 1994.09,645.276 z " style="fill-opacity:1.000000;fill:rgb(251,50,175);stroke:rgb(0,0,0);stroke-width:2"/></g>
<g fill-rule="evenodd"><path d="M 2127.95,378.346 L 2127.95,512.205 L 1994.09,512.205 L 1994.09,378.346 L 2127.95,378.346 z " style="fill-opacity:1.000000;fill:rgb(60,84,236);stroke:rgb(0,0,0);stroke-width:2"/></g>
<g fill-rule="evenodd"><path d="M 2126.49,2231.36 L 2127.95,2245.28 L 2126.49,2259.19 L 2122.17,2272.5 L 2115.17,2284.62 L 2105.81,2295.01 L 2094.49,2303.24 L 2081.71,2308.93 L 2068.02,2311.84 L 2054.03,2311.84 L 2040.34,2308.93 L 2027.56,2303.24 L 2016.24,2295.01 L 2006.9,2284.65 L 1761.58,2284.65 L 1673.11,2373.11 L 1667.15,2378.01 L 1660.34,2381.65 L 1652.96,2383.89 L 1645.28,2384.65 L 1499.4,2384.65 L 1490.06,2395.01 L 1478.74,2403.24 L 1465.96,2408.93 L 1452.27,2411.84 L 1438.28,2411.84 L 1424.59,2408.93 L 1411.81,2403.24 L 1400.49,2395.01 L 1391.13,2384.62 L 1384.13,2372.5 L 1379.81,2359.19 L 1378.35,2345.28 L 1379.81,2331.36 L 1384.13,2318.05 L 1391.13,2305.94 L 1400.49,2295.54 L 1411.81,2287.31 L 1424.59,2281.62 L 1438.28,2278.71 L 1452.27,2278.71 L 1465.96,2281.62 L 1478.74,2287.31 L 1490.06,2295.54 L 1499.4,2305.91 L 1628.97,2305.91 L 1717.44,2217.44 L 1723.4,2212.54 L 1730.21,2208.9 L 1737.59,2206.66 L 1745.28,2205.91 L 2006.9,2205.91 L 2016.24,2195.54 L 2027.56,2187.31 L 2040.34,2181.62 L 2054.03,2178.71 L 2068.02,2178.71 L 2081.71,2181.62 L 2094.49,2187.31 L 2105.81,2195.54 L 2115.17,2205.94 L 2122.17,2218.05 L 2126.49,2231.36 z " style="fill-opacity:1.000000;fill:rgb(24,219,92);stroke:rgb(0,0,0);stroke-width:2"/></g>
<g fill-rule="evenodd"><path d="M 2126.49,2831.36 L 2127.95,2845.28 L 2126.49,2859.19 L 2122.17,2872.5 L 2115.17,2884.62 L 2105.81,2895.01 L 2094.49,2903.24 L 2081.71,2908.93 L 2068.02,2911.84 L 2054.03,2911.84 L 2040.34,2908.93 L 2027.56,2903.24 L 2016.24,2895.01 L 2006.9,2884.65 L 1794.13,2884.65 L 1787.43,2892.09 L 1776.77,2899.83 L 1764.74,2905.18 L 1751.86,2907.92 L 1738.69,2907.92 L 1725.81,2905.18 L 1713.78,2899.83 L 1703.13,2892.09 L 1694.31,2882.3 L 1687.73,2870.9 L 1683.66,2858.37 L 1682.28,2845.28 L 1683.66,2832.18 L 1687.73,2819.65 L 1694.31,2808.25 L 1703.13,2798.46 L 1713.78,2790.72 L 1725.81,2785.37 L 1738.69,2782.63 L 1751.86,2782.63 L 1764.74,2785.37 L 1776.77,2790.72 L 1787.43,2798.46 L 1794.13,2805.91 L 2006.9,2805.91 L 2016.24,2795.54 L 2027.56,2787.31 L 2040.34,2781.62 L 2054.03,2778.71 L 2068.02,2778.71 L 2081.71,2781.62 L 2094.49,2787.31 L 2105.81,2795.54 L 2115.17,2805.94 L 2122.17,2818.05 L 2126.49,2831.36 z " style="fill-opacity:1.000000;fill:rgb(2,26,254);stroke:rgb(0,0,0);stroke-width:2"/></g>
<g fill-rule="evenodd"><path d="M 1023.4,1712.54 L 1030.21,1708.9 L 1037.59,1706.66 L 1045.28,1705.91 L 1391.16,1705.91 L 1400.49,1695.54 L 1411.81,1687.31 L 1424.59,1681.62 L 1438.28,1678.71 L 1452.27,1678.71 L 1465.96,1681.62 L 1478.74,1687.31 L 1490.06,1695.54 L 1499.42,1705.94 L 1506.42,1718.05 L 1510.74,1731.36 L 1512.2,1745.28 L 1510.74,1759.19 L 1506.42,1772.5 L 1499.42,1784.62 L 1490.06,1795.01 L 1478.74,1803.24 L 1465.96,1808.93 L 1452.27,1811.84 L 1438.28,1811.84 L 1424.59,1808.93 L 1411.81,1803.24 L 1400.49,1795.01 L 1391.16,1784.65 L 1061.58,1784.65 L 984.646,1861.58 L 984.646,2728.97 L 1261.58,3005.91 L 1696.42,3005.91 L 1703.13,2998.46 L 1713.78,2990.72 L 1725.81,2985.37 L 1738.69,2982.63 L 1751.86,2982.63 L 1764.74,2985.37 L 1776.77,2990.72 L 1787.43,2998.46 L 1794.13,3005.91 L 2006.9,3005.91 L 2016.24,2995.54 L 2027.56,2987.31 L 2040.34,2981.62 L 2054.03,2978.71 L 2068.02,2978.71 L 2081.71,2981.62 L 2094.49,2987.31 L 2105.81,2995.54 L 2115.17,3005.94 L 2122.17,3018.05 L 2126.49,3031.36 L 2127.95,3045.28 L 2126.49,3059.19 L 2122.17,3072.5 L 2115.17,3084.62 L 2105.81,3095.01 L 2094.49,3103.24 L 2081.71,3108.93 L 2068.02,3111.84 L 2054.03,3111.84 L 2040.34,3108.93 L 2027.56,3103.24 L 2016.24,3095.01 L 2006.9,3084.65 L 1794.13,3084.65 L 1787.43,3092.09 L 1776.77,3099.83 L 1764.74,3105.18 L 1751.86,3107.92 L 1738.69,3107.92 L 1725.81,3105.18 L 1713.78,3099.83 L 1703.13,3092.09 L 1696.42,3084.65 L 1245.28,3084.65 L 1237.59,3083.89 L 1230.21,3081.65 L 1223.4,3078.01 L 1217.44,3073.11 L 917.437,2773.11 L 912.541,2767.15 L 908.902,2760.34 L 906.662,2752.96 L 905.906,2745.28 L 905.906,1845.28 L 906.662,1837.59 L 908.902,1830.21 L 912.541,1823.4 L 917.437,1817.44 L 1017.44,1717.44 L 1023.4,1712.54 z " style="fill-opacity:1.000000;fill:rgb(67,251,250);stroke:rgb(0,0,0);stroke-width:2"/></g>
<g fill-rule="evenodd"><path d="M 2126.49,2059.19 L 2122.17,2072.5 L 2115.17,2084.62 L 2105.81,2095.01 L 2094.49,2103.24 L 2081.71,2108.93 L 2068.02,2111.84 L 2054.03,2111.84 L 2040.34,2108.93 L 2027.56,2103.24 L 2016.24,2095.01 L 2006.9,2084.65 L 1945.28,2084.65 L 1937.59,2083.89 L 1930.21,2081.65 L 1923.4,2078.01 L 1917.44,2073.11 L 1828.97,1984.65 L 1499.4,1984.65 L 1490.06,1995.01 L 1478.74,2003.24 L 1465.96,2008.93 L 1452.27,2011.84 L 1438.28,2011.84 L 1424.59,2008.93 L 1411.81,2003.24 L 1400.49,1995.01 L 1391.13,1984.62 L 1384.13,1972.5 L 1379.81,1959.19 L 1378.35,1945.28 L 1379.81,1931.36 L 1384.13,1918.05 L 1391.13,1905.94 L 1400.49,1895.54 L 1411.81,1887.31 L 1424.59,1881.62 L 1438.28,1878.71 L 1452.27,1878.71 L 1465.96,1881.62 L 1478.74,1887.31 L 1490.06,1895.54 L 1499.4,1905.91 L 1845.28,1905.91 L 1852.96,1906.66 L 1860.34,1908.9 L 1867.15,1912.54 L 1873.11,1917.44 L 1961.58,2005.91 L 2006.9,2005.91 L 2016.24,1995.54 L 2027.56,1987.31 L 2040.34,1981.62 L 2054.03,1978.71 L 2068.02,1978.71 L 2081.71,1981.62 L 2094.49,1987.31 L 2105.81,1995.54 L 2115.17,2005.94 L 2122.17,2018.05 L 2126.49,2031.36 L 2127.95,2045.28 L 2126.49,2059.19 z " style="fill-opacity:1.000000;fill:rgb(170,58,251);stroke:rgb(0,0,0);stroke-width:2"/></g>
<g fill-rule="evenodd"><path d="M 2081.71,3708.93 L 2068.02,3711.84 L 2054.03,3711.84 L 2040.34,3708.93 L 2027.56,3703.24 L 2016.24,3695.01 L 2006.9,3684.65 L 1145.28,3684.65 L 1137.6,3683.89 L 1130.21,3681.65 L 1123.4,3678.01 L 1117.44,3673.11 L 517.437,3073.11 L 513.425,3068.42 L 510.197,3063.15 L 507.832,3057.44 L 506.39,3051.43 L 505.906,3045.28 L 505.906,1245.28 L 506.662,1237.59 L 508.902,1230.21 L 512.541,1223.4 L 517.437,1217.44 L 817.437,917.437 L 823.403,912.541 L 830.209,908.902 L 837.595,906.662 L 845.276,905.906 L 1545.28,905.906 L 1552.96,906.662 L 1560.34,908.902 L 1567.15,912.541 L 1573.11,917.437 L 1673.11,1017.44 L 1678.01,1023.4 L 1681.65,1030.21 L 1683.89,1037.59 L 1684.65,1045.28 L 1684.65,1245.28 L 1683.89,1252.96 L 1681.65,1260.34 L 1678.01,1267.15 L 1673.11,1273.11 L 1573.11,1373.11 L 1567.15,1378.01 L 1560.34,1381.65 L 1552.96,1383.89 L 1545.28,1384.65 L 1499.4,1384.65 L 1490.06,1395.01 L 1478.74,1403.24 L 1465.96,1408.93 L 1452.27,1411.84 L 1438.28,1411.84 L 1424.59,1408.93 L 1411.81,1403.24 L 1400.49,1395.01 L 1391.13,1384.62 L 1384.13,1372.5 L 1379.81,1359.19 L 1378.35,1345.28 L 1379.81,1331.36 L 1384.13,1318.05 L 1391.13,1305.94 L 1400.49,1295.54 L 1411.81,1287.31 L 1424.59,1281.62 L 1438.28,1278.71 L 1452.27,1278.71 L 1465.96,1281.62 L 1478.74,1287.31 L 1490.06,1295.54 L 1499.4,1305.91 L 1528.97,1305.91 L 1605.91,1228.97 L 1605.91,1061.58 L 1528.97,984.646 L 861.583,984.646 L 584.646,1261.58 L 584.646,3028.97 L 1161.59,3605.91 L 2006.9,3605.91 L 2016.24,3595.54 L 2027.56,3587.31 L 2040.34,3581.62 L 2054.03,3578.71 L 2068.02,3578.71 L 2081.71,3581.62 L 2094.49,3587.31 L 2105.81,3595.54 L 2115.17,3605.94 L 2122.17,3618.05 L 2126.49,3631.36 L 2127.95,3645.28 L 2126.49,3659.19 L 2122.17,3672.5 L 2115.17,3684.62 L 2105.81,3695.01 L 2094.49,3703.24 L 2081.71,3708.93 z " style="fill-opacity:1.000000;fill:rgb(41,209,230);stroke:rgb(0,0,0);stroke-width:2"/></g>
<g fill-rule="evenodd"><path d="M 2122.17,2472.5 L 2115.17,2484.62 L 2105.81,2495.01 L 2094.49,2503.24 L 2081.71,2508.93 L 2068.02,2511.84 L 2054.03,2511.84 L 2040.34,2508.93 L 2027.56,2503.24 L 2016.24,2495.01 L 2006.9,2484.65 L 1761.58,2484.65 L 1573.11,2673.11 L 1567.15,2678.01 L 1560.34,2681.65 L 1552.96,2683.89 L 1545.28,2684.65 L 1245.28,2684.65 L 1239.12,2684.16 L 1233.11,2682.72 L 1227.4,2680.35 L 1222.13,2677.13 L 1217.44,2673.11 L 1117.44,2573.11 L 1112.54,2567.15 L 1108.9,2560.34 L 1106.66,2552.96 L 1105.91,2545.28 L 1105.91,2245.28 L 1106.66,2237.59 L 1108.9,2230.21 L 1112.54,2223.4 L 1117.44,2217.44 L 1217.44,2117.44 L 1222.13,2113.42 L 1227.4,2110.2 L 1233.11,2107.83 L 1239.12,2106.39 L 1245.28,2105.91 L 1391.16,2105.91 L 1400.49,2095.54 L 1411.81,2087.31 L 1424.59,2081.62 L 1438.28,2078.71 L 1452.27,2078.71 L 1465.96,2081.62 L 1478.74,2087.31 L 1490.06,2095.54 L 1499.42,2105.94 L 1506.42,2118.05 L 1510.74,2131.36 L 1512.2,2145.28 L 1510.74,2159.19 L 1506.42,2172.5 L 1499.42,2184.62 L 1490.06,2195.01 L 1478.74,2203.24 L 1465.96,2208.93 L 1452.27,2211.84 L 1438.28,2211.84 L 1424.59,2208.93 L 1411.81,2203.24 L 1400.49,2195.01 L 1391.16,2184.65 L 1261.58,2184.65 L 1184.65,2261.58 L 1184.65,2528.97 L 1261.58,2605.91 L 1528.97,2605.91 L 1717.44,2417.44 L 1723.4,2412.54 L 1730.21,2408.9 L 1737.59,2406.66 L 1745.28,2405.91 L 2006.9,2405.91 L 2016.24,2395.54 L 2027.56,2387.31 L 2040.34,2381.62 L 2054.03,2378.71 L 2068.02,2378.71 L 2081.71,2381.62 L 2094.49,2387.31 L 2105.81,2395.54 L 2115.17,2405.94 L 2122.17,2418.05 L 2126.49,2431.36 L 2127.95,2445.28 L 2126.49,2459.19 L 2122.17,2472.5 z " style="fill-opacity:1.000000;fill:rgb(5,60,124);stroke:rgb(0,0,0);stroke-width:2"/></g>
<g fill-rule="evenodd"><path d="M 2081.71,3508.93 L 2068.02,3511.84 L 2054.03,3511.84 L 2040.34,3508.93 L 2027.56,3503.24 L 2016.24,3495.01 L 2006.9,3484.65 L 1245.28,3484.65 L 1237.59,3483.89 L 1230.21,3481.65 L 1223.4,3478.01 L 1217.44,3473.11 L 717.437,2973.11 L 712.541,2967.15 L 708.902,2960.34 L 706.662,2952.96 L 705.906,2945.28 L 705.906,1345.28 L 706.662,1337.59 L 708.902,1330.21 L 712.541,1323.4 L 717.437,1317.44 L 917.437,1117.44 L 923.403,1112.54 L 930.209,1108.9 L 937.595,1106.66 L 945.276,1105.91 L 1378.35,1105.91 L 1378.35,1078.35 L 1512.2,1078.35 L 1512.2,1212.2 L 1378.35,1212.2 L 1378.35,1184.65 L 961.583,1184.65 L 784.646,1361.58 L 784.646,2928.97 L 1261.58,3405.91 L 2006.9,3405.91 L 2016.24,3395.54 L 2027.56,3387.31 L 2040.34,3381.62 L 2054.03,3378.71 L 2068.02,3378.71 L 2081.71,3381.62 L 2094.49,3387.31 L 2105.81,3395.54 L 2115.17,3405.94 L 2122.17,3418.05 L 2126.49,3431.36 L 2127.95,3445.28 L 2126.49,3459.19 L 2122.17,3472.5 L 2115.17,3484.62 L 2105.81,3495.01 L 2094.49,3503.24 L 2081.71,3508.93 z " style="fill-opacity:1.000000;fill:rgb(148,117,216);stroke:rgb(0,0,0);stroke-width:2"/></g>
<g fill-rule="evenodd"><path d="M 3791.13,3668.87 L 3784.13,3656.75 L 3779.81,3643.44 L 3778.35,3629.53 L 3779.81,3615.61 L 3784.13,3602.31 L 3791.13,3590.19 L 3800.49,3579.79 L 3811.81,3571.57 L 3824.59,3565.87 L 3838.28,3562.97 L 3852.27,3562.97 L 3865.96,3565.87 L 3878.74,3571.57 L 3890.06,3579.79 L 3899.4,3590.16 L 4044.72,3590.16 L 4379.42,3255.46 L 4378.35,3245.28 L 4379.81,3231.36 L 4384.13,3218.05 L 4391.13,3205.94 L 4400.49,3195.54 L 4411.81,3187.31 L 4424.59,3181.62 L 4438.28,3178.71 L 4452.27,3178.71 L 4465.96,3181.62 L 4478.74,3187.31 L 4490.06,3195.54 L 4499.42,3205.94 L 4506.42,3218.05 L 4510.74,3231.36 L 4512.2,3245.28 L 4510.74,3259.19 L 4506.42,3272.5 L 4499.42,3284.62 L 4490.06,3295.01 L 4478.74,3303.24 L 4465.96,3308.93 L 4452.27,3311.84 L 4438.28,3311.84 L 4435.07,3311.16 L 4088.86,3657.37 L 4084.17,3661.38 L 4078.9,3664.61 L 4073.19,3666.97 L 4067.18,3668.41 L 4061.03,3668.9 L 3899.4,3668.9 L 3890.06,3679.27 L 3878.74,3687.49 L 3865.96,3693.18 L 3852.27,3696.09 L 3838.28,3696.09 L 3824.59,3693.18 L 3811.81,3687.49 L 3800.49,3679.27 L 3791.13,3668.87 z " style="fill-opacity:1.000000;fill:rgb(190,97,137);stroke:rgb(0,0,0);stroke-width:2"/></g>
<g fill-rule="evenodd"><path d="M 4506.42,3018.05 L 4510.74,3031.36 L 4512.2,3045.28 L 4510.74,3059.19 L 4506.42,3072.5 L 4499.42,3084.62 L 4490.06,3095.01 L 4478.74,3103.24 L 4465.96,3108.93 L 4452.27,3111.84 L 4438.28,3111.84 L 4424.59,3108.93 L 4411.81,3103.24 L 4400.49,3095.01 L 4391.16,3084.65 L 4230.09,3084.65 L 4057.37,3257.37 L 4051.4,3262.26 L 4044.59,3265.9 L 4037.21,3268.14 L 4029.53,3268.9 L 3899.4,3268.9 L 3890.06,3279.27 L 3878.74,3287.49 L 3865.96,3293.18 L 3852.27,3296.09 L 3838.28,3296.09 L 3824.59,3293.18 L 3811.81,3287.49 L 3800.49,3279.27 L 3791.13,3268.87 L 3784.13,3256.75 L 3779.81,3243.44 L 3778.35,3229.53 L 3779.81,3215.61 L 3784.13,3202.31 L 3791.13,3190.19 L 3800.49,3179.79 L 3811.81,3171.57 L 3824.59,3165.87 L 3838.28,3162.97 L 3852.27,3162.97 L 3865.96,3165.87 L 3878.74,3171.57 L 3890.06,3179.79 L 3899.4,3190.16 L 4013.22,3190.16 L 4185.94,3017.44 L 4191.91,3012.54 L 4198.71,3008.9 L 4206.1,3006.66 L 4213.78,3005.91 L 4391.16,3005.91 L 4400.49,2995.54 L 4411.81,2987.31 L 4424.59,2981.62 L 4438.28,2978.71 L 4452.27,2978.71 L 4465.96,2981.62 L 4478.74,2987.31 L 4490.06,2995.54 L 4499.42,3005.94 L 4506.42,3018.05 z " style="fill-opacity:1.000000;fill:rgb(249,92,187);stroke:rgb(0,0,0);stroke-width:2"/></g>
<g fill-rule="evenodd"><path d="M 4512.2,2778.35 L 4512.2,2912.2 L 4378.35,2912.2 L 4378.35,2868.9 L 3899.4,2868.9 L 3890.06,2879.27 L 3878.74,2887.49 L 3865.96,2893.18 L 3852.27,2896.09 L 3838.28,2896.09 L 3824.59,2893.18 L 3811.81,2887.49 L 3800.49,2879.27 L 3791.13,2868.87 L 3784.13,2856.75 L 3779.81,2843.44 L 3778.35,2829.53 L 3779.81,2815.61 L 3784.13,2802.31 L 3791.13,2790.19 L 3800.49,2779.79 L 3811.81,2771.57 L 3824.59,2765.87 L 3838.28,2762.97 L 3852.27,2762.97 L 3865.96,2765.87 L 3878.74,2771.57 L 3890.06,2779.79 L 3899.4,2790.16 L 4378.35,2790.16 L 4378.35,2778.35 L 4512.2,2778.35 z " style="fill-opacity:1.000000;fill:rgb(168,153,15);stroke:rgb(0,0,0);stroke-width:2"/></g>
</svg>
