M48
; DRILL file {KiCad 5.1.8-db9833491~88~ubuntu20.04.1} date Thu Dec  3 17:21:47 2020
; FORMAT={3:3/ absolute / metric / suppress leading zeros}
; #@! TF.CreationDate,2020-12-03T17:21:47-07:00
; #@! TF.GenerationSoftware,Kicad,Pcbnew,5.1.8-db9833491~88~ubuntu20.04.1
FMAT,2
METRIC,TZ
T1C0.800
T2C1.000
T3C3.200
%
G90
G05
T1
X-44450Y21590
X-44450Y19050
T2
X-10160Y21590
X-10160Y19050
X-10160Y16510
X-40440Y52070
X-40440Y49530
X-40440Y46990
X-40440Y44450
X-40440Y41910
X-40440Y39370
X-40440Y36830
X-40440Y34290
X-40440Y31750
X-40440Y29210
X-40440Y26670
X-40440Y24130
X-40440Y21590
X-40440Y19050
X-40440Y16510
X-40440Y13970
X-40440Y11430
X-40440Y8890
X-40440Y6350
X-40440Y3810
X-48260Y43180
X-48260Y40640
X-48260Y38100
X-48260Y35560
X-48260Y33020
X-48260Y30480
X-48260Y27940
X-17780Y52270
X-17780Y49730
X-17780Y47190
X-17780Y44650
X-17780Y42110
X-17780Y39570
X-17780Y37030
X-17780Y34490
X-17780Y31950
X-17780Y29410
X-17780Y26870
X-17780Y24330
X-17780Y21790
X-17780Y19250
X-17780Y16710
X-17780Y14170
X-17780Y11630
X-17780Y9090
X-17780Y6550
X-17780Y4010
T3
X-60960Y52070
X-5080Y6350
X-60960Y6350
X-5080Y52070
T0
M30
