%TF.GenerationSoftware,KiCad,Pcbnew,5.1.8-db9833491~88~ubuntu20.04.1*%
%TF.CreationDate,2020-12-03T17:21:22-07:00*%
%TF.ProjectId,Sound-Clock-Board,536f756e-642d-4436-9c6f-636b2d426f61,rev?*%
%TF.SameCoordinates,Original*%
%TF.FileFunction,Copper,L2,Bot*%
%TF.FilePolarity,Positive*%
%FSLAX46Y46*%
G04 Gerber Fmt 4.6, Leading zero omitted, Abs format (unit mm)*
G04 Created by KiCad (PCBNEW 5.1.8-db9833491~88~ubuntu20.04.1) date 2020-12-03 17:21:22*
%MOMM*%
%LPD*%
G01*
G04 APERTURE LIST*
%TA.AperFunction,ComponentPad*%
%ADD10O,1.700000X1.700000*%
%TD*%
%TA.AperFunction,ComponentPad*%
%ADD11R,1.700000X1.700000*%
%TD*%
%TA.AperFunction,ComponentPad*%
%ADD12O,1.600000X1.600000*%
%TD*%
%TA.AperFunction,ComponentPad*%
%ADD13C,1.600000*%
%TD*%
%TA.AperFunction,Conductor*%
%ADD14C,1.000000*%
%TD*%
%TA.AperFunction,Conductor*%
%ADD15C,0.250000*%
%TD*%
G04 APERTURE END LIST*
D10*
%TO.P,J4,3*%
%TO.N,Net-(J2-Pad17)*%
X-10160000Y16510000D03*
%TO.P,J4,2*%
%TO.N,Net-(J2-Pad15)*%
X-10160000Y19050000D03*
D11*
%TO.P,J4,1*%
%TO.N,Net-(J2-Pad13)*%
X-10160000Y21590000D03*
%TD*%
D12*
%TO.P,R1,2*%
%TO.N,Net-(J1-Pad13)*%
X-44450000Y21590000D03*
D13*
%TO.P,R1,1*%
%TO.N,Net-(J1-Pad14)*%
X-44450000Y19050000D03*
%TD*%
D10*
%TO.P,J3,7*%
%TO.N,Net-(J1-Pad10)*%
X-48260000Y27940000D03*
%TO.P,J3,6*%
%TO.N,Net-(J1-Pad11)*%
X-48260000Y30480000D03*
%TO.P,J3,5*%
%TO.N,Net-(J1-Pad9)*%
X-48260000Y33020000D03*
%TO.P,J3,4*%
%TO.N,Net-(J1-Pad14)*%
X-48260000Y35560000D03*
%TO.P,J3,3*%
%TO.N,Net-(J3-Pad3)*%
X-48260000Y38100000D03*
%TO.P,J3,2*%
%TO.N,Net-(J1-Pad17)*%
X-48260000Y40640000D03*
D11*
%TO.P,J3,1*%
%TO.N,Net-(J1-Pad16)*%
X-48260000Y43180000D03*
%TD*%
D10*
%TO.P,J2,20*%
%TO.N,Net-(J2-Pad20)*%
X-17780000Y4010000D03*
%TO.P,J2,19*%
%TO.N,Net-(J2-Pad19)*%
X-17780000Y6550000D03*
%TO.P,J2,18*%
%TO.N,Net-(J2-Pad18)*%
X-17780000Y9090000D03*
%TO.P,J2,17*%
%TO.N,Net-(J2-Pad17)*%
X-17780000Y11630000D03*
%TO.P,J2,16*%
%TO.N,Net-(J2-Pad16)*%
X-17780000Y14170000D03*
%TO.P,J2,15*%
%TO.N,Net-(J2-Pad15)*%
X-17780000Y16710000D03*
%TO.P,J2,14*%
%TO.N,Net-(J2-Pad14)*%
X-17780000Y19250000D03*
%TO.P,J2,13*%
%TO.N,Net-(J2-Pad13)*%
X-17780000Y21790000D03*
%TO.P,J2,12*%
%TO.N,Net-(J2-Pad12)*%
X-17780000Y24330000D03*
%TO.P,J2,11*%
%TO.N,Net-(J2-Pad11)*%
X-17780000Y26870000D03*
%TO.P,J2,10*%
%TO.N,Net-(J2-Pad10)*%
X-17780000Y29410000D03*
%TO.P,J2,9*%
%TO.N,Net-(J2-Pad9)*%
X-17780000Y31950000D03*
%TO.P,J2,8*%
%TO.N,Net-(J2-Pad8)*%
X-17780000Y34490000D03*
%TO.P,J2,7*%
%TO.N,Net-(J2-Pad7)*%
X-17780000Y37030000D03*
%TO.P,J2,6*%
%TO.N,Net-(J2-Pad6)*%
X-17780000Y39570000D03*
%TO.P,J2,5*%
%TO.N,Net-(J2-Pad5)*%
X-17780000Y42110000D03*
%TO.P,J2,4*%
%TO.N,Net-(J2-Pad4)*%
X-17780000Y44650000D03*
%TO.P,J2,3*%
%TO.N,Net-(J2-Pad3)*%
X-17780000Y47190000D03*
%TO.P,J2,2*%
%TO.N,Net-(J2-Pad2)*%
X-17780000Y49730000D03*
D11*
%TO.P,J2,1*%
%TO.N,Net-(J2-Pad1)*%
X-17780000Y52270000D03*
%TD*%
D10*
%TO.P,J1,20*%
%TO.N,Net-(J1-Pad20)*%
X-40440000Y3810000D03*
%TO.P,J1,19*%
%TO.N,Net-(J1-Pad19)*%
X-40440000Y6350000D03*
%TO.P,J1,18*%
%TO.N,Net-(J1-Pad18)*%
X-40440000Y8890000D03*
%TO.P,J1,17*%
%TO.N,Net-(J1-Pad17)*%
X-40440000Y11430000D03*
%TO.P,J1,16*%
%TO.N,Net-(J1-Pad16)*%
X-40440000Y13970000D03*
%TO.P,J1,15*%
%TO.N,Net-(J1-Pad15)*%
X-40440000Y16510000D03*
%TO.P,J1,14*%
%TO.N,Net-(J1-Pad14)*%
X-40440000Y19050000D03*
%TO.P,J1,13*%
%TO.N,Net-(J1-Pad13)*%
X-40440000Y21590000D03*
%TO.P,J1,12*%
%TO.N,Net-(J1-Pad12)*%
X-40440000Y24130000D03*
%TO.P,J1,11*%
%TO.N,Net-(J1-Pad11)*%
X-40440000Y26670000D03*
%TO.P,J1,10*%
%TO.N,Net-(J1-Pad10)*%
X-40440000Y29210000D03*
%TO.P,J1,9*%
%TO.N,Net-(J1-Pad9)*%
X-40440000Y31750000D03*
%TO.P,J1,8*%
%TO.N,Net-(J1-Pad8)*%
X-40440000Y34290000D03*
%TO.P,J1,7*%
%TO.N,Net-(J1-Pad7)*%
X-40440000Y36830000D03*
%TO.P,J1,6*%
%TO.N,Net-(J1-Pad6)*%
X-40440000Y39370000D03*
%TO.P,J1,5*%
%TO.N,Net-(J1-Pad5)*%
X-40440000Y41910000D03*
%TO.P,J1,4*%
%TO.N,Net-(J1-Pad4)*%
X-40440000Y44450000D03*
%TO.P,J1,3*%
%TO.N,Net-(J1-Pad3)*%
X-40440000Y46990000D03*
%TO.P,J1,2*%
%TO.N,Net-(J1-Pad2)*%
X-40440000Y49530000D03*
D11*
%TO.P,J1,1*%
%TO.N,Net-(J1-Pad1)*%
X-40440000Y52070000D03*
%TD*%
D14*
%TO.N,Net-(J1-Pad17)*%
X-46990000Y45720000D02*
X-45720000Y44450000D01*
X-59690000Y41910000D02*
X-55880000Y45720000D01*
X-59690000Y19050000D02*
X-59690000Y41910000D01*
X-55880000Y45720000D02*
X-46990000Y45720000D01*
X-52070000Y11430000D02*
X-59690000Y19050000D01*
X-40440000Y11430000D02*
X-52070000Y11430000D01*
X-48260000Y40640000D02*
X-46990000Y40640000D01*
X-45720000Y41910000D02*
X-45720000Y44450000D01*
X-46990000Y40640000D02*
X-45720000Y41910000D01*
%TO.N,Net-(J1-Pad16)*%
X-40440000Y13970000D02*
X-50800000Y13970000D01*
X-50800000Y13970000D02*
X-57150000Y20320000D01*
X-57150000Y20320000D02*
X-57150000Y40640000D01*
X-57150000Y40640000D02*
X-54610000Y43180000D01*
X-54610000Y43180000D02*
X-48260000Y43180000D01*
%TO.N,Net-(J1-Pad14)*%
X-40440000Y19050000D02*
X-44450000Y19050000D01*
X-44450000Y19050000D02*
X-50800000Y19050000D01*
X-50800000Y19050000D02*
X-54610000Y22860000D01*
X-54610000Y22860000D02*
X-54610000Y34290000D01*
X-54610000Y34290000D02*
X-53340000Y35560000D01*
X-53340000Y35560000D02*
X-48260000Y35560000D01*
%TO.N,Net-(J1-Pad13)*%
X-40440000Y21590000D02*
X-44450000Y21590000D01*
%TO.N,Net-(J1-Pad11)*%
X-52070000Y29210000D02*
X-50800000Y30480000D01*
X-52070000Y25400000D02*
X-52070000Y29210000D01*
X-50800000Y24130000D02*
X-52070000Y25400000D01*
X-46990000Y24130000D02*
X-50800000Y24130000D01*
X-50800000Y30480000D02*
X-48260000Y30480000D01*
X-44450000Y26670000D02*
X-46990000Y24130000D01*
X-40440000Y26670000D02*
X-44450000Y26670000D01*
%TO.N,Net-(J1-Pad10)*%
X-40440000Y29210000D02*
X-44450000Y29210000D01*
X-44450000Y29210000D02*
X-45720000Y27940000D01*
X-45720000Y27940000D02*
X-48260000Y27940000D01*
%TO.N,Net-(J1-Pad9)*%
X-40440000Y31750000D02*
X-41910000Y31750000D01*
X-41910000Y31750000D02*
X-43180000Y33020000D01*
X-43180000Y33020000D02*
X-48260000Y33020000D01*
%TO.N,Net-(J2-Pad17)*%
X-15040000Y11630000D02*
X-10160000Y16510000D01*
X-17780000Y11630000D02*
X-15040000Y11630000D01*
%TO.N,Net-(J2-Pad15)*%
X-17780000Y16710000D02*
X-15440000Y16710000D01*
X-15440000Y16710000D02*
X-13100000Y19050000D01*
X-13100000Y19050000D02*
X-10160000Y19050000D01*
D15*
%TO.N,Net-(J2-Pad13)*%
X-10360000Y21790000D02*
X-10160000Y21590000D01*
D14*
X-17780000Y21790000D02*
X-9960000Y21790000D01*
X-9960000Y21790000D02*
X-10160000Y21590000D01*
%TD*%
M02*
